<?xml version="1.0" encoding="utf-8"?>
<!-- Generator: Adobe Illustrator 17.0.2, SVG Export Plug-In . SVG Version: 6.00 Build 0)  -->
<!DOCTYPE svg PUBLIC "-//W3C//DTD SVG 1.1//EN" "http://www.w3.org/Graphics/SVG/1.1/DTD/svg11.dtd">
<svg version="1.1" id="Layer_1" xmlns="http://www.w3.org/2000/svg" xmlns:xlink="http://www.w3.org/1999/xlink" x="0px" y="0px"
	 width="307.5px" height="364.4px" viewBox="0 0 307.5 364.4" style="enable-background:new 0 0 307.5 364.4;" xml:space="preserve"
	>
<style type="text/css">
	.st0{fill:#003168;}
	.st1{fill:#ffffff;}
	.st2{fill:#ffffff;}
</style>
<g>
	<g>
		<g>
			<path class="st0" d="M23.4,188.2c-7.3-2-17-7.6-16.6-14.5c0.3-5.4,6.1-8.6,17.2-8.6c9.1,0,16.1,4.2,16.1,9.1L40,189.4
				C36,190.1,30.5,190.1,23.4,188.2z"/>
			<path class="st0" d="M286.5,188.2c7.3-2,17-7.6,16.6-14.5c-0.3-5.4-6.1-8.6-17.2-8.6c-9.2,0-16.1,4.2-16.1,9.1l0.1,15.2
				C273.9,190.1,279.4,190.1,286.5,188.2z"/>
		</g>
		<g>
			<path class="st1" d="M35.8,176.4c-1.7,0.6-4.2,0.9-6.8,0.9c-1.9,0-3.8-0.1-5.4-0.3l-1.9-0.2l0,1.9l-0.1,7.3
				c-2.1-0.7-13-4.1-13-12.1c0-2.1,1.1-3.6,3.6-4.9c2.4-1.3,6.3-2.1,11.5-2.1c0,0,0.1,0,0.1,0c3.2,0,7.1,0.6,9.8,1.8
				c2.8,1.3,4.4,3,4.4,5.5C38,175.1,37.5,175.7,35.8,176.4z M41.5,174.2c0-4.2-3-7.1-6.4-8.6c-3.5-1.6-7.6-2.1-11.3-2.2
				c-5.6,0-10,0.8-13.2,2.5c-3.2,1.6-5.1,4.4-5.3,7.7c0,0.3,0,0.6,0,0.8c0,9.2,12.7,11.6,19.7,13.2l0.1-7.1c1.3,0.1,2.6,0.2,3.9,0.2
				c2.8,0,5.6-0.2,8-1.1c0.3-0.1,0.7-0.3,1-0.4l0,9.6l3.4-0.3L41.5,174.2z"/>
			<path class="st1" d="M271.9,174.2c0-2.5,1.5-4.1,4.4-5.5c2.8-1.3,6.6-1.9,9.8-1.8c0,0,0.1,0,0.1,0c5.2,0,9.1,0.8,11.5,2.1
				c2.4,1.3,3.6,2.8,3.6,4.9c0,8-10.9,11.4-13,12.1l-0.1-7.3l0-1.9l-1.9,0.2c-1.6,0.2-3.5,0.3-5.4,0.3c-2.5,0-5.1-0.3-6.8-0.9
				C272.4,175.7,271.9,175.1,271.9,174.2z M268.5,188.5l3.4,0.3l0-9.6c0.3,0.2,0.7,0.3,1.1,0.4c2.3,0.8,5.2,1.1,8,1.1
				c1.3,0,2.7-0.1,3.9-0.2l0.1,7.1c7-1.6,19.7-4,19.7-13.2c0-0.3,0-0.5,0-0.8c-0.2-3.3-2.1-6.1-5.3-7.7c-3.2-1.7-7.6-2.5-13.2-2.5
				c-3.6,0-7.8,0.6-11.2,2.2c-3.4,1.5-6.4,4.4-6.4,8.6L268.5,188.5z"/>
		</g>
	</g>
	<path class="st0" d="M238.7,8.9c-11.5,5.1-25,7.9-42.3,7.9c-27,0-39.8-7.7-42.3-12.3c-2.5,4.6-15.2,12.3-42.3,12.3
		c-17.3,0-30.8-2.8-42.3-7.9c-0.9,12.8-25.2,38.1-34.5,42.1c9.3,12.8,19.9,39,19.9,67.7c0,28.8-20.4,48.7-20.4,82.8
		c0,85.9,105.4,86.3,119.5,114.2c14.2-27.9,119.5-28.3,119.5-114.2c0-34.1-20.4-54-20.4-82.8c0-28.8,10.6-54.9,19.9-67.7
		C264,46.9,239.6,21.7,238.7,8.9z"/>
	<path class="st2" d="M253.8,34.3v55.1v19.1c2.1-24.6,11.3-46.2,19.5-57.5C268.8,49,260.9,42.2,253.8,34.3z M154.2,4.5
		c-1.4,2.6-6,6.1-14.4,8.7v290c6.8,3.7,11.9,7.7,14.4,12.5c2.4-4.8,7.5-8.8,14.4-12.5v-290C160.1,10.6,155.6,7,154.2,4.5z
		 M253.6,124.5l0.1,130.9c11.9-13.1,19.9-30.2,19.9-53.9C273.7,169.7,256.1,150.2,253.6,124.5z M82.8,276.9
		c9.5,5.3,19.4,9.6,28.7,13.6V16.8c-11,0-20.4-1.2-28.7-3.3V276.9z M35.1,50.9c8.2,11.3,17.4,32.9,19.5,57.5V34.3
		C47.4,42.2,39.5,49,35.1,50.9z M196.8,288v2.5c9.3-3.9,19.2-8.3,28.7-13.6V13.4c-8.3,2.1-17.8,3.3-28.7,3.3V288z M54.6,255.4V125.9
		c-2.9,25-19.9,44.4-19.9,75.5C34.6,225.1,42.7,242.3,54.6,255.4z"/>
	<path class="st1" d="M151.8,316.9c-2.2-4.3-7.6-8.5-15.2-12.4l0,0c-7.6-4-17.2-7.8-27.6-12.1l0,0c-20.7-8.7-44.1-19.6-59.8-39.1
		l0,0c-10.5-13-17.3-29.8-17.3-51.8l0,0c0-17.6,5.3-31.5,10.4-44.4l0,0c5.1-12.9,10-24.7,10-38.4l0,0c0-28.1-10.5-53.9-19.4-66.2
		l0,0l1.1-4c2.8-1.2,8.4-5.5,14-11.1l0,0c5.6-5.6,11.2-12.4,14.9-18.5l0,0c2.4-4,3.9-7.8,4.1-10.2l0,0l3.7-2.2
		c11.1,4.9,24.1,7.7,41.2,7.7l0,0c13.3,0,22.9-1.9,29.4-4.3l0,0c6.5-2.3,9.9-5.4,10.5-6.7l0,0h4.6c0.6,1.3,4,4.4,10.5,6.7l0,0
		c6.5,2.4,16.2,4.3,29.4,4.3l0,0c17.1,0,30.1-2.8,41.2-7.7l0,0l3.7,2.2c0.1,2.5,1.6,6.2,4.1,10.2l0,0c2.4,4.1,5.8,8.4,9.4,12.5l0,0
		c7.1,8.2,15.7,15.5,19.5,17l0,0l1.1,4c-8.9,12.3-19.5,38.1-19.4,66.2l0,0c0,13.7,4.9,25.5,10,38.4l0,0
		c5.1,12.9,10.4,26.8,10.4,44.4l0,0c0.1,33.1-15.4,54.3-35.2,68.7l0,0c-19.7,14.4-43.6,22.5-61.3,30.4l0,0
		c-11.8,5.2-20.5,10.5-23.4,16.3l0,0H151.8L151.8,316.9z M57.6,118.7c0,15-5.3,27.6-10.4,40.4l0,0c-5.1,12.8-10,25.9-10,42.4l0,0
		c0.1,31.3,14.2,50.5,33,64.4l0,0c18.8,13.8,42.3,21.9,60.3,29.9l0,0c10.1,4.6,18.6,9,23.6,15.2l0,0c3.5-4.3,8.8-7.8,15.1-11.1l0,0
		c8-4.1,17.7-8,27.9-12.3l0,0c20.5-8.7,43.2-19.3,57.8-37.5l0,0c9.8-12.1,16.1-27.6,16.1-48.5l0,0c0-16.5-4.9-29.6-10-42.4l0,0
		c-5.1-12.8-10.3-25.3-10.4-40.4l0,0c0-27.7,9.5-52.8,18.7-66.8l0,0c-3.7-2.3-8.2-6.1-12.8-10.7l0,0c-5.8-5.8-11.7-12.8-15.7-19.5
		l0,0c-1.9-3.1-3.4-6.2-4.2-9.1l0,0c-11.2,4.5-24.2,6.9-40.3,6.9l0,0c-13.8,0-24-2-31.2-4.6l0,0c-5.1-1.9-8.7-4-11-6.2l0,0
		c-2.4,2.2-6,4.3-11,6.2l0,0c-7.2,2.6-17.5,4.6-31.2,4.6l0,0c-16.1,0-29.1-2.4-40.3-6.9l0,0c-0.8,2.9-2.3,6-4.2,9.1l0,0
		c-2.7,4.4-6.2,9-9.9,13.3l0,0c-6.4,7.3-13.3,13.6-18.6,16.9l0,0C48.1,65.9,57.6,90.9,57.6,118.7L57.6,118.7z"/>
	<g>
		<g>
			<path class="st1" d="M84.1,313.7c-0.6,0.9-1.3,1.6-2.3,2c-0.8,0.3-1.7,0.4-2.6,0.3c-0.8-0.1-1.7-0.5-2.7-1
				c-1.2-0.7-2.2-1.7-3-2.9v-0.2c0.6-0.6,1.2-1.4,1.9-2.6l0.1,0l0.5,0.3l0,0.1l-0.1,0.2c-0.2,0.3-0.4,0.7-0.6,1.3
				c0,0.5,0.2,1,0.5,1.6c0.4,0.6,0.9,1.1,1.5,1.4c1.1,0.7,2.1,0.7,3,0.2c0.5-0.3,0.8-0.6,1.1-1c0.4-0.7,0.4-1.4,0-2.1
				c-0.2-0.3-0.6-0.7-1.2-1.2c-1.3-1.1-2.2-2-2.4-2.6c-0.4-0.9-0.3-2,0.4-3.1c0.7-1.1,1.6-1.8,2.8-2c1.2-0.2,2.6,0.1,4,1
				c1.3,0.8,2.2,1.6,2.8,2.5l-0.1,0.2c-0.5,0.6-1.1,1.3-1.7,2.3l-0.1,0l-0.5-0.3l0-0.1c0.4-0.7,0.6-1.1,0.7-1.4
				c0-0.4-0.2-0.8-0.5-1.2c-0.3-0.5-0.8-0.8-1.3-1.1c-0.8-0.4-1.5-0.6-2.1-0.5c-0.6,0.1-1.1,0.5-1.5,1.1c-0.4,0.6-0.4,1.3-0.1,1.8
				c0.2,0.4,0.8,1,1.8,1.8c0.1,0.1,0.4,0.3,0.9,0.8c0.3,0.3,0.5,0.5,0.8,0.8c0.4,0.6,0.7,1.1,0.7,1.7
				C84.7,312.3,84.5,313,84.1,313.7z"/>
			<path class="st1" d="M102.4,313.7l-0.1,0c-0.7-0.3-1.2-0.4-1.4-0.1c-0.1,0.2-0.4,0.6-0.8,1.3c-0.3,0.5-0.7,1.2-1.1,2.2l-1.4,2.7
				c-0.9,1.7-1.9,2.8-2.9,3.2c-1.4,0.5-2.9,0.3-4.6-0.5c-1.5-0.8-2.6-1.6-3.2-2.6c-0.5-0.8-0.6-1.7-0.5-2.6c0.1-0.6,0.7-1.9,1.8-4
				l1.2-2.2c0.7-1.4,1.1-2.3,1.3-2.7c0.1-0.2,0-0.3-0.1-0.5c-0.1-0.1-0.4-0.3-1-0.6l0-0.1l0.3-0.6l0.1,0c0.5,0.3,1.4,0.8,2.6,1.4
				c1.3,0.6,2.1,1.1,2.7,1.3l0,0.1l-0.3,0.6l-0.1,0c-0.6-0.3-1-0.4-1.1-0.4c-0.2,0-0.3,0-0.5,0.2c-0.3,0.4-0.8,1.3-1.5,2.6l-0.9,1.8
				c-1.1,2.2-1.7,3.6-1.8,4.2c-0.1,1.2,0.6,2.2,2.1,3c1,0.5,1.9,0.7,2.8,0.5c0.4-0.1,0.7-0.2,0.9-0.4c0.2-0.2,0.5-0.5,0.8-1
				c0.3-0.4,0.6-0.9,0.8-1.4l0.9-1.8c0.8-1.5,1.3-2.6,1.6-3.1c0.3-0.5,0.4-0.9,0.4-1.1c0-0.1,0-0.3-0.2-0.4c-0.1-0.1-0.4-0.3-1-0.7
				l0-0.1l0.3-0.6l0.1,0c0.5,0.3,1,0.6,1.5,0.9c0.4,0.2,1.2,0.6,2.3,1.1l0,0.1L102.4,313.7z"/>
			<path class="st1" d="M110.1,331.1l-0.1,0.1c0,0-0.2-0.1-0.3-0.2c-0.8-0.4-1.3-0.6-1.5-0.7c-0.3-0.1-0.8-0.3-1.5-0.6
				c0-0.2,0-0.4,0-0.9l-0.6-4.7l-0.4-1.9c0-0.2-0.1-0.5-0.3-0.8l0.2-0.3c0.1,0.1,0.2,0.1,0.3,0.1c0.6,0.2,1.1,0.3,1.5,0.3
				c0.4,0,0.8-0.2,1.2-0.5c0.4-0.3,0.8-0.8,1-1.3c0.4-1,0.3-1.9-0.3-2.5c-0.3-0.3-0.8-0.6-1.5-0.9c-0.3-0.1-0.6-0.2-0.9-0.3
				c-0.3,0.6-0.8,1.5-1.4,3l-2,4.7c-0.6,1.4-1,2.4-1.1,2.8c0,0.2,0,0.3,0.2,0.5c0.1,0.1,0.4,0.2,1,0.5l0.1,0.1l-0.3,0.6l-0.1,0.1
				c-0.6-0.3-1.5-0.7-2.8-1.2c-1.3-0.5-2.2-0.9-2.8-1.1l-0.1-0.1l0.3-0.6l0.1-0.1c0.6,0.2,1,0.3,1.1,0.4c0.2,0,0.3,0,0.4-0.2
				c0.3-0.4,0.7-1.3,1.3-2.7l2-4.8c0.6-1.4,0.9-2.4,1.1-2.8c0-0.2,0-0.3-0.2-0.5c-0.1-0.1-0.4-0.3-1-0.5l-0.1-0.1l0.3-0.6l0.1,0
				c0.6,0.3,1.5,0.7,2.7,1.2c0.7,0.3,1.3,0.5,1.8,0.7c0.9,0.3,1.6,0.6,2.1,0.8c1,0.4,1.8,0.9,2.2,1.2c0.5,0.5,0.8,1.1,0.8,1.8
				c0,0.3-0.1,0.7-0.3,1.1c-0.7,1.6-2.1,2.4-4.2,2.3c0.1,0.6,0.2,1.3,0.3,1.9l0.5,2.7c0.3,1.6,0.5,2.6,0.7,2.8
				c0.1,0.1,0.3,0.3,0.5,0.4l0.1,0.1L110.1,331.1z"/>
			<path class="st1" d="M122.8,330.6c-0.3,1-0.9,1.8-1.8,2.4c-0.7,0.5-1.6,0.8-2.5,0.9c-0.9,0.1-1.8-0.1-2.9-0.4
				c-1.3-0.4-2.5-1.1-3.5-2.2l-0.1-0.2c0.4-0.7,0.8-1.6,1.3-2.9l0.1-0.1l0.6,0.2l0.1,0.1l-0.1,0.2c-0.1,0.3-0.2,0.8-0.3,1.4
				c0.1,0.5,0.4,0.9,0.9,1.4c0.5,0.5,1.1,0.8,1.7,1.1c1.2,0.4,2.2,0.3,3-0.4c0.4-0.4,0.7-0.8,0.8-1.2c0.2-0.8,0.1-1.5-0.4-2
				c-0.3-0.3-0.7-0.6-1.4-0.9c-1.6-0.8-2.6-1.5-2.9-2c-0.6-0.8-0.7-1.9-0.3-3.1c0.4-1.3,1.2-2.1,2.3-2.6c1.2-0.5,2.6-0.5,4.2,0.1
				c1.4,0.5,2.5,1.1,3.3,1.9l0,0.2c-0.4,0.7-0.8,1.5-1.1,2.6l-0.1,0.1l-0.6-0.2l-0.1-0.1c0.2-0.8,0.4-1.2,0.4-1.5
				c-0.1-0.4-0.3-0.7-0.8-1.1c-0.4-0.4-0.9-0.7-1.5-0.8c-0.8-0.3-1.6-0.3-2.2,0c-0.6,0.3-1,0.7-1.2,1.4c-0.2,0.7-0.2,1.3,0.3,1.8
				c0.3,0.3,1,0.8,2.2,1.4c0.1,0.1,0.5,0.2,1,0.5c0.3,0.2,0.6,0.4,0.9,0.6c0.6,0.4,0.9,1,1.1,1.5C123.1,329.1,123,329.8,122.8,330.6
				z"/>
			<path class="st1" d="M140.2,326l-0.1,0.1c-0.7-0.2-1.2-0.1-1.4,0.3c-0.1,0.2-0.2,0.7-0.4,1.4c-0.1,0.6-0.3,1.3-0.6,2.4l-0.7,2.9
				c-0.4,1.9-1.1,3.1-2,3.8c-1.2,0.9-2.7,1.1-4.6,0.7c-1.7-0.4-2.9-0.9-3.7-1.7c-0.7-0.6-1.1-1.4-1.1-2.3c0-0.6,0.2-2,0.7-4.4
				l0.5-2.5c0.3-1.5,0.5-2.5,0.5-3c0-0.2-0.1-0.3-0.3-0.4c-0.1,0-0.5-0.2-1.1-0.3l-0.1-0.1l0.1-0.6l0.1-0.1c0.6,0.2,1.6,0.4,2.9,0.7
				c1.4,0.3,2.4,0.5,2.9,0.6l0.1,0.1l-0.1,0.6l-0.1,0.1c-0.6-0.1-1-0.2-1.1-0.2c-0.2,0-0.3,0.1-0.4,0.3c-0.2,0.4-0.4,1.4-0.8,2.9
				l-0.4,2c-0.5,2.4-0.8,3.9-0.7,4.5c0.2,1.2,1.1,1.9,2.8,2.3c1.1,0.3,2,0.2,2.8-0.2c0.3-0.2,0.6-0.4,0.8-0.7
				c0.2-0.2,0.4-0.6,0.5-1.2c0.2-0.5,0.3-1,0.4-1.6l0.4-2c0.4-1.7,0.6-2.8,0.7-3.4c0.1-0.6,0.2-1,0.1-1.1c0-0.1-0.1-0.3-0.3-0.4
				c-0.1-0.1-0.5-0.2-1.1-0.4l-0.1-0.1l0.1-0.6l0.1-0.1c0.5,0.2,1.1,0.3,1.7,0.4c0.4,0.1,1.3,0.3,2.5,0.5l0.1,0.1L140.2,326z"/>
			<path class="st1" d="M157.6,340.2l-0.1,0.1c-0.6-0.1-1.6-0.2-3-0.2c-1.4-0.1-2.4-0.1-3-0.1l-0.1-0.1l0-0.7l0.1-0.1
				c0.7,0,1.1,0,1.2,0c0.2,0,0.3-0.2,0.3-0.3c0.1-0.5,0.2-1.5,0.3-3l0.4-6.6l-2.4,4.3c-0.1,0.2-0.6,1.1-1.4,2.7l-2,3.8l-0.7,0
				c-0.3-0.8-0.7-1.9-1.2-3.1l-1.2-3l-2.2-5.5l-0.4,6.8c-0.1,1.6-0.1,2.6-0.1,3c0,0.2,0.1,0.3,0.3,0.4c0.1,0,0.5,0.1,1.1,0.2
				l0.1,0.1l0,0.7l-0.1,0.1c-0.8-0.1-1.4-0.2-2.1-0.2c-0.8,0-1.5-0.1-2.3-0.1l-0.1-0.1l0-0.7l0.1-0.1c0.7,0,1,0,1.1,0
				c0.2,0,0.3-0.2,0.4-0.3c0.1-0.5,0.2-1.5,0.3-3l0.3-5.1c0.1-1.5,0.1-2.6,0.1-3c0-0.2-0.1-0.3-0.3-0.4c-0.1,0-0.5-0.1-1.1-0.2
				l-0.1-0.1l0-0.7l0.1-0.1c0.7,0.1,1.5,0.1,2.6,0.2c0.8,0.1,1.5,0.1,2.1,0.1c0.2,0.5,0.4,1.2,0.8,2.1l0.6,1.4l2.7,6.7l1.7-2.9
				l2.6-4.8c0.3-0.6,0.6-1.2,0.9-1.9c0.7,0.1,1.2,0.1,1.5,0.1c1.3,0.1,2.3,0.1,2.9,0.1l0.1,0.1l0,0.7l-0.1,0.1c-0.7,0-1.1,0-1.1,0
				c-0.2,0-0.3,0.2-0.4,0.3c-0.1,0.5-0.2,1.5-0.3,3l-0.3,5.1c-0.1,1.5-0.1,2.6-0.1,3c0,0.2,0.1,0.3,0.3,0.4c0.1,0,0.5,0.1,1.1,0.2
				l0.1,0.1L157.6,340.2z"/>
			<path class="st1" d="M177.4,335.7l-0.3,1.1c-1.2,1-2.7,1.6-4.4,1.9c-3.4,0.5-5.8-0.3-7.5-2.5c-0.8-1-1.2-2.2-1.4-3.5
				c-0.4-2.1,0.1-3.9,1.3-5.4c1.2-1.5,3.1-2.5,5.6-2.9c1.6-0.2,3.2-0.2,4.8,0.1l0.1,0.1c-0.1,0.9,0,2,0.1,3.2l-0.1,0.1l-0.6,0.1
				l-0.1-0.1c-0.1-0.8-0.3-1.3-0.4-1.6c-0.9-0.8-2.2-1-3.7-0.8c-1.6,0.3-2.7,0.9-3.4,2.1c-0.7,1.1-0.9,2.5-0.7,4.2
				c0.4,2.3,1.4,3.9,3.2,4.9c0.9,0.5,2.1,0.7,3.5,0.4c1.3-0.2,2.5-0.7,3.6-1.6L177.4,335.7z"/>
			<path class="st1" d="M191.9,325.9c0.7,2.3,0.5,4.3-0.4,6c-0.9,1.7-2.5,2.8-4.8,3.5c-2.1,0.6-4,0.5-5.6-0.3
				c-1.6-0.9-2.7-2.4-3.3-4.5c-0.9-3-0.3-5.4,1.6-7.2c0.9-0.8,2.1-1.5,3.6-1.9c2.2-0.6,4-0.6,5.6,0.2
				C190.2,322.5,191.3,323.9,191.9,325.9z M189.1,327.3c-0.5-1.8-1.3-3.1-2.4-4c-1-0.9-2.3-1.1-3.7-0.7c-1.9,0.5-2.8,1.7-3,3.6
				c-0.1,0.9,0.1,2,0.4,3c0.6,1.9,1.4,3.4,2.4,4.3c1.1,0.9,2.3,1.2,3.8,0.8c1.8-0.5,2.7-1.8,2.8-3.7
				C189.6,329.5,189.5,328.4,189.1,327.3z"/>
			<path class="st1" d="M208.1,327.1l-0.1,0.1c0,0-0.2,0.1-0.3,0.1c-0.8,0.3-1.4,0.5-1.6,0.6c-0.3,0.1-0.8,0.3-1.5,0.6
				c-0.1-0.1-0.3-0.3-0.6-0.6l-3.8-2.8l-1.6-1.1c-0.2-0.1-0.4-0.3-0.8-0.3l0-0.3c0.1,0,0.3-0.1,0.3-0.1c0.6-0.2,1-0.5,1.3-0.8
				c0.2-0.3,0.4-0.7,0.5-1.2c0.1-0.5,0-1.1-0.2-1.7c-0.4-1-1.1-1.6-2-1.6c-0.4,0-1,0.1-1.7,0.4c-0.3,0.1-0.6,0.3-0.8,0.4
				c0.2,0.6,0.6,1.6,1.1,3.1l1.9,4.7c0.6,1.4,1,2.4,1.3,2.8c0.1,0.2,0.3,0.2,0.4,0.2c0.1,0,0.5-0.1,1.1-0.3l0.1,0.1l0.2,0.6l0,0.1
				c-0.6,0.2-1.6,0.6-2.8,1.1c-1.3,0.5-2.2,0.9-2.8,1.2l-0.1-0.1l-0.3-0.6l0.1-0.1c0.6-0.3,0.9-0.5,1-0.5c0.2-0.1,0.2-0.3,0.2-0.5
				c-0.1-0.5-0.4-1.4-1-2.9l-1.9-4.8c-0.6-1.4-1-2.4-1.3-2.8c-0.1-0.2-0.2-0.2-0.4-0.2c-0.1,0-0.5,0.1-1.1,0.3l-0.1-0.1l-0.3-0.6
				l0.1-0.1c0.6-0.2,1.5-0.6,2.8-1.1c0.7-0.3,1.3-0.6,1.8-0.8c0.9-0.4,1.6-0.7,2-0.9c1-0.4,1.8-0.6,2.4-0.6c0.8,0,1.4,0.2,1.8,0.8
				c0.2,0.3,0.4,0.6,0.6,1c0.7,1.6,0.2,3.2-1.4,4.6c0.5,0.4,1,0.8,1.6,1.2l2.3,1.6c1.3,0.9,2.2,1.4,2.5,1.5c0.2,0,0.4,0,0.6-0.1
				l0.1,0.1L208.1,327.1z"/>
			<path class="st1" d="M219.3,313c1,2,1.2,3.9,0.5,5.9c-0.3,0.9-0.8,1.8-1.6,2.6c-0.8,0.9-1.8,1.6-3.1,2.2l-3.1,1.5
				c-0.8,0.4-1.5,0.8-2.1,1.1l-0.1,0l-0.1-0.2l0-0.1c0.3-0.5,0.4-0.8,0.4-0.9c0-0.1-0.2-0.5-0.5-1.2l-1-2l-2.2-4.4
				c-0.7-1.4-1.2-2.3-1.5-2.7c-0.1-0.2-0.3-0.2-0.5-0.2c-0.1,0-0.4,0.2-1.1,0.4l-0.1,0l-0.3-0.6l0.1-0.1c0.6-0.3,1.2-0.5,1.8-0.8
				c1.4-0.7,2.6-1.3,3.6-1.9c0.5-0.3,1.1-0.6,1.6-0.8c1.5-0.8,2.8-1.2,3.7-1.2c1.1-0.1,2.1,0.2,3,0.7
				C217.9,310.8,218.7,311.7,219.3,313z M216.9,314.8c-0.8-1.6-1.8-2.7-3-3.1c-0.6-0.2-1.3-0.3-2-0.2c-0.7,0.1-1.5,0.4-2.6,1
				c-0.5,0.3-1,0.6-1.5,0.9c0.3,0.7,1,2.3,2.3,4.8l1.9,3.8c0.4,0.8,0.7,1.4,0.9,1.7c0.6-0.2,1.1-0.4,1.6-0.7c1.2-0.6,2-1.2,2.5-1.9
				c0.5-0.7,0.8-1.6,0.8-2.7C217.8,317.1,217.5,316,216.9,314.8z"/>
			<path class="st1" d="M236,312.1l0,0.1c-1.3,0.7-2,1.1-2.3,1.3c-1,0.6-2,1.2-2.9,1.7l-0.1,0l-0.3-0.5l0-0.1l0.7-0.5
				c0.3-0.2,0.4-0.4,0.3-0.6c-0.1-0.1-0.3-0.3-0.7-0.6l-1.7-1.4c-0.8,0.4-1.6,0.9-2.4,1.4c-0.4,0.3-1.1,0.6-1.9,1.2l0.2,1.3
				c0.2,0.9,0.3,1.5,0.4,1.7c0.1,0.2,0.3,0.3,0.6,0.1c0.2-0.1,0.5-0.2,0.9-0.4l0.1,0l0.3,0.5l0,0.1c-1.1,0.6-1.7,1-2,1.1
				c-0.2,0.1-0.8,0.5-1.7,1.1l-0.1,0l-0.3-0.6l0.1-0.1c0.6-0.4,0.8-0.7,0.9-1c0-0.3-0.2-1.7-0.6-4.4l-1-6.8
				c-0.1-0.5-0.2-1.3-0.4-2.4l1.2-0.7l10.6,7.9c0.4,0.3,0.7,0.4,0.9,0.4c0.2,0,0.5-0.2,0.9-0.4l0.1,0.1L236,312.1z M228,310.7
				l-4.4-3.3l0.9,5.4c0.5-0.3,1.1-0.6,1.8-1C227,311.3,227.5,311,228,310.7z"/>
		</g>
		<g>
			<path class="st1" d="M121.1,348.5l0.3-1.3l12,3.1l-0.3,1.3L121.1,348.5z"/>
			<path class="st1" d="M143.2,356.5l-0.1,0.1c-0.7-0.2-1.6-0.3-2.7-0.5c-1.1-0.2-2.2-0.3-3.4-0.4l-0.1-0.1l0.1-0.5l0.1-0.1
				c0.3,0,0.6,0,0.8,0c0.5,0,0.8,0,0.9,0c0.1,0,0.2-0.1,0.3-0.3c0.1-0.2,0.3-1.3,0.6-3l0.3-2c0.1-0.6,0.2-1.4,0.3-2.3l0.1-0.6
				c0-0.3,0-0.4-0.1-0.4c0,0-0.2,0-0.5,0.1c-0.8,0.2-1.4,0.4-2,0.6l-0.1-0.1c0-0.3,0-0.7,0-1l0-0.1c1.5-0.2,3.3-0.5,5.2-1l0.2,0.1
				c-0.1,0.3-0.2,0.8-0.3,1.4c-0.1,0.2-0.1,0.9-0.3,1.9l-0.5,3.2c-0.3,2.3-0.4,3.5-0.4,3.7c0,0.1,0.1,0.2,0.2,0.3
				c0.2,0.1,0.7,0.2,1.5,0.3l0.1,0.1L143.2,356.5z"/>
			<path class="st1" d="M153.2,353.7c0,0.6-0.2,1.2-0.4,1.7c-0.5,0.9-1.2,1.5-2.2,1.8c-0.4,0.1-0.9,0.2-1.5,0.1
				c-1.2-0.1-2.1-0.6-2.8-1.5c-0.3-0.4-0.4-1-0.4-1.6c0.1-0.8,0.3-1.5,0.9-2c0.2-0.2,0.6-0.4,1.2-0.7c-1.1-0.7-1.6-1.6-1.5-2.7
				c0.1-1.3,0.7-2.2,1.9-2.7c0.5-0.2,1.1-0.3,1.7-0.3c0.9,0.1,1.6,0.3,2.2,0.8c0.5,0.5,0.7,1.1,0.7,1.8c-0.1,1-0.6,1.7-1.7,2.3
				c0.8,0.4,1.3,0.8,1.6,1.3C153.1,352.4,153.2,353,153.2,353.7z M151.4,354.5c0-0.8-0.3-1.4-1-1.8c-0.4-0.3-0.9-0.5-1.4-0.8
				l-0.2-0.1c-0.8,0.6-1.2,1.3-1.3,2.2c0,0.5,0.1,0.9,0.2,1.3c0.4,0.7,1,1.1,1.7,1.2c0.5,0,1-0.1,1.3-0.5S151.3,355.1,151.4,354.5z
				 M151.6,348.5c0-0.5-0.1-1-0.4-1.3c-0.3-0.3-0.7-0.5-1.3-0.6c-0.5,0-0.9,0.1-1.2,0.4c-0.3,0.3-0.4,0.6-0.4,1
				c0,0.4,0.1,0.8,0.5,1.2c0.2,0.2,0.4,0.4,0.8,0.6c0.1,0.1,0.3,0.2,0.6,0.3l0.4,0.2C151.2,350,151.5,349.4,151.6,348.5z"/>
			<path class="st1" d="M162.6,353.1c0.1,1.6-0.4,2.7-1.5,3.6c-0.5,0.4-1.1,0.6-1.9,0.6c-1.1,0-2-0.3-2.6-1.1
				c-0.7-0.8-1.1-1.9-1.1-3.4c-0.1-1.4,0.1-2.6,0.6-3.6c0.5-1,1.2-1.8,2-2.5c0.9-0.6,1.9-1,3-1.1l0.7,0.5l-0.2,0.3
				c-0.2,0-0.4,0-0.6,0c-0.8,0-1.6,0.4-2.2,1c-0.3,0.3-0.5,0.6-0.7,1.1c-0.3,0.7-0.5,1.7-0.6,2.9c0.7-0.7,1.1-1.1,1.3-1.2
				c0.3-0.2,0.7-0.3,1.2-0.3c0.7,0,1.3,0.2,1.8,0.7C162.2,351.3,162.5,352.1,162.6,353.1z M160.6,354.1c0-0.8-0.2-1.5-0.6-1.9
				c-0.3-0.4-0.7-0.6-1.2-0.6c-0.6,0-1.1,0.3-1.2,0.9c-0.1,0.3-0.1,0.6-0.1,1.1c0.1,1.2,0.3,2,0.8,2.5c0.3,0.3,0.6,0.4,1,0.4
				C160.3,356.4,160.7,355.6,160.6,354.1z"/>
			<path class="st1" d="M171.3,345.3c-0.9,2.4-1.7,4.6-2.2,6.5c-0.5,1.7-0.9,3.1-1.1,4.3l-0.1,0.1c-0.3,0-0.5,0-0.8,0.1
				c-0.3,0-0.6,0.1-0.9,0.2l-0.1-0.2l2.6-6.5c0.2-0.5,0.4-1,0.5-1.3l0.6-1.6l-0.1-0.1l-2,0.3l-1.4,0.2c-0.5,0.1-0.8,0.1-0.9,0.2
				c-0.1,0-0.1,0.1-0.2,0.3c0,0.1,0,0.7,0,1.6l-0.1,0.1l-0.5,0.1l-0.1-0.1c0-0.6-0.1-1.2-0.2-1.7c-0.1-0.6-0.2-1.3-0.3-2.1l0.1-0.1
				c1.3-0.1,2.5-0.3,3.8-0.4c1.6-0.2,2.7-0.4,3.4-0.5l0.1,0.1L171.3,345.3z"/>
			<path class="st1" d="M175.5,351.5l-0.3-1.3l12-3.1l0.3,1.3L175.5,351.5z"/>
		</g>
	</g>
	<g>
		<g>
			<path class="st1" d="M281.8,270.2c3.9-0.1,8,1.5,10.6,4.5c-3.3,2-11.7,2.6-15.3-1.5c-1.5,0.9-3.7,2.5-5.1,3.6
				c3.9-1.4,8.4-1.1,11.8,1.3c-4.3,3.3-10.5,5.3-15.6,2.2c-1.4,1.3-2.7,2.5-4.1,3.8c3.8-1.8,8.4-1.5,11.9,0.7
				c-4.3,3.5-10.4,5.7-15.6,2.8c-1.2,1.2-2.4,2.4-3.6,3.6c3.7-1.7,8-1.4,11.5,0.7c-3.8,3.5-10.1,5.2-15.2,3.3
				c-4.9,5.2-6.5,7.1-12.9,10.5c-1,0.5-2.2,0.5-2.1-0.9c0.7-0.9,1.8-1.3,2.7-2c5.4-3.1,6.2-4.4,10.6-8.7c-2.5-5.4-0.2-11.8,4.2-15.5
				c2.3,4.8,1.4,8.4,0.1,11.7c1.2-1.3,2.4-2.4,3.7-3.6c-3-5.4,0-11.6,4-15.5c1.8,3.8,1.8,8.2-0.1,11.9c1.3-1.2,2.6-2.5,3.9-3.7
				c-2.9-5.5,0.4-11.7,4.6-15.4c1.7,3.8,1.2,8.2-0.6,11.8c1.3-1.2,3.8-2.6,5.3-3.5c-2-4.1,2.8-11.4,8.6-13.1
				C285.5,261.1,284.5,266.9,281.8,270.2z"/>
			<path class="st1" d="M27.2,270.8c-3.9-0.1-8,1.5-10.6,4.5c3.3,2,11.7,2.6,15.2-1.5c1.6,0.9,3.8,2.5,5.1,3.6
				c-3.9-1.4-8.4-1.1-11.8,1.3c4.3,3.4,10.6,5.3,15.6,2.2c1.4,1.3,2.7,2.5,4.1,3.8c-3.8-1.8-8.4-1.5-11.9,0.7
				c4.3,3.5,10.4,5.7,15.6,2.8c1.2,1.2,2.4,2.4,3.6,3.6c-3.7-1.7-8-1.4-11.5,0.7c3.8,3.5,10.1,5.2,15.2,3.3
				c4.9,5.2,6.6,7.1,12.9,10.5c1,0.5,2.2,0.5,2.1-0.9c-0.7-1-1.8-1.3-2.7-2c-5.4-3.1-6.2-4.4-10.6-8.7c2.5-5.4,0.2-11.8-4.2-15.5
				c-2.3,4.8-1.3,8.4-0.1,11.7c-1.2-1.3-2.4-2.4-3.7-3.6c3-5.4,0-11.6-4-15.5c-1.8,3.8-1.8,8.2,0.1,11.9c-1.4-1.2-2.6-2.5-3.9-3.7
				c2.9-5.5-0.4-11.7-4.6-15.4c-1.7,3.8-1.2,8.1,0.6,11.8c-1.3-1.2-3.8-2.6-5.3-3.5c2-4.1-2.8-11.4-8.6-13.1
				C23.5,261.7,24.4,267.5,27.2,270.8z"/>
		</g>
	</g>
	<g>
		<path class="st1" d="M154.3,284.4h-2.9l0.4-16.1l-8.2,0.2v-5.4l8.2,0.4l-0.4-7.9h3h2.9l-0.4,7.9l8.2-0.4l0,5.4l-8.2-0.2l0.4,16.1
			H154.3L154.3,284.4z"/>
	</g>
	<path class="st1" d="M233.1,53.6l-1.6-0.8l-0.2-0.7l-0.8,0.1c-1.9,0.1-7.8,1-24.9,0.9c-11.6-0.1-16.5-3.1-32.3-2
		c-13,0.9-16.5,4.8-17.4,6.2c-0.5-1-3-4.7-13-6.3c-1.5-0.2-3.3-0.4-5.2-0.6c-15.9-1-20.9,1.8-32.4,2.2c-18.2,0.6-23.9,0-25.3-0.2
		c-0.2,0-1.4,0-1.4,0l-0.9-0.3l0,1.4l-1.5-0.2l-5.6,95l85.1,1.5l82.1-3.3L233.1,53.6z"/>
	<g>
		<g>
			<path class="st0" d="M83,144.3c6.3,1,8.2,0.8,17.7,1l0,0c11.9,0.3,33.7-1.3,42.4-1l0,0c2.8,0.1,5.1,0.4,7,0.7l0,0
				c2.4,0.4,4,0.8,5,1.1l0,0l-0.2-87.3c0,0,0,0,0,0l0,0c0-0.1-0.1-0.2-0.2-0.4l0,0c-0.3-0.4-0.7-0.9-1.6-1.5l0,0
				c-1.6-1.2-4.6-2.7-10.1-3.5l0,0c-1.5-0.2-3.2-0.4-5.1-0.5l0,0c-15.6-1-20.4,1.8-32.2,2.2l0,0c-17.1,0.5-23.1,0.1-25.2-0.2l0,0
				L77,143.2C79.4,143.7,81.3,144,83,144.3L83,144.3z"/>
		</g>
		<g>
			<path class="st0" d="M156.9,146.1c1.7-0.5,5.7-1.5,12-1.8l0,0c8.7-0.4,30.5,0.7,42.4,0.4l0,0c6-0.2,12.1-0.7,16.7-1.1l0,0
				c3.3-0.3,5.8-0.6,7-0.7l0,0l-4.4-88.7c-2,0.1-7.7,0.7-24.7,0.6l0,0c-11.8-0.1-16.6-3.1-32.2-2l0,0c-13.9,1-16.6,5.4-16.9,6l0,0
				L156.9,146.1L156.9,146.1z"/>
		</g>
	</g>
	<g>
		<path class="st1" d="M139.1,78l-14.1-2L118.8,64l-6.5,11.8l-14.2,1.8l10.1,9.3l-2.6,13l12.7-6l12.6,6.3l-2.3-13L139.1,78z"/>
		<g>
			<path class="st1" d="M199.5,124.8c-0.8,0.6-1.6,0.9-2.6,0.9c-0.3,0-0.6,0-1-0.1c0-0.1-0.1-0.3-0.3-0.6l0.2-0.2
				c0.2,0.1,0.4,0.1,0.6,0.1c0.5,0,1-0.2,1.3-0.6c0.3-0.4,0.5-0.9,0.5-1.6c0-1.5-0.7-2.2-2-2.2c-0.2,0-0.5,0-1,0.1
				c0,0.1-0.1,1-0.1,2.6l0,4.2c0,1.3,0,2.1,0.1,2.5c0,0.2,0.1,0.3,0.3,0.3c0.1,0,0.4,0.1,1.1,0.1l0.1,0.1v0.5l-0.1,0.1
				c-0.7,0-1.6-0.1-2.6-0.1c-1.2,0-2,0-2.5,0l-0.1-0.1v-0.5l0.1-0.1c0.5,0,0.9-0.1,0.9-0.1c0.2,0,0.2-0.1,0.3-0.3
				c0.1-0.4,0.1-1.2,0.1-2.5l0-4.2c0-1.3,0-2.1-0.1-2.5c0-0.2-0.1-0.3-0.3-0.3c-0.1,0-0.4-0.1-0.9-0.1l-0.1-0.1v-0.5l0.1-0.1
				c0.5,0,1.3,0.1,2.4,0.1c0.4,0,1.1,0,1.9,0c0.8,0,1.3,0,1.5,0c1.5,0,2.4,0.4,2.9,1.1c0.2,0.4,0.3,0.9,0.3,1.4
				C200.6,123.3,200.2,124.2,199.5,124.8z"/>
			<path class="st1" d="M212.2,130.5L212.2,130.5c-0.4-0.1-0.7-0.1-0.8-0.2c-0.1-0.1-0.3-0.3-0.5-0.6l-4.2-10h-1.1
				c-0.3,0.8-0.6,1.4-0.7,1.8l-2.1,5.2c-0.8,2-1.3,3.2-1.4,3.3c-0.1,0.2-0.5,0.3-1,0.3l-0.1,0.1v0.5l0.1,0.1c0.9,0,1.4-0.1,1.6-0.1
				c0.3,0,0.9,0,1.9,0.1l0.1-0.1v-0.5l-0.1-0.1c-0.4,0-0.7-0.1-0.8-0.1c-0.2,0-0.4-0.2-0.4-0.4c0-0.2,0.1-0.6,0.4-1.4l0.3-1
				c0.8,0,1.4,0,1.9,0c0.8,0,1.5,0,2.3,0l0.6,1.7c0.2,0.4,0.2,0.6,0.2,0.8c0,0.2-0.1,0.3-0.4,0.3l-0.7,0l-0.1,0.1v0.5l0.1,0.1
				c0.8,0,1.8-0.1,2.7-0.1c0.2,0,1,0,2.2,0.1l0.1-0.1V130.5z M205.4,126.7c-0.7,0-1.3,0-1.7,0l1.6-4.2l1.7,4.2
				C206.7,126.7,206.1,126.7,205.4,126.7z"/>
			<path class="st1" d="M223.1,131.1l-1.6,0c-0.3,0-0.7,0-1.4,0c-0.2-0.2-0.4-0.6-0.8-1.3l-1.7-3.1l-0.6,0.9
				c-0.8,1.1-1.6,2.3-2.2,3.5c-0.3,0-0.5,0-0.7,0c-0.5,0-0.9,0-1.1,0l-0.1-0.1v-0.5l0.1-0.1c0.4,0,0.7-0.1,0.8-0.1
				c0.2-0.1,0.5-0.5,1.1-1.3l1.1-1.4c0-0.1,0.5-0.6,1.3-1.7l-0.6-1.1l-1-1.7c-0.7-1.2-1.2-1.9-1.6-2.1c-0.1-0.1-0.3-0.1-0.4-0.1
				c-0.1,0-0.3,0-0.5,0l-0.1-0.1l-0.1-0.4l0.1-0.1c0.8-0.1,1.7-0.4,2.9-0.6c0.3,0.2,0.7,0.6,1,1.2c0.2,0.3,0.4,0.8,0.8,1.4l0.9,1.7
				l1.1-1.5c0.9-1.3,1.4-2.1,1.7-2.6c0.2,0,0.4,0,0.7,0c0.3,0,0.7,0,1.1,0l0.1,0.1l0,0.5l-0.1,0.1c-0.4,0-0.6,0.1-0.7,0.1
				c-0.1,0.1-0.3,0.3-0.7,0.8c-0.3,0.4-0.8,1-1.4,1.8c-0.3,0.4-0.7,1-1.2,1.6c0.3,0.5,0.6,1.2,1.1,2.1l1,1.8c0.6,1,0.9,1.5,1.1,1.6
				c0.2,0.1,0.4,0.2,0.7,0.2l0.1,0.1L223.1,131.1L223.1,131.1z"/>
		</g>
		<g>
			<g>
				<path class="st1" d="M145.7,114.3c-2-1.2-6-1.4-8.7-1.6l0,0c-1.3-0.1-2.5-0.2-3.8-0.2l0,0c-3.8,0-7.5,0.4-11.4,0.6l0,0
					c-3.2,0.2-5.8,0.2-8.1,0.2l0,0c-4.1,0-7.5-0.1-12.5-0.1l0,0c-0.9,0-1.8,0-2.8,0l0,0l0,0c-0.3,0-0.6-0.3-0.6-0.6l0,0
					c0-0.3,0.3-0.6,0.6-0.7l0,0c1,0,1.9,0,2.8,0l0,0c5.1,0,8.4,0.1,12.5,0.1l0,0c2.3,0,4.8,0,8-0.2l0,0c3.8-0.2,7.6-0.6,11.5-0.6
					l0,0c1.3,0,2.6,0,3.9,0.2l0,0c2.7,0.3,6.7,0.3,9.2,1.8l0,0c0.3,0.2,0.4,0.6,0.2,0.9l0,0c-0.1,0.2-0.3,0.3-0.5,0.3l0,0
					C145.9,114.4,145.8,114.4,145.7,114.3L145.7,114.3z"/>
				<path class="st1" d="M145.4,119.9c-2-1.2-5.9-1.4-8.7-1.6l0,0c-1.3-0.1-2.5-0.2-3.8-0.2l0,0c-3.8,0-7.6,0.4-11.5,0.6l0,0
					c-3.1,0.1-6.3,0.2-9.5,0.2l0,0c-5.9,0-11.9-0.2-17.8-0.2l0,0c-0.9,0-1.9,0-2.8,0l0,0h0c-0.4,0-0.6-0.3-0.6-0.6l0,0
					c0-0.3,0.3-0.6,0.6-0.6l0,0c0.9,0,1.9,0,2.8,0l0,0c5.9,0,11.8,0.2,17.8,0.2l0,0c3.1,0,6.3,0,9.4-0.2l0,0
					c3.8-0.2,7.6-0.6,11.5-0.6l0,0c1.3,0,2.6,0,3.9,0.2l0,0c2.7,0.3,6.7,0.3,9.2,1.8l0,0c0.3,0.2,0.4,0.6,0.2,0.9l0,0
					c-0.1,0.2-0.3,0.3-0.5,0.3l0,0C145.6,120,145.5,119.9,145.4,119.9L145.4,119.9z"/>
				<path class="st1" d="M145.2,125.4c-2-1.2-5.9-1.4-8.7-1.6l0,0c-1.3-0.1-2.5-0.2-3.8-0.2l0,0c-3.8,0-7.5,0.4-11.4,0.6l0,0
					c-3.2,0.1-6.3,0.2-9.5,0.2l0,0c-5.9,0-11.8-0.2-17.6-0.2l0,0c-1,0-1.9,0-2.9,0l0,0c-0.4,0-0.6-0.3-0.6-0.6l0,0
					c0-0.3,0.3-0.6,0.6-0.6l0,0c0.9,0,1.9,0,2.9,0l0,0c5.9,0,11.8,0.2,17.6,0.2l0,0c3.1,0,6.3,0,9.4-0.2l0,0
					c3.8-0.2,7.6-0.6,11.5-0.6l0,0c1.3,0,2.6,0,3.9,0.2l0,0c2.7,0.3,6.7,0.3,9.2,1.8l0,0c0.3,0.2,0.4,0.6,0.2,0.9l0,0
					c-0.1,0.2-0.3,0.3-0.6,0.3l0,0C145.4,125.5,145.3,125.5,145.2,125.4L145.2,125.4z"/>
				<path class="st1" d="M93.9,129.8c-0.9,0-1.9,0-2.8,0l0,0c-0.3,0-0.6-0.3-0.6-0.6l0,0c0-0.4,0.3-0.6,0.6-0.6l0,0
					c0.9,0,1.9,0,2.9,0l0,0c5.9,0,11.8,0.2,17.7,0.2l0,0c3.2,0,6.3,0,9.4-0.2l0,0c3.8-0.2,7.6-0.6,11.5-0.6l0,0
					c1.3,0,2.6,0.1,3.9,0.2l0,0c0.3,0,0.6,0.3,0.6,0.7l0,0c0,0.4-0.3,0.6-0.7,0.6l0,0c-1.3-0.1-2.5-0.2-3.8-0.2l0,0
					c-3.8,0-7.5,0.4-11.4,0.6l0,0c-3.2,0.1-6.3,0.2-9.5,0.2l0,0C105.7,130,99.8,129.8,93.9,129.8L93.9,129.8z"/>
			</g>
			<g>
				<path class="st1" d="M199.4,72.3c-5-0.6-9.5-1.1-14.3-1.1l0,0c-0.9,0-1.8,0-2.8,0.1l0,0c-2.9,0.2-5.8,0.5-8.7,0.7l0,0l0,0
					c-0.3,0-0.7-0.2-0.7-0.6l0,0c0-0.3,0.2-0.7,0.6-0.7l0,0c2.9-0.2,5.8-0.6,8.8-0.7l0,0c1,0,1.9-0.1,2.8-0.1l0,0
					c4.9,0,9.4,0.6,14.4,1.1l0,0c3.5,0.4,6.9,0.9,10.3,0.9l0,0c0.9,0,1.9,0,2.8-0.1l0,0c3.5-0.3,7.1-0.9,10.7-1.1l0,0
					c0.4,0,0.6,0.3,0.7,0.6l0,0c0,0.4-0.3,0.7-0.6,0.7l0,0c-3.5,0.1-7,0.7-10.6,1.1l0,0c-1,0.1-1.9,0.1-2.9,0.1l0,0
					C206.4,73.2,202.9,72.7,199.4,72.3L199.4,72.3z"/>
				<path class="st1" d="M199.4,76.8c-5-0.5-9.4-1.1-14.2-1.1l0,0c-0.9,0-1.8,0-2.8,0.1l0,0c-5.1,0.2-10.2,1-15.4,1.1l0,0
					c-0.4,0-0.6-0.3-0.6-0.6l0,0c0-0.3,0.3-0.6,0.6-0.6l0,0c5.1,0,10.1-0.8,15.3-1.1l0,0c1,0,1.9-0.1,2.9-0.1l0,0
					c4.9,0,9.4,0.6,14.4,1.1l0,0c3.5,0.4,6.9,0.9,10.3,0.9l0,0c0.9,0,1.8-0.1,2.8-0.1l0,0c3.5-0.3,7.1-0.9,10.7-1.1l0,0
					c0.4,0,0.6,0.3,0.7,0.6l0,0c0,0.4-0.3,0.7-0.6,0.7l0,0c-3.5,0.1-7,0.7-10.6,1.1l0,0c-1,0.1-1.9,0.1-2.9,0.1l0,0
					C206.4,77.7,202.9,77.2,199.4,76.8L199.4,76.8z"/>
				<path class="st1" d="M199.4,81.3c-5-0.5-9.5-1.1-14.2-1.1l0,0c-0.9,0-1.9,0-2.8,0.1l0,0c-5.1,0.3-10.2,1.1-15.4,1.1l0,0l0,0
					c-0.3,0-0.6-0.3-0.6-0.6l0,0c0-0.3,0.3-0.6,0.6-0.6l0,0c5,0,10.1-0.8,15.3-1.1l0,0c1-0.1,1.9-0.1,2.9-0.1l0,0
					c4.9,0,9.4,0.6,14.4,1.1l0,0c3.5,0.4,6.9,0.9,10.3,0.9l0,0c0.9,0,1.9,0,2.8-0.1l0,0c3.5-0.3,7.1-0.9,10.7-1.1l0,0
					c0.4,0,0.6,0.3,0.7,0.6l0,0c0,0.3-0.3,0.7-0.6,0.7l0,0c-3.5,0.1-7,0.7-10.6,1.1l0,0c-1,0.1-1.9,0.1-2.9,0.1l0,0
					C206.4,82.2,202.9,81.7,199.4,81.3L199.4,81.3z"/>
				<path class="st1" d="M166.4,85.2c0-0.3,0.3-0.6,0.6-0.6l0,0c5.1,0,10.1-0.8,15.3-1.1l0,0c1,0,1.9-0.1,2.8-0.1l0,0
					c4.9,0,9.4,0.6,14.4,1.1l0,0c0.4,0,0.6,0.3,0.6,0.7l0,0c0,0.4-0.3,0.6-0.7,0.6l0,0c-5-0.5-9.5-1.1-14.3-1.1l0,0
					c-0.9,0-1.8,0-2.8,0.1l0,0c-5.1,0.3-10.2,1-15.4,1.1l0,0c0,0,0,0,0,0l0,0C166.7,85.8,166.4,85.5,166.4,85.2L166.4,85.2z"/>
				<path class="st1" d="M199.4,90.3c-5-0.6-9.5-1.1-14.3-1.1l0,0c-0.9,0-1.8,0-2.8,0.1l0,0c-5.1,0.3-10.2,1-15.4,1.1l0,0
					c-0.4,0-0.6-0.3-0.6-0.6l0,0c0-0.4,0.3-0.6,0.6-0.6l0,0c5.1,0,10.1-0.8,15.3-1.1l0,0c1,0,1.9-0.1,2.8-0.1l0,0
					c4.9,0,9.4,0.6,14.4,1.1l0,0c3.5,0.4,6.9,0.9,10.3,0.9l0,0c0.9,0,1.8,0,2.8-0.1l0,0c3.5-0.3,7.1-0.9,10.7-1.1l0,0
					c0.4,0,0.6,0.3,0.7,0.6l0,0c0,0.3-0.3,0.7-0.6,0.7l0,0c-3.5,0.1-7,0.7-10.6,1.1l0,0c-1,0.1-1.9,0.1-2.9,0.1l0,0
					C206.4,91.2,202.9,90.7,199.4,90.3L199.4,90.3z"/>
				<path class="st1" d="M199.4,94.8c-5-0.5-9.5-1.1-14.2-1.1l0,0c-0.9,0-1.8,0-2.8,0.1l0,0c-5.1,0.3-10.2,1.1-15.4,1.1l0,0
					c-0.4,0-0.6-0.3-0.6-0.6l0,0c0-0.4,0.3-0.6,0.6-0.6l0,0c5,0,10.1-0.8,15.3-1.1l0,0c1-0.1,1.9-0.1,2.9-0.1l0,0
					c4.9,0,9.4,0.6,14.4,1.1l0,0c3.5,0.4,6.9,0.9,10.3,0.9l0,0c0.9,0,1.8,0,2.8-0.1l0,0c3.5-0.3,7.1-0.9,10.7-1.1l0,0
					c0.4,0,0.6,0.3,0.7,0.6l0,0c0,0.3-0.3,0.6-0.6,0.7l0,0c-3.5,0.1-7,0.7-10.6,1.1l0,0c-1,0.1-1.9,0.1-2.9,0.1l0,0
					C206.4,95.7,202.9,95.1,199.4,94.8L199.4,94.8z M167.1,94.8L167.1,94.8L167.1,94.8L167.1,94.8L167.1,94.8L167.1,94.8L167.1,94.8
					z"/>
				<path class="st1" d="M199.5,99.3c-5-0.5-9.5-1.1-14.2-1.1l0,0c-0.9,0-1.8,0-2.8,0.1l0,0c-5.1,0.3-10.2,1-15.4,1.1l0,0
					c-0.4,0-0.6-0.3-0.6-0.6l0,0c0-0.4,0.3-0.6,0.6-0.6l0,0c5,0,10.1-0.8,15.3-1.1l0,0c1-0.1,1.9-0.1,2.9-0.1l0,0
					c4.9,0,9.4,0.6,14.4,1.1l0,0c3.5,0.4,6.9,0.9,10.3,0.9l0,0c0.9,0,1.9,0,2.8-0.1l0,0c3.5-0.3,7.1-0.9,10.7-1.1l0,0
					c0.4,0,0.6,0.3,0.7,0.6l0,0c0,0.3-0.3,0.6-0.6,0.7l0,0c-3.5,0.1-7,0.7-10.6,1.1l0,0c-1,0.1-1.9,0.1-2.9,0.1l0,0
					C206.4,100.2,202.9,99.6,199.5,99.3L199.5,99.3z"/>
				<path class="st1" d="M199.4,103.8c-5-0.5-9.5-1.1-14.2-1.1l0,0c-0.9,0-1.8,0-2.8,0.1l0,0c-5.1,0.2-10.2,1-15.4,1.1l0,0l0,0
					c-0.4,0-0.6-0.3-0.6-0.6l0,0c0-0.3,0.3-0.6,0.6-0.6l0,0c5,0,10.1-0.8,15.3-1.1l0,0c1,0,1.9-0.1,2.8-0.1l0,0
					c4.9,0,9.4,0.6,14.4,1.1l0,0c3.5,0.4,6.9,0.9,10.3,0.9l0,0c0.9,0,1.8,0,2.8-0.1l0,0c3.5-0.3,7.1-0.9,10.7-1.1l0,0
					c0.4,0,0.7,0.3,0.7,0.6l0,0c0,0.3-0.3,0.6-0.6,0.7l0,0c-3.5,0.1-7,0.7-10.6,1.1l0,0c-1,0.1-1.9,0.1-2.9,0.1l0,0
					C206.4,104.7,202.9,104.2,199.4,103.8L199.4,103.8z"/>
				<path class="st1" d="M199.4,108.3c-5-0.5-9.5-1.1-14.2-1.1l0,0c-0.9,0-1.8,0-2.8,0.1l0,0c-5.1,0.3-10.2,1-15.4,1.1l0,0l0,0
					c-0.4,0-0.6-0.3-0.6-0.6l0,0c0-0.4,0.3-0.6,0.6-0.6l0,0c5.1,0,10.1-0.8,15.3-1.1l0,0c1,0,1.9-0.1,2.9-0.1l0,0
					c4.9,0,9.4,0.6,14.4,1.1l0,0c3.5,0.4,6.9,0.9,10.3,0.9l0,0c0.9,0,1.8,0,2.8-0.1l0,0c3.5-0.3,7.1-0.9,10.7-1.1l0,0
					c0.3,0,0.6,0.3,0.6,0.6l0,0c0,0.3-0.3,0.6-0.6,0.7l0,0c-3.5,0.1-7,0.7-10.6,1.1l0,0c-1,0.1-1.9,0.1-2.9,0.1l0,0
					C206.4,109.2,202.9,108.6,199.4,108.3L199.4,108.3z"/>
			</g>
		</g>
	</g>
	<path class="st1" d="M193.6,36.7c0.5-1,3.4-1.9-1.3-3.9c-5.1-2.2-4.4,2-4.7,2.6c-2.9,5-4.9,9.5-6.3,12.1c-1.1,0.1-7.6-2.9-8.7-2.2
		c-1.6,1-2.3,2.3-1.1,3.7c0.7,0.8,1.6-0.1,2.1,0.1c0.5,0.2,4.3,1.1,6.2,2.5l-46.9,86.9c-5.1,8.8-11.8,21.5-10.4,22.6
		c1,0.3,8.3-12.1,13.1-21l49.4-86.7c1.5,0.4,4.4,1.3,4.7,1.5c0.5,0.3,0.5,2,1.6,1.8c1.9-0.3,2.2-2,2-3.9c-0.1-1.3-4.5-2.2-5.9-3.1
		C187.5,49.1,193.6,36.7,193.6,36.7z"/>
	<path class="st1" d="M155,237.2c60.7,0,93.3,16.1,119.7,16.7c10.3,0,17.1-1.3,21.8-3.2c4.6-1.9,7-4.7,8.2-7.4v-68.8
		c-0.8,3.9-11.4,13.7-29.9,13.6c-25.1-0.5-58.8-18.6-119.7-18.6c-60.9,0-94.7,18-119.8,18.6c-18.5,0.1-29.1-9.7-29.9-13.6v68.8
		c1.2,2.7,3.6,5.5,8.2,7.4c4.6,2,11.4,3.2,21.8,3.2C61.6,253.2,94.3,237.2,155,237.2z"/>
	<g>
		<path class="st0" d="M62.8,229.4l-0.2,0.2c-0.1,0-0.3,0.1-0.8,0.1c-1.8,0.3-3,0.5-3.4,0.6c-0.7,0.1-1.7,0.4-3.2,0.8
			c-0.1-0.3-0.5-0.8-1.1-1.4l-6.5-7.2l-2.9-2.9c-0.4-0.4-0.8-0.7-1.4-1l0.1-0.7c0.3,0,0.5-0.1,0.7-0.1c1.3-0.3,2.3-0.7,2.9-1.2
			c0.6-0.5,1.1-1.3,1.5-2.3c0.4-1,0.5-2.2,0.2-3.5c-0.4-2.2-1.6-3.6-3.4-4c-0.9-0.2-2.1-0.2-3.6,0.1c-0.7,0.1-1.3,0.3-1.9,0.5
			c0.1,1.3,0.5,3.5,1.1,6.7l2,10.4c0.6,3.1,1.1,5.2,1.5,6.1c0.1,0.4,0.4,0.6,0.8,0.6c0.2,0,1-0.1,2.4-0.3L48,231l0.3,1.3l-0.1,0.2
			c-1.3,0.2-3.4,0.6-6.1,1.1c-2.8,0.6-4.9,1-6.1,1.3l-0.2-0.1l-0.3-1.3l0.1-0.2c1.3-0.3,2.1-0.6,2.3-0.7c0.4-0.2,0.5-0.5,0.5-0.9
			c0-1-0.3-3-1-6.2l-2.1-10.5c-0.6-3.1-1.1-5.2-1.5-6.1c-0.1-0.4-0.4-0.6-0.8-0.6c-0.2,0-1,0.1-2.4,0.3l-0.2-0.2l-0.3-1.3l0.2-0.2
			c1.3-0.2,3.3-0.5,6.1-1.1c1.6-0.3,2.9-0.6,3.9-0.8c2-0.5,3.4-0.8,4.5-1c2.3-0.5,4-0.6,5.1-0.4c1.6,0.3,2.7,1,3.5,2.2
			c0.4,0.6,0.6,1.3,0.8,2.2c0.7,3.6-0.8,6.5-4.5,8.9c0.9,1,1.8,2,2.8,2.9l4,4.1c2.3,2.4,3.8,3.8,4.5,4c0.3,0.1,0.8,0.2,1.3,0
			l0.2,0.2L62.8,229.4z"/>
		<path class="st0" d="M91.7,207.7c1,4.9,0.4,9-1.8,12.3c-2.2,3.3-5.7,5.4-10.4,6.4c-4.5,1-8.3,0.4-11.4-1.6c-3.1-2-5.1-5.2-6.1-9.8
			c-1.3-6.3,0.2-11.2,4.5-14.7c2-1.6,4.6-2.7,7.8-3.4c4.6-1,8.4-0.5,11.5,1.3C88.8,200.3,90.8,203.4,91.7,207.7z M85.8,210
			c-0.8-3.8-2.2-6.7-4.2-8.6c-2-1.9-4.5-2.6-7.5-1.9c-3.9,0.8-6.1,3.1-6.7,6.9c-0.3,1.9-0.2,4,0.3,6.3c0.9,4.1,2.3,7.1,4.3,9.2
			c2.1,2.1,4.6,2.8,7.8,2.2c3.7-0.8,5.9-3.2,6.4-7.2C86.5,214.8,86.3,212.5,85.8,210z"/>
		<path class="st0" d="M117.9,209.7c0.3,2.2-0.1,4.2-1.1,6.1c-0.9,1.6-2.2,2.9-3.9,3.9c-1.5,0.9-3.4,1.5-5.7,1.8
			c-2.8,0.4-5.6,0.1-8.5-0.8l-0.3-0.4c0.2-1.6,0.1-3.8-0.3-6.6l0.2-0.2l1.3-0.2l0.2,0.2l0.1,0.5c0.1,0.8,0.3,1.7,0.6,2.9
			c0.6,0.8,1.6,1.4,2.9,1.9c1.4,0.5,2.8,0.6,4.2,0.4c2.6-0.3,4.3-1.5,5.1-3.5c0.4-1,0.5-2,0.4-3c-0.2-1.7-1.1-2.8-2.6-3.4
			c-0.8-0.3-1.9-0.4-3.5-0.4c-3.6-0.1-6.1-0.4-7.3-1.1c-1.9-1-3-2.9-3.3-5.5c-0.4-2.7,0.3-5,1.9-6.9c1.7-2,4.3-3.2,7.8-3.7
			c3.1-0.4,5.7-0.3,7.8,0.5l0.2,0.5c-0.1,1.6-0.1,3.6,0.2,5.8l-0.2,0.2l-1.3,0.2l-0.2-0.2c-0.3-1.6-0.5-2.6-0.6-3.1
			c-0.5-0.6-1.3-1-2.4-1.3c-1.2-0.3-2.3-0.4-3.5-0.2c-1.8,0.2-3.1,0.9-4.1,2c-0.9,1-1.2,2.2-1,3.7c0.2,1.5,0.9,2.6,2.1,3.2
			c0.8,0.4,2.6,0.6,5.3,0.7c0.3,0,1.1,0,2.4,0.1c0.8,0,1.6,0.1,2.3,0.3c1.4,0.3,2.5,1,3.4,1.9C117.1,206.7,117.7,208,117.9,209.7z"
			/>
		<path class="st0" d="M146.1,210.5c-0.2,2-0.2,4.2-0.1,6.7l-0.2,0.2l-14.7,0.7c-2.4,0.1-4.2,0.3-5.2,0.4l-0.2-0.2l0-0.6l0.1-0.2
			c1-0.7,1.5-1.1,1.6-1.3c0.1-0.3,0.1-1.2,0.1-2.7l-0.2-4.5l-0.6-10.2c-0.2-3.2-0.4-5.3-0.6-6.2c-0.1-0.4-0.3-0.6-0.7-0.7
			c-0.2,0-1-0.1-2.4-0.1l-0.2-0.2l-0.1-1.4l0.2-0.2c1.4,0,3.5-0.1,6.3-0.2c2.5-0.1,7.3-0.4,14.4-0.9l0.2,0.1l-0.1,2.3
			c-0.1,0.7-0.1,1.3-0.1,1.8l-0.1,1.9l-0.2,0.2l-1.2,0.1l-0.2-0.2c-0.1-1.8-0.3-2.9-0.5-3.1c-0.2-0.2-0.9-0.3-2.2-0.3
			c-1.3,0-2.4,0-3.4,0c-1.2,0.1-2.4,0.2-3.5,0.3c-0.1,1.4,0,3.4,0.1,5.9l0.2,4.2c1.1,0,1.9,0,2.6,0l2.6-0.2c1.2-0.1,1.9-0.2,2.1-0.4
			c0.2-0.3,0.3-1.2,0.3-2.8l0.2-0.2l1.2-0.1l0.2,0.2c0,1.5,0.1,2.9,0.1,4.1c0.1,1.4,0.2,2.8,0.3,4.5l-0.2,0.2l-1.3,0.1l-0.2-0.2
			c-0.1-1.5-0.3-2.5-0.5-2.7c-0.2-0.3-0.9-0.4-2-0.5c-0.8,0-1.7,0-2.6,0c-1,0.1-1.9,0.1-2.7,0.3l0.3,6.2c0.1,1.8,0.2,3.5,0.4,5.1
			l2.8-0.2c3.9-0.2,6.3-0.5,7.2-0.8c0.1-0.1,0.2-0.1,0.3-0.2c0.1-0.2,0.2-0.6,0.3-1.2l0.4-2.5l0.2-0.2l1.2-0.1L146.1,210.5z"/>
		<path class="st0" d="M174.9,208.7c-0.1,3.4-1.8,6-5.1,7.7c-1.6,0.9-3.7,1.3-6.3,1.2c-0.8,0-1.5,0-2-0.1l-4.8-0.2c-1.7,0-3.1,0-4,0
			l-0.2-0.2l0-0.6l0.1-0.2c1-0.6,1.6-1,1.6-1.2c0.1-0.2,0.2-1.1,0.3-2.7l0.2-4.5l0.3-10.2c0.1-3.2,0.1-5.3-0.1-6.3
			c-0.1-0.4-0.3-0.6-0.7-0.8c-0.2-0.1-1-0.1-2.4-0.3l-0.2-0.2l0-1.4l0.2-0.2c1.2,0.1,3.3,0.2,6.2,0.3c1.9,0.1,3.5,0.1,5,0
			c1.2,0,2.2,0,3,0c3.8,0.1,6.2,1,7.3,2.8c0.6,0.9,0.9,2,0.8,3.1c0,1.9-0.8,3.5-2.4,4.7c-0.7,0.6-1.5,1-2.3,1.3
			c-0.9,0.3-1.9,0.6-2.9,0.8C172.3,202.1,175,204.4,174.9,208.7z M168.7,209.1c0.1-4-2-6.1-6.2-6.2c-0.6,0-1.2,0-1.8,0l-0.2,9.3
			c0,1,0,2,0,3c0.6,0.1,1.3,0.2,2.3,0.2c1.9,0,3.3-0.5,4.4-1.7C168.1,212.7,168.6,211.1,168.7,209.1z M168.1,195.7
			c0.1-3-1.4-4.5-4.5-4.6c-1,0-1.9,0-2.6,0.1c-0.1,1.4-0.1,2.7-0.2,3.9l-0.1,5.6c0.3,0,0.9,0.1,1.9,0.1c2.4,0.1,4.1-0.7,4.9-2.2
			C167.9,197.7,168.1,196.7,168.1,195.7z"/>
		<path class="st0" d="M207.6,221.1l-0.2,0.2c-3-0.4-4.8-0.7-5.4-0.7c-2.5-0.3-4.8-0.5-6.9-0.7l-0.2-0.2l0.1-1.3l0.2-0.2l1.8,0.1
			c0.7,0,1.1-0.2,1.2-0.7c0-0.3-0.1-0.9-0.3-1.9l-1.1-4.4c-1.8-0.2-3.7-0.5-5.7-0.7c-1-0.1-2.6-0.3-4.7-0.5l-1.2,2.4
			c-0.9,1.8-1.3,2.9-1.4,3.4c-0.1,0.5,0.2,0.8,0.8,1c0.3,0.1,1,0.2,2,0.4l0.2,0.2l-0.1,1.3l-0.2,0.2c-2.5-0.4-4.1-0.6-4.8-0.7
			c-0.6-0.1-1.9-0.2-4.1-0.3l-0.2-0.2l0.1-1.3l0.2-0.2c1.4,0.1,2.3-0.1,2.6-0.5c0.4-0.4,1.9-3.1,4.5-8l6.7-12.5
			c0.5-1,1.3-2.4,2.3-4.4l2.8,0.3l7.8,26.2c0.3,1,0.6,1.6,0.9,1.7c0.4,0.2,1.1,0.4,1.9,0.5l0.2,0.3L207.6,221.1z M196.2,208.9
			l-3.1-11l-5.3,10c1.1,0.2,2.5,0.3,4.3,0.5C193.7,208.7,195.1,208.8,196.2,208.9z"/>
		<path class="st0" d="M246.1,201.6l-0.3,0.2c-1.4-0.2-2.1-0.3-2.3-0.3c-0.4,0-0.7,0.2-0.8,0.6c-0.4,0.9-0.9,2.9-1.5,6.1l-1.6,8
			c-1.2,5.9-1.9,9.8-2.1,11.6l-0.3,0.1c-1.4-0.6-2.5-1-3.3-1.2c-2.7-4.7-7.3-13.2-13.7-25.4l-2.6,12.9c-0.6,3.1-1,5.2-1,6.2
			c0,0.4,0.2,0.7,0.5,0.9c0.2,0.1,0.9,0.3,2.3,0.7l0.2,0.2l-0.3,1.4l-0.2,0.1c-1.5-0.4-2.9-0.7-4.2-1c-1.5-0.3-3.1-0.6-4.6-0.8
			l-0.2-0.2l0.3-1.3l0.2-0.2c1.4,0.2,2.1,0.3,2.4,0.3c0.4,0,0.7-0.2,0.8-0.6c0.4-0.9,0.9-2.9,1.5-6.1l2.1-10.5c0.6-3.1,1-5.2,1-6.2
			c0-0.4-0.2-0.7-0.5-0.9c-0.2-0.1-0.9-0.3-2.3-0.7l-0.2-0.2l0.3-1.3l0.2-0.1c1.2,0.3,2.4,0.6,3.6,0.8c1.8,0.4,3.3,0.6,4.4,0.8
			c3.4,7.3,7.6,15.2,12.6,23.8l2.4-11.6c0.6-3.1,1-5.2,1-6.2c0-0.4-0.2-0.7-0.5-0.9c-0.2-0.1-0.9-0.3-2.3-0.7l-0.1-0.2l0.3-1.3
			l0.2-0.1c1.5,0.4,2.8,0.7,4.2,1c1.7,0.3,3.2,0.6,4.6,0.8l0.2,0.2L246.1,201.6z"/>
		<path class="st0" d="M273.4,235l-0.2,0.2c-2.1-0.5-3.6-0.9-4.5-1c-0.7-0.1-1.9-0.3-3.5-0.6c-0.2-0.7-0.7-1.8-1.5-3.2l-4.5-7.9
			c-1-1.7-2.1-3.3-3.3-4.8l-0.9,4.7c-0.6,3.1-1,5.2-1,6.2c0,0.4,0.2,0.7,0.5,0.9c0.2,0.1,0.9,0.3,2.3,0.7l0.2,0.2l-0.3,1.3l-0.2,0.2
			c-1.3-0.3-3.3-0.8-6.1-1.3c-2.8-0.6-4.9-1-6.1-1.1l-0.2-0.2l0.3-1.3l0.2-0.2c1.4,0.2,2.1,0.3,2.4,0.3c0.4,0,0.7-0.2,0.8-0.6
			c0.4-0.9,0.9-2.9,1.5-6.1l2.1-10.5c0.6-3.1,1-5.2,1-6.2c0-0.4-0.2-0.7-0.5-0.9c-0.2-0.1-0.9-0.3-2.3-0.7l-0.2-0.2l0.3-1.3l0.2-0.1
			c1.3,0.3,3.3,0.8,6.1,1.4c2.9,0.6,4.9,1,6.1,1.1l0.1,0.2l-0.3,1.4l-0.2,0.1c-1.4-0.2-2.1-0.3-2.3-0.3c-0.4,0-0.7,0.2-0.8,0.6
			c-0.4,0.9-0.9,2.9-1.5,6.1l-1,4.9c2.9-1.8,5-3.1,6.3-4l3.4-2.3c1.2-0.8,2.7-1.9,4.5-3.4l0.3-1.4l0.3-0.2c1,0.3,2,0.5,3,0.7
			c1.1,0.2,2.5,0.5,4,0.7l0.2,0.2l-0.3,1.2l-0.2,0.2c-1.5-0.3-2.7-0.3-3.5,0c-1.2,0.5-3.6,1.9-7.2,4.1l-4.8,3
			c0.4,0.9,1.1,2.2,2.1,3.9l3.4,6c2.5,4.5,4,6.9,4.5,7.2c0.3,0.2,0.8,0.4,1.5,0.6l0.2,0.3L273.4,235z"/>
	</g>
</g>
</svg>
