<svg width="240" height="284" viewBox="137 162 240 284" xmlns="http://www.w3.org/2000/svg"><g fill="none" fill-rule="evenodd"><path d="M151.504 310.635c-5.87-1.58-13.62-6.087-13.275-11.647.267-4.321 4.913-6.88 13.724-6.88 7.324 0 12.89 3.361 12.89 7.241l-.041 12.21c-3.191.63-7.61.608-13.298-.924M362.146 310.635c5.861-1.58 13.617-6.087 13.277-11.647-.267-4.321-4.914-6.88-13.73-6.88-7.318 0-12.885 3.361-12.885 7.241l.041 12.21c3.195.63 7.606.608 13.297-.924" fill="#FFF"/><path d="M165.98 299.415c.01-3.393-2.379-5.687-5.112-6.89-2.774-1.258-6.105-1.724-9.006-1.729-4.487.005-8.009.636-10.583 1.969-2.584 1.303-4.125 3.542-4.256 6.206a7.375 7.375 0 0 0-.023.65c0 7.338 10.171 9.31 15.787 10.556l.072-5.663c.997.079 2.067.131 3.146.131 2.225-.007 4.482-.204 6.368-.873.281-.092.557-.215.834-.351l-.023 7.694 2.752-.238.044-11.462zm-4.545 1.761c-1.347.496-3.395.714-5.43.709-1.523 0-3.055-.112-4.347-.263l-1.523-.173-.018 1.537-.063 5.883c-1.655-.558-10.385-3.311-10.385-9.72 0-1.679.916-2.876 2.879-3.929 1.944-1.025 5.054-1.663 9.242-1.663h.072c2.593-.005 5.639.457 7.859 1.474 2.262 1.072 3.495 2.399 3.499 4.384-.013.738-.385 1.203-1.785 1.761zM347.716 310.877l2.75.238-.021-7.694c.271.136.553.259.834.351 1.885.669 4.142.866 6.367.873 1.078 0 2.148-.052 3.146-.131l.073 5.663c5.615-1.246 15.785-3.218 15.785-10.556 0-.216-.004-.438-.018-.65-.134-2.664-1.681-4.903-4.256-6.206-2.578-1.333-6.095-1.964-10.587-1.969-2.905.005-6.233.471-9.006 1.729-2.733 1.203-5.121 3.497-5.114 6.89l.047 11.462zm2.715-11.462c.008-1.985 1.236-3.312 3.498-4.384 2.221-1.017 5.268-1.479 7.86-1.474h.072c4.187 0 7.297.638 9.242 1.663 1.963 1.053 2.879 2.25 2.879 3.929 0 6.409-8.731 9.162-10.385 9.72l-.068-5.883-.008-1.537-1.527.173a38.398 38.398 0 0 1-4.348.263c-2.035.005-4.08-.213-5.43-.709-1.4-.558-1.777-1.023-1.785-1.761z" fill="#002A50"/><path d="M323.892 167.073c-9.191 4.074-19.961 6.341-33.844 6.341-21.642 0-31.836-6.155-33.843-9.872-2.013 3.717-12.206 9.872-33.849 9.872-13.883 0-24.657-2.267-33.849-6.341-.712 10.278-20.201 30.477-27.644 33.667 7.443 10.279 15.951 31.191 15.951 54.229 0 23.03-16.299 38.977-16.299 66.268 0 68.756 84.344 69.113 95.69 91.439 11.339-22.326 95.689-22.683 95.689-91.439 0-27.291-16.299-43.238-16.299-66.268 0-23.038 8.504-43.95 15.942-54.229-7.438-3.19-26.932-23.389-27.645-33.667" fill="#FFF"/><path d="M176.46 364.397V260.789c-2.353 20.054-15.945 35.514-15.945 60.448 0 18.962 6.418 32.711 15.945 43.16zm113.866 26.137v2.008c7.478-3.143 15.404-6.61 22.992-10.858V170.735c-6.68 1.725-14.213 2.657-22.992 2.676v217.123zM160.863 200.74c6.554 9.052 13.929 26.343 15.597 46.066V187.41c-5.707 6.373-12.029 11.803-15.597 13.33zm38.223 180.944c7.587 4.248 15.51 7.715 22.989 10.858V173.411c-8.784-.019-16.313-.951-22.989-2.679v210.952zm136.732-122.063l.117 104.795c9.531-10.459 15.959-24.213 15.959-43.179 0-25.41-14.133-40.993-16.076-61.616zm-79.613-96.079c-1.12 2.067-4.769 4.886-11.499 6.977v232.147c5.452 2.996 9.549 6.178 11.499 10.01 1.944-3.832 6.041-7.014 11.49-10.01V170.519c-6.732-2.091-10.376-4.91-11.49-6.977zm79.74 23.868v59.371c1.676-19.714 9.041-36.994 15.592-46.041-3.559-1.527-9.891-6.957-15.592-13.33z" fill="#AB9157"/><path d="M178.93 254.965c-.005 12.04-4.247 22.082-8.299 32.323-4.075 10.259-8.004 20.738-8.009 33.949.05 25.099 11.368 40.448 26.424 51.55 15.071 11.068 33.886 17.496 48.281 23.916 8.086 3.665 14.898 7.204 18.868 12.141 2.802-3.477 7.035-6.246 12.07-8.884 6.377-3.314 14.155-6.38 22.373-9.852 16.447-6.923 34.555-15.476 46.25-30.044 7.795-9.721 12.871-22.073 12.885-38.827 0-13.211-3.93-23.69-8-33.949-4.051-10.241-8.295-20.283-8.299-32.323.024-22.198 7.633-42.254 14.984-53.482-2.982-1.846-6.541-4.904-10.251-8.593-4.651-4.66-9.352-10.275-12.555-15.579-1.5-2.515-2.697-4.94-3.356-7.274-8.947 3.558-19.339 5.498-32.248 5.493-11.027 0-19.217-1.558-25.009-3.669-4.071-1.512-6.957-3.193-8.834-4.983-1.886 1.79-4.773 3.471-8.844 4.983-5.787 2.111-13.987 3.669-25.005 3.669-12.913.005-23.306-1.935-32.253-5.493-.653 2.334-1.85 4.759-3.35 7.274-2.139 3.536-4.94 7.207-7.95 10.648-5.121 5.806-10.624 10.892-14.866 13.52 7.356 11.227 14.961 31.286 14.993 53.486zm75.384 158.667c-1.727-3.474-6.042-6.77-12.133-9.919-6.074-3.159-13.792-6.21-22.064-9.704-16.539-6.99-35.34-15.707-47.904-31.295-8.367-10.379-13.833-23.859-13.824-41.477 0-14.077 4.224-25.22 8.303-35.511 4.098-10.313 8.009-19.766 8-30.761.032-22.5-8.398-43.156-15.542-52.983l.879-3.186c2.235-.927 6.749-4.443 11.169-8.898 4.455-4.458 9.001-9.908 11.929-14.771 1.963-3.23 3.159-6.236 3.272-8.204l2.969-1.785c8.888 3.938 19.327 6.157 32.988 6.159 10.62 0 18.343-1.512 23.56-3.417 5.217-1.854 7.922-4.288 8.421-5.344h3.725c.504 1.056 3.205 3.49 8.422 5.344 5.222 1.905 12.949 3.417 23.564 3.417 13.653-.002 24.09-2.221 32.989-6.159l2.968 1.785c.114 1.968 1.309 4.974 3.272 8.204 1.953 3.241 4.623 6.749 7.506 10.042 5.697 6.574 12.55 12.385 15.588 13.627l.882 3.186c-7.146 9.827-15.572 30.483-15.545 52.983-.009 10.995 3.907 20.448 7.999 30.761 4.08 10.291 8.308 21.434 8.304 35.511.045 26.468-12.355 43.451-28.152 54.97-15.781 11.554-34.945 18.037-49.059 24.362-9.431 4.163-16.444 8.415-18.705 13.063h-3.781zM200.124 411.085c-.444.736-1.047 1.264-1.799 1.577a3.836 3.836 0 0 1-2.103.242c-.685-.101-1.401-.378-2.158-.831-.938-.562-1.732-1.328-2.379-2.299l.008-.194c.431-.436.93-1.133 1.501-2.08l.109-.026.43.252.014.104-.091.157c-.15.251-.317.598-.512 1.04-.014.383.131.8.421 1.258.309.474.699.852 1.165 1.131.889.53 1.687.587 2.394.174a2.36 2.36 0 0 0 .852-.831c.339-.574.349-1.124.013-1.658-.163-.262-.485-.59-.965-.987-1.084-.897-1.731-1.596-1.945-2.097-.312-.761-.208-1.584.322-2.463.544-.92 1.288-1.461 2.235-1.643.997-.182 2.075.074 3.236.771 1.051.627 1.79 1.298 2.234 2.021l-.045.188c-.431.467-.875 1.07-1.346 1.801l-.113.024-.422-.252-.027-.107c.308-.544.494-.909.557-1.086-.009-.294-.145-.618-.403-.971a3.434 3.434 0 0 0-1.011-.913c-.598-.359-1.165-.486-1.709-.377-.502.106-.897.397-1.183.871-.308.511-.344 1.001-.122 1.464.145.303.635.795 1.446 1.477.082.068.322.268.707.598.236.207.44.415.612.635.353.439.535.902.553 1.386.018.529-.14 1.074-.476 1.644M214.737 411.102l-.1.035c-.549-.286-.934-.294-1.151-.041-.123.143-.331.478-.631 1.013-.221.395-.534.97-.928 1.729l-1.106 2.141c-.712 1.371-1.491 2.212-2.335 2.521-1.124.403-2.347.263-3.671-.429-1.214-.623-2.058-1.318-2.529-2.073a2.71 2.71 0 0 1-.367-2.042c.1-.46.589-1.536 1.468-3.233l.925-1.793c.571-1.102.916-1.831 1.024-2.201.05-.145.018-.267-.1-.377-.063-.053-.321-.216-.779-.491l-.032-.106.245-.465.104-.029c.431.26 1.133.636 2.117 1.148a42.92 42.92 0 0 0 2.153 1.065l.032.1-.245.47-.1.029c-.489-.216-.771-.331-.852-.349a.339.339 0 0 0-.367.133c-.231.302-.635 1.004-1.206 2.106l-.743 1.427c-.902 1.752-1.387 2.865-1.428 3.336-.091.943.481 1.734 1.722 2.373.807.419 1.541.548 2.204.385.308-.079.557-.192.743-.346.185-.152.403-.417.657-.802.245-.357.462-.73.662-1.115l.752-1.447a202.402 202.402 0 0 0 1.273-2.492c.205-.42.318-.707.336-.856.014-.11-.032-.225-.131-.338-.086-.1-.35-.28-.803-.546l-.031-.108.244-.466.105-.032c.389.239.793.467 1.219.685.317.165.938.474 1.863.915l.036.103-.249.463M220.915 425.036l-.105.038c-.032-.011-.122-.055-.267-.122a59.9 59.9 0 0 0-1.21-.556 26.623 26.623 0 0 0-1.188-.455c.027-.122.014-.353-.032-.691l-.516-3.737-.282-1.557a2.39 2.39 0 0 0-.24-.619l.186-.213c.109.057.181.091.236.111.471.202.875.283 1.206.249.303-.029.63-.167.974-.414.354-.252.626-.605.821-1.072.344-.812.276-1.489-.209-2.024-.231-.258-.621-.502-1.169-.741a4.976 4.976 0 0 0-.717-.233c-.249.448-.616 1.241-1.096 2.372l-1.601 3.765c-.484 1.139-.766 1.894-.851 2.266a.353.353 0 0 0 .131.374c.063.047.335.193.811.428l.041.102-.204.483-.095.045a42.712 42.712 0 0 0-2.198-.984c-1.034-.439-1.777-.741-2.235-.901l-.041-.096.205-.489.099-.043c.503.181.798.275.875.292a.343.343 0 0 0 .358-.168c.213-.316.553-1.049 1.043-2.188l1.618-3.808c.485-1.14.765-1.899.852-2.268a.345.345 0 0 0-.132-.373c-.063-.046-.331-.192-.811-.429l-.041-.101.208-.489.1-.036c.458.228 1.192.557 2.199.985.584.247 1.06.444 1.432.583.739.283 1.283.494 1.645.651.834.353 1.405.684 1.731 1.001.436.421.644.912.617 1.464-.009.275-.091.572-.227.891-.553 1.305-1.681 1.917-3.376 1.842.067.508.149 1.02.24 1.548l.385 2.175c.222 1.286.413 2.042.566 2.272.082.12.223.222.417.306l.041.101-.194.463M231.076 424.645a3.678 3.678 0 0 1-1.414 1.929 3.786 3.786 0 0 1-1.999.694c-.684.047-1.446-.068-2.284-.344a7.366 7.366 0 0 1-2.819-1.728l-.037-.194c.327-.52.667-1.308 1.011-2.36l.1-.043.476.155.04.097-.054.17c-.095.277-.181.653-.276 1.131.073.374.304.752.684 1.131a3.53 3.53 0 0 0 1.383.852c.983.329 1.772.213 2.37-.345.313-.29.531-.625.653-.999.208-.632.095-1.174-.345-1.62-.217-.223-.603-.472-1.155-.753-1.251-.641-2.04-1.185-2.353-1.629-.471-.673-.548-1.498-.226-2.473.339-1.015.947-1.711 1.831-2.085.929-.396 2.039-.381 3.331.048 1.152.383 2.026.882 2.615 1.486l-.004.193c-.317.551-.625 1.237-.92 2.051l-.104.05-.472-.157-.05-.096c.186-.601.29-.991.313-1.184-.077-.283-.277-.568-.603-.858a3.447 3.447 0 0 0-1.187-.673c-.662-.218-1.242-.218-1.746.004-.471.211-.797.58-.969 1.106-.191.566-.123 1.054.199 1.457.213.263.784.635 1.727 1.126.1.046.372.19.82.436.272.147.522.305.739.48.431.356.716.768.839 1.234.131.513.095 1.081-.114 1.711M245.041 420.938l-.091.059c-.602-.134-.974-.047-1.119.259-.082.165-.2.548-.354 1.135a56.109 56.109 0 0 0-.444 1.913l-.526 2.35c-.331 1.511-.87 2.523-1.609 3.036-.983.678-2.198.86-3.662.534-1.333-.297-2.32-.747-2.973-1.358-.544-.519-.839-1.142-.88-1.875-.022-.474.173-1.638.585-3.508l.44-1.971c.272-1.21.412-2.001.426-2.384.009-.153-.059-.266-.2-.343-.068-.036-.362-.127-.87-.273l-.063-.091.117-.513.091-.059c.481.138 1.26.329 2.343.569 1.097.24 1.881.401 2.352.473l.06.094-.114.514-.095.059c-.521-.086-.825-.129-.911-.126a.35.35 0 0 0-.322.226c-.145.351-.358 1.133-.625 2.343l-.345 1.573c-.43 1.924-.603 3.123-.525 3.594.154.93.911 1.548 2.266 1.845.893.202 1.636.133 2.235-.193.276-.154.484-.333.625-.525.14-.189.286-.506.435-.944.141-.405.254-.824.349-1.252l.354-1.584c.294-1.333.493-2.247.593-2.736.091-.462.127-.768.104-.916-.018-.108-.09-.21-.212-.297-.109-.067-.413-.178-.912-.319l-.059-.095.114-.508.09-.063c.436.129.889.245 1.356.351.353.073 1.029.213 2.035.401l.059.094-.118.511" fill="#002A50"/><path d="M258.916 432.333l-.083.077c-.511-.063-1.314-.125-2.402-.192-1.111-.069-1.912-.103-2.407-.098l-.063-.075.032-.53.081-.073c.535 0 .839-.007.916-.027a.338.338 0 0 0 .285-.27c.091-.374.172-1.173.245-2.416l.317-5.273-1.953 3.461c-.109.194-.489.899-1.147 2.123l-1.613 3.037-.522-.029a70.87 70.87 0 0 0-.956-2.512l-.952-2.384-1.79-4.374-.327 5.412c-.072 1.238-.086 2.049-.04 2.427.013.154.099.254.244.304.077.025.381.073.911.136l.073.082-.032.53-.082.065a33.45 33.45 0 0 0-3.476-.21l-.072-.075.036-.532.082-.068c.53 0 .834-.012.915-.025a.336.336 0 0 0 .281-.274c.095-.368.172-1.177.25-2.41l.249-4.131c.072-1.24.086-2.046.045-2.422a.346.346 0 0 0-.249-.307c-.077-.024-.381-.074-.907-.136l-.077-.079.032-.532.086-.063a40.79 40.79 0 0 0 2.044.17c.639.036 1.192.053 1.668.051.15.404.358.975.63 1.716l.435 1.104 2.171 5.338 1.337-2.345 2.108-3.875c.249-.46.494-.958.73-1.489.589.064.983.104 1.187.116 1.019.063 1.8.093 2.344.093l.072.075-.031.541-.083.065c-.53 0-.842.005-.916.024a.337.337 0 0 0-.285.271c-.09.372-.172 1.174-.249 2.414l-.249 4.127c-.072 1.237-.086 2.048-.041 2.427.018.151.1.254.244.304.082.024.381.068.913.135l.072.077-.031.524M274.837 428.753l-.23.843c-.988.772-2.158 1.266-3.495 1.481-2.689.438-4.683-.235-5.984-2.01a6.343 6.343 0 0 1-1.155-2.801c-.272-1.686.072-3.121 1.033-4.305.98-1.225 2.456-1.988 4.447-2.31a10.492 10.492 0 0 1 3.807.088l.122.1c-.058.739-.036 1.587.077 2.546l-.058.088-.454.075-.095-.074c-.113-.618-.213-1.048-.29-1.282-.762-.626-1.75-.834-2.965-.636-1.246.199-2.166.756-2.746 1.661-.58.911-.762 2.042-.544 3.399.295 1.838 1.155 3.143 2.579 3.92.762.415 1.709.535 2.838.352 1.028-.168 1.994-.596 2.891-1.281l.222.146M284.179 421.965c-.422-1.449-1.047-2.516-1.881-3.202-.83-.685-1.808-.859-2.933-.533-1.487.431-2.276 1.387-2.375 2.865-.049.761.046 1.563.295 2.416.449 1.546 1.092 2.687 1.922 3.415.861.753 1.876.959 3.054.619 1.428-.417 2.181-1.399 2.258-2.948.045-.826-.068-1.701-.34-2.632zm2.203-1.061c.535 1.845.422 3.454-.349 4.814-.752 1.328-2.032 2.255-3.844 2.783-1.713.496-3.191.403-4.446-.273-1.26-.681-2.14-1.878-2.638-3.593-.703-2.408-.268-4.342 1.297-5.802.715-.662 1.685-1.174 2.904-1.527 1.746-.51 3.236-.45 4.475.185 1.26.644 2.125 1.784 2.601 3.413zM299.367 421.856l-.045.098a3.846 3.846 0 0 1-.276.106c-.671.243-1.093.399-1.255.462-.25.102-.631.273-1.157.52-.068-.111-.236-.264-.511-.468l-3.01-2.279-1.297-.903a2.28 2.28 0 0 0-.608-.269l-.017-.276c.113-.039.189-.071.25-.093.471-.191.814-.415 1.023-.676.19-.233.323-.563.395-.983.072-.421.014-.871-.178-1.335-.33-.818-.855-1.251-1.576-1.289-.346-.016-.799.086-1.355.31a5.145 5.145 0 0 0-.672.338c.146.493.445 1.312.902 2.454l1.533 3.789c.461 1.152.797 1.888.996 2.21a.343.343 0 0 0 .36.167c.08-.011.375-.101.879-.267l.099.045.199.483-.037.099a44.45 44.45 0 0 0-2.252.857c-1.043.422-1.777.732-2.216.945l-.1-.034-.195-.494.041-.104c.48-.226.752-.363.82-.415a.34.34 0 0 0 .137-.365c-.078-.373-.35-1.138-.813-2.288l-1.545-3.835c-.467-1.151-.803-1.886-1.002-2.212a.338.338 0 0 0-.357-.165c-.076.009-.371.1-.875.27l-.1-.043-.199-.494.045-.093a44.946 44.946 0 0 0 2.248-.86c.59-.237 1.066-.439 1.432-.6a43.348 43.348 0 0 1 1.615-.702c.842-.343 1.486-.513 1.935-.52.612-.009 1.1.193 1.477.604.178.201.336.462.467.786.531 1.316.168 2.547-1.092 3.696.408.306.828.614 1.264.92l1.814 1.27c1.068.75 1.734 1.148 2.012 1.201.14.029.308.002.508-.077l.099.044.19.465M306.402 411.96c-.652-1.29-1.459-2.128-2.434-2.507a2.988 2.988 0 0 0-1.605-.154c-.535.097-1.223.351-2.057.768-.431.218-.83.458-1.201.719.221.546.828 1.819 1.836 3.82l1.541 3.046c.353.678.598 1.117.742 1.328.44-.14.879-.322 1.307-.532.927-.467 1.594-.971 1.988-1.51.432-.582.639-1.309.627-2.186-.014-.898-.264-1.834-.744-2.792zm1.971-1.414c.798 1.577.939 3.147.431 4.704a5.846 5.846 0 0 1-1.238 2.097c-.615.693-1.436 1.282-2.475 1.781l-2.488 1.194c-.676.328-1.219.621-1.645.877l-.099-.032-.1-.197-.006-.102c.233-.392.35-.621.35-.693 0-.105-.131-.426-.385-.97l-.765-1.575-1.787-3.542c-.553-1.109-.952-1.814-1.174-2.119a.345.345 0 0 0-.367-.136c-.081.014-.362.127-.852.337l-.109-.033-.235-.474.041-.1c.502-.22.979-.442 1.428-.667a98.312 98.312 0 0 0 2.914-1.515c.426-.23.855-.458 1.295-.673 1.211-.612 2.213-.942 2.996-.995a3.958 3.958 0 0 1 2.375.591c.748.462 1.375 1.208 1.895 2.242zM315.281 408.684l-3.526-2.678.702 4.34c.373-.2.857-.476 1.447-.823.57-.335 1.027-.616 1.377-.839zm6.404 1.109l-.021.104c-1.012.562-1.623.9-1.832 1.025-.825.482-1.586.949-2.28 1.393l-.099-.031-.25-.422.027-.113.562-.379c.241-.16.313-.321.217-.482-.058-.096-.244-.268-.562-.519l-1.381-1.102a114.656 114.656 0 0 0-3.463 2.038l.186 1.002c.144.751.261 1.209.353 1.364.1.172.268.213.494.117.131-.05.371-.167.721-.347l.107.026.254.43-.031.104a96.25 96.25 0 0 0-1.627.907c-.182.108-.631.388-1.342.843l-.103-.018-.254-.437.031-.112c.449-.298.68-.559.69-.777.013-.223-.141-1.387-.467-3.511l-.83-5.434c-.073-.414-.178-1.047-.317-1.895l.955-.561 8.522 6.298c.326.238.556.344.693.317.182-.032.408-.132.684-.295l.105.038.258.429zM229.762 438.939l.276-1.074 9.582 2.445-.272 1.075-9.586-2.446M247.457 445.339l-.082.07a36.482 36.482 0 0 0-2.203-.367 62.237 62.237 0 0 0-2.683-.315l-.059-.084.054-.392.087-.052c.222.002.439.012.648.025.376.02.616.016.725-.013.077-.026.15-.096.222-.209.109-.193.263-1.004.462-2.437l.227-1.606c.068-.483.141-1.097.227-1.838l.054-.482c.032-.218 0-.332-.091-.343-.036-.009-.172.027-.399.095-.629.191-1.165.356-1.618.503l-.072-.056c.009-.247 0-.529-.018-.836l.013-.053a45.003 45.003 0 0 0 4.166-.795l.122.12c-.05.254-.127.623-.222 1.117-.045.191-.127.694-.254 1.519l-.376 2.531c-.249 1.816-.353 2.794-.313 2.935.028.106.082.177.168.208.145.063.544.161 1.196.288l.078.072-.059.395" fill="#002A50"/><g fill="#002A50"><path d="M254.128 438.993c.023-.421-.09-.768-.326-1.04-.244-.27-.58-.417-1.015-.435-.39-.02-.707.084-.947.315a1.18 1.18 0 0 0-.359.825c-.018.329.109.635.372.92.136.146.349.302.626.451.1.059.249.141.448.245l.345.167c.544-.312.825-.793.856-1.448zm-.185 4.775c.032-.625-.227-1.11-.771-1.453a9.606 9.606 0 0 0-1.142-.625l-.172-.082c-.644.445-.979 1.023-1.011 1.735-.023.412.036.748.177 1.012.312.589.775.898 1.391.927.431.023.784-.108 1.065-.392.286-.283.44-.66.463-1.122zm1.486-.677c-.022.508-.136.954-.34 1.333a2.82 2.82 0 0 1-1.763 1.438c-.326.1-.721.137-1.178.113-.979-.051-1.718-.451-2.208-1.216-.217-.34-.312-.78-.285-1.315.032-.659.267-1.18.707-1.575.15-.127.462-.306.948-.541-.848-.53-1.247-1.247-1.206-2.138.045-1.012.543-1.728 1.491-2.152a2.92 2.92 0 0 1 1.373-.238c.743.036 1.319.249 1.732.645.389.377.575.851.548 1.421-.036.775-.485 1.388-1.342 1.843.599.283 1.016.621 1.247 1.009.213.357.308.813.276 1.373zM261.39 443.403c-.037-.67-.186-1.176-.453-1.529-.246-.326-.572-.481-.967-.46-.52.027-.851.265-.996.721-.068.213-.096.505-.078.87.051.952.26 1.623.64 1.999.217.215.475.312.784.301.77-.037 1.129-.671 1.07-1.902zm1.531-.786c.059 1.249-.336 2.2-1.191 2.864-.399.316-.916.486-1.541.515-.885.041-1.592-.247-2.117-.861-.549-.627-.848-1.532-.907-2.717-.054-1.145.109-2.108.481-2.881.398-.82.942-1.48 1.627-1.982a4.348 4.348 0 0 1 2.402-.843l.539.403-.195.229c-.154-.019-.303-.028-.439-.019-.67.032-1.247.309-1.727.818a3.25 3.25 0 0 0-.549.873c-.254.578-.398 1.358-.448 2.343.553-.566.894-.877 1.007-.931a2.41 2.41 0 0 1 .961-.222 1.775 1.775 0 0 1 1.418.558c.417.428.638 1.048.679 1.853z"/></g><path d="M269.924 436.372c-.743 1.96-1.333 3.693-1.762 5.193a51.741 51.741 0 0 0-.88 3.456l-.095.087a6.077 6.077 0 0 0-.64.057c-.231.031-.48.079-.747.138l-.082-.136 2.112-5.179c.172-.419.308-.764.399-1.024l.444-1.279-.058-.108-1.637.227-1.15.178c-.377.055-.608.107-.703.158-.069.033-.119.11-.151.219-.031.109-.035.526-.026 1.246l-.06.082-.402.04-.082-.06a24.785 24.785 0 0 0-.154-1.381 37.085 37.085 0 0 0-.268-1.649l.072-.08a77.178 77.178 0 0 0 3.024-.353 78.731 78.731 0 0 0 2.692-.408l.081.048.073.528M273.251 441.385l-.272-1.075 9.582-2.445.276 1.074-9.586 2.446M358.363 376.275c3.15-.05 6.404 1.203 8.502 3.572-2.67 1.627-9.395 2.048-12.205-1.172-1.243.751-2.989 1.976-4.094 2.915 3.137-1.107 6.723-.92 9.437 1.06-3.459 2.683-8.449 4.234-12.519 1.775a119.689 119.689 0 0 1-3.291 3.043c3.047-1.448 6.695-1.169 9.541.591-3.402 2.772-8.354 4.579-12.455 2.278-.947.966-1.899 1.928-2.897 2.919 2.979-1.337 6.391-1.113 9.215.528-3.031 2.804-8.076 4.182-12.178 2.67-3.908 4.158-5.23 5.652-10.302 8.374-.834.407-1.746.39-1.678-.751.535-.759 1.434-1.071 2.166-1.62 4.348-2.454 4.955-3.492 8.49-6.955-1.97-4.333-.164-9.45 3.34-12.431 1.867 3.856 1.08 6.702.047 9.347.955-1.047 1.934-1.956 2.963-2.908-2.406-4.301-.014-9.291 3.215-12.437 1.466 3.012 1.408 6.535-.075 9.495 1.081-.976 2.073-1.973 3.147-2.96-2.313-4.366.289-9.356 3.699-12.33 1.332 3.019.986 6.525-.441 9.452 1.074-.978 3.019-2.08 4.252-2.835-1.623-3.267 2.261-9.105 6.871-10.485.185 1.6-.557 6.225-2.75 8.865M154.532 376.737c-3.155-.054-6.409 1.199-8.508 3.566 2.665 1.625 9.396 2.048 12.206-1.17 1.242.746 2.992 1.973 4.098 2.915-3.141-1.107-6.731-.923-9.446 1.06 3.463 2.683 8.449 4.231 12.528 1.775a144.231 144.231 0 0 0 3.281 3.039c-3.041-1.447-6.685-1.165-9.536.593 3.404 2.774 8.353 4.581 12.46 2.278.943.963 1.894 1.929 2.896 2.919-2.987-1.33-6.391-1.111-9.224.528 3.037 2.81 8.082 4.181 12.179 2.674 3.907 4.151 5.235 5.649 10.311 8.364.834.417 1.741.395 1.678-.745-.536-.757-1.432-1.069-2.172-1.623-4.342-2.449-4.953-3.492-8.489-6.952 1.972-4.331.168-9.45-3.34-12.431-1.868 3.862-1.075 6.701-.046 9.351-.961-1.047-1.935-1.965-2.964-2.91 2.407-4.308.013-9.298-3.209-12.442a10.74 10.74 0 0 0 .068 9.495c-1.079-.978-2.067-1.968-3.141-2.952 2.302-4.37-.299-9.36-3.703-12.336-1.332 3.019-.988 6.53.444 9.455-1.083-.976-3.018-2.078-4.26-2.837 1.627-3.265-2.253-9.106-6.867-10.481-.186 1.593.553 6.223 2.756 8.867" fill="#002A50"/><path fill="#002950" d="M256.318 387.634h-2.357l.344-12.882-6.558.171v-4.283l6.549.28-.34-6.321h4.71l-.344 6.321 6.539-.28.006 4.283-6.555-.175.35 12.886h-2.344M319.355 202.897l-1.301-.661-.189-.594-.621.054c-1.541.116-6.278.798-19.899.703-9.314-.059-13.23-2.472-25.844-1.614-10.365.707-13.225 3.83-13.919 4.927-.38-.795-2.393-3.793-10.434-5.03a46.349 46.349 0 0 0-4.151-.448c-12.723-.803-16.716 1.442-25.899 1.721-14.608.472-19.114.027-20.224-.147-.127-.021-1.11-.03-1.11-.03l-.743-.229-.01 1.142-1.192-.19-4.455 76.08 68.082 1.172 65.753-2.598-3.844-74.258"/><path d="M199.199 275.472c5.036.789 6.6.625 14.156.835 9.558.25 26.972-1.021 33.957-.767 2.216.088 4.07.294 5.575.527 1.899.29 3.231.647 4.015.884l-.14-69.897c-.005 0-.005 0-.005-.004-.036-.069-.095-.184-.204-.329-.208-.29-.589-.714-1.237-1.197-1.305-.963-3.716-2.134-8.077-2.814a43.774 43.774 0 0 0-4.043-.431c-12.532-.804-16.34 1.416-25.785 1.722-13.67.437-18.529.082-20.142-.129l-2.838 70.777c1.936.358 3.467.618 4.768.823M258.408 276.951c1.4-.439 4.564-1.227 9.594-1.45 6.962-.288 24.376.59 33.953.293 4.791-.148 9.66-.527 13.336-.86 2.646-.242 4.667-.468 5.591-.573l-3.484-71.031c-1.582.118-6.15.601-19.785.508-9.463-.077-13.289-2.468-25.789-1.615-11.141.772-13.282 4.283-13.557 4.831l.141 69.897" fill="#FFF"/><path fill="#002950" d="M244.139 222.396l-11.304-1.631-4.954-9.532-5.171 9.437-11.341 1.411 8.109 7.468-2.063 10.406 10.185-4.827 10.071 5.024-1.813-10.45 8.281-7.306M292.46 259.898a3.134 3.134 0 0 1-2.044.741c-.254 0-.516-.03-.776-.09a2.955 2.955 0 0 0-.217-.465l.131-.139c.178.062.346.089.494.091.432 0 .78-.154 1.039-.458.262-.301.393-.733.393-1.284 0-1.197-.533-1.795-1.604-1.798-.136 0-.39.025-.775.077-.041.105-.059.803-.059 2.104l-.009 3.394c-.004 1.013.023 1.68.082 1.992a.28.28 0 0 0 .213.234c.041.009.339.034.884.065l.073.07-.006.424-.063.069a56.198 56.198 0 0 0-2.103-.046c-.92 0-1.582.013-1.981.036l-.062-.059.004-.425.062-.073c.436-.027.68-.052.748-.063a.29.29 0 0 0 .223-.24c.055-.307.086-.971.086-1.991l.004-3.39c0-1.025-.028-1.686-.08-1.991-.028-.127-.086-.205-.219-.244a8.633 8.633 0 0 0-.752-.063l-.063-.072.004-.422.069-.066c.416.028 1.064.043 1.935.043.354 0 .873-.007 1.555-.015.674-.012 1.061-.021 1.164-.021 1.174.005 1.94.302 2.285.898.18.312.272.682.266 1.119 0 .884-.299 1.566-.901 2.058M297.232 261.439c-.557 0-1.016-.013-1.369-.023l1.324-3.367 1.369 3.372c-.336.007-.779.018-1.324.018zm5.391 3.028l-.055-.069c-.268 0-.467-.024-.613-.081-.104-.039-.227-.209-.362-.512l-3.39-8.011h-.907c-.254.655-.439 1.142-.566 1.462l-1.682 4.194c-.658 1.634-1.043 2.531-1.142 2.682-.096.139-.367.226-.811.256l-.074.065v.417l.068.062c.694-.026 1.129-.04 1.301-.04.227 0 .735.017 1.527.04l.065-.062.004-.417-.069-.059c-.326-.016-.539-.041-.652-.049-.199-.033-.299-.13-.299-.295-.004-.15.104-.522.317-1.116l.287-.781c.656-.007 1.16-.011 1.49-.011.617.004 1.219.006 1.809.015l.521 1.356c.123.315.176.514.176.605 0 .153-.117.235-.348.251l-.562.029-.065.064v.413l.061.063a59.79 59.79 0 0 1 2.193-.034c.196 0 .77.014 1.723.038l.055-.063v-.412zM311.406 264.938l-1.311-.023c-.213 0-.588.003-1.119.02-.137-.16-.34-.509-.631-1.05l-1.332-2.473-.508.725a38.712 38.712 0 0 0-1.785 2.795 8.408 8.408 0 0 0-.597-.026c-.401.003-.686.009-.875.021l-.059-.069v-.41l.062-.07c.354-.025.563-.061.639-.107.127-.081.418-.43.875-1.047l.844-1.134c.027-.043.375-.504 1.029-1.388l-.49-.858-.783-1.358c-.549-.963-.975-1.525-1.266-1.702a.64.64 0 0 0-.303-.091c-.095 0-.226.005-.404.019l-.082-.062-.055-.346.065-.095c.597-.118 1.377-.29 2.33-.504.271.173.543.49.828.947.137.228.35.604.645 1.145l.724 1.348.834-1.216c.694-1.009 1.139-1.694 1.352-2.061.172.019.343.027.515.027.287 0 .58-.008.871-.022l.069.068-.006.419-.063.064c-.294.002-.494.038-.584.094-.095.062-.287.266-.562.611-.281.347-.652.825-1.102 1.443-.254.345-.562.766-.929 1.277.213.393.517.947.916 1.668l.82 1.407c.449.786.738 1.223.857 1.325.118.1.307.149.571.149l.062.064v.413l-.062.063M249.392 251.488c-1.582-.972-4.759-1.115-6.934-1.305a33.29 33.29 0 0 0-3.033-.129c-3.028 0-6.037.341-9.151.482-2.574.118-4.609.156-6.45.156-3.308 0-5.978-.122-10.039-.122-.698 0-1.437.005-2.225.011v.003a.505.505 0 0 1-.513-.499.507.507 0 0 1 .499-.519c.793-.007 1.536-.008 2.239-.008 4.084 0 6.758.119 10.039.119 1.827 0 3.848-.043 6.405-.159 3.068-.135 6.087-.48 9.196-.48 1.033 0 2.072.034 3.123.136 2.148.204 5.371.265 7.365 1.441a.51.51 0 0 1 .177.698.517.517 0 0 1-.44.247.513.513 0 0 1-.258-.072M249.197 255.93c-1.568-.975-4.75-1.118-6.93-1.306a32.91 32.91 0 0 0-3.018-.131c-3.038 0-6.043.345-9.165.484-2.52.119-5.04.153-7.565.153-4.754 0-9.505-.134-14.218-.134-.748 0-1.487.005-2.226.014a.505.505 0 0 1-.512-.503.507.507 0 0 1 .503-.513c.744-.007 1.487-.014 2.235-.014 4.731 0 9.482.134 14.218.134 2.511 0 5.022-.038 7.519-.149 3.073-.136 6.097-.485 9.211-.489 1.023 0 2.062.041 3.118.137 2.144.207 5.366.266 7.361 1.445a.51.51 0 0 1 .167.702.504.504 0 0 1-.435.24.563.563 0 0 1-.263-.07M249.016 260.372c-1.578-.975-4.755-1.117-6.935-1.308a34.278 34.278 0 0 0-3.027-.131c-3.037 0-6.038.344-9.152.489-2.529.111-5.062.145-7.601.145-4.713 0-9.432-.125-14.118-.125-.771 0-1.532.005-2.298.009a.507.507 0 1 1-.009-1.015c.77-.004 1.536-.013 2.307-.013 4.705 0 9.418.131 14.118.131 2.525 0 5.05-.038 7.556-.15 3.069-.137 6.092-.48 9.197-.484 1.029 0 2.066.038 3.122.136 2.144.206 5.367.262 7.361 1.448.245.14.317.453.172.693a.5.5 0 0 1-.435.245.532.532 0 0 1-.258-.07M207.974 263.88c-.757 0-1.518.005-2.275.011a.507.507 0 1 1-.009-1.015 247.56 247.56 0 0 1 2.284-.014c4.71 0 9.437.129 14.146.129 2.529 0 5.04-.034 7.546-.144 3.069-.137 6.088-.486 9.197-.486 1.025 0 2.072.034 3.123.134a.51.51 0 0 1 .462.556.5.5 0 0 1-.552.453 34.091 34.091 0 0 0-3.033-.125c-3.037 0-6.037.335-9.146.48-2.534.114-5.063.15-7.597.15-4.722 0-9.455-.129-14.146-.129M292.437 217.866c-4.029-.437-7.568-.911-11.412-.911-.726 0-1.46.021-2.222.062-2.329.113-4.649.367-6.984.573h.005a.507.507 0 0 1-.553-.463.5.5 0 0 1 .457-.55c2.32-.2 4.65-.458 7.029-.578a44.934 44.934 0 0 1 2.268-.057c3.93 0 7.514.481 11.521.911 2.801.304 5.539.725 8.254.721.748 0 1.481-.032 2.225-.099 2.838-.278 5.693-.74 8.557-.855a.507.507 0 1 1 .041 1.015c-2.784.106-5.62.566-8.498.847-.78.077-1.545.11-2.325.11-2.814-.003-5.59-.431-8.363-.726M292.441 221.465c-4.024-.438-7.565-.906-11.395-.906-.734 0-1.472.017-2.243.056-4.089.195-8.136.839-12.288.852a.508.508 0 0 1-.512-.505.505.505 0 0 1 .508-.515c4.043-.009 8.082-.641 12.246-.849a45.706 45.706 0 0 1 2.289-.059c3.916 0 7.502.482 11.504.913 2.807.306 5.549.725 8.264.725.738 0 1.473-.036 2.211-.104 2.838-.276 5.693-.741 8.557-.85a.505.505 0 0 1 .041 1.008c-2.784.112-5.62.57-8.498.853-.77.077-1.545.106-2.311.106-2.824 0-5.598-.43-8.373-.725M292.447 225.063c-4.03-.437-7.574-.906-11.405-.906-.734 0-1.477.016-2.234.057-4.094.202-8.141.839-12.293.854a.507.507 0 0 1-.507-.508.5.5 0 0 1 .507-.509c4.039-.014 8.078-.642 12.242-.855a49.457 49.457 0 0 1 2.285-.054c3.916 0 7.502.478 11.512.909 2.803.303 5.531.72 8.246.72.748 0 1.487-.032 2.229-.104 2.834-.272 5.693-.736 8.553-.848a.506.506 0 0 1 .041 1.011c-2.778.111-5.616.569-8.495.851-.783.076-1.558.106-2.328.106-2.814 0-5.584-.424-8.353-.724M266.008 228.159a.507.507 0 0 1 .507-.512c4.043-.011 8.082-.643 12.242-.856a52.003 52.003 0 0 1 2.272-.053c3.926 0 7.515.481 11.525.911a.51.51 0 0 1-.107 1.013c-4.03-.435-7.574-.908-11.418-.908-.725 0-1.464.017-2.217.056-4.098.2-8.145.841-12.291.857h-.006a.507.507 0 0 1-.507-.508M292.447 232.261c-4.03-.437-7.578-.909-11.422-.909-.726 0-1.46.018-2.213.057-4.088.199-8.145.838-12.291.852a.504.504 0 0 1-.513-.503.51.51 0 0 1 .507-.512c4.043-.012 8.086-.644 12.242-.856a50.144 50.144 0 0 1 2.268-.055c3.93 0 7.519.482 11.529.913 2.807.304 5.553.721 8.278.721.734 0 1.468-.032 2.197-.105 2.842-.271 5.697-.734 8.558-.845a.5.5 0 0 1 .526.488.515.515 0 0 1-.485.527c-2.783.1-5.617.563-8.5.844-.773.077-1.535.106-2.296.106-2.834 0-5.608-.428-8.385-.723M292.451 235.86c-4.03-.437-7.565-.907-11.395-.907-.734 0-1.477.019-2.244.057-4.088.197-8.141.837-12.291.854a.516.516 0 0 1-.513-.51c0-.281.232-.511.513-.511 4.043-.01 8.08-.644 12.246-.851a46.835 46.835 0 0 1 2.289-.057c3.912 0 7.492.481 11.504.912 2.801.303 5.543.72 8.258.72.744 0 1.476-.031 2.211-.103 2.842-.28 5.697-.739 8.558-.848a.503.503 0 0 1 .526.489.503.503 0 0 1-.485.522c-2.779.106-5.617.568-8.5.849-.773.078-1.541.107-2.31.107-2.824 0-5.594-.431-8.367-.723zM292.451 239.459c-4.026-.433-7.565-.906-11.395-.906-.734 0-1.477.017-2.244.056-4.088.2-8.141.834-12.287.852a.512.512 0 0 1-.512-.505c0-.283.227-.513.508-.515 4.043-.008 8.08-.641 12.246-.849a45.731 45.731 0 0 1 2.289-.057c3.92 0 7.496.481 11.504.91 2.801.304 5.533.721 8.244.721.748 0 1.487-.031 2.231-.107 2.836-.269 5.691-.736 8.552-.847a.512.512 0 0 1 .53.487.513.513 0 0 1-.489.528c-2.779.105-5.617.57-8.5.848-.773.077-1.548.107-2.324.107-2.814 0-5.584-.429-8.353-.723M292.451 243.056c-4.03-.436-7.578-.91-11.412-.91-.727 0-1.465.014-2.227.059-4.088.197-8.141.841-12.291.854h.004a.507.507 0 0 1-.004-1.014c4.043-.014 8.08-.647 12.246-.858a46.103 46.103 0 0 1 2.272-.056c3.923 0 7.509.483 11.521.914 2.801.306 5.543.721 8.254.721.742 0 1.486-.033 2.225-.101 2.837-.276 5.693-.743 8.548-.854a.503.503 0 0 1 .53.485.505.505 0 0 1-.485.528c-2.779.111-5.615.568-8.494.85-.783.077-1.551.106-2.324.106-2.82 0-5.59-.424-8.363-.724M292.451 246.651c-4.03-.432-7.569-.906-11.405-.906-.734 0-1.467.021-2.234.062-4.088.197-8.141.838-12.287.849a.507.507 0 0 1-.508-.51.5.5 0 0 1 .504-.507c4.047-.009 8.08-.642 12.246-.855a51.902 51.902 0 0 1 2.279-.052c3.916 0 7.502.479 11.514.911 2.805.304 5.547.721 8.272.718.734 0 1.468-.031 2.21-.096 2.834-.277 5.69-.745 8.553-.853a.505.505 0 0 1 .522.489.508.508 0 0 1-.485.529c-2.773.099-5.615.562-8.494.842-.775.074-1.545.107-2.306.107-2.829 0-5.602-.428-8.381-.728"/><path d="M287.773 189.377c.435-.775 2.746-1.507-1.057-3.15-4.05-1.748-3.511 1.582-3.789 2.072-2.288 4.038-3.951 7.585-5.044 9.719-.907.069-6.059-2.359-7.003-1.763-1.314.834-1.849 1.836-.861 2.967.535.602 1.246-.098 1.714.045.421.14 3.417.9 4.968 2.022l-37.579 69.539c-4.057 7.055-9.46 17.228-8.345 18.125.766.207 6.636-9.656 10.452-16.845l39.573-69.412c1.192.306 3.559 1.04 3.807 1.208.4.279.432 1.631 1.256 1.482 1.482-.229 1.74-1.602 1.572-3.148-.107-1.067-3.603-1.757-4.69-2.495.094-.474 5.026-10.366 5.026-10.366M160.964 362.728c-7.57-.004-13.204-.833-17.21-2.534-3.087-1.296-5.19-3.167-6.254-5.561V301.65c2.714 3.695 10.723 9.374 23.343 9.373h.113c7.724-.161 16.616-2.415 26.912-5.024 17.294-4.383 38.817-9.837 68.957-9.844 30.139.007 51.661 5.461 68.954 9.843 10.297 2.61 19.19 4.864 26.907 5.025h.121c12.628 0 20.631-5.674 23.343-9.37v52.979c-1.069 2.397-3.17 4.268-6.246 5.561-4.012 1.701-9.646 2.531-17.224 2.535-8.066-.202-17.04-2.25-27.431-4.622-17.121-3.907-38.426-8.769-68.402-8.769-30.016 0-51.323 4.862-68.444 8.769-10.394 2.372-19.371 4.421-27.439 4.622" fill="#002950"/><path d="M256.825 295.655c-48.783.011-75.764 14.447-95.871 14.868h-.111c-14.74 0-23.165-7.778-23.843-10.902v55.116c.934 2.168 2.86 4.364 6.559 5.917 3.698 1.57 9.16 2.57 17.418 2.574 21.149-.528 47.278-13.39 95.826-13.391h.044c48.554 0 74.677 12.863 95.826 13.391 8.258-.004 13.721-1.004 17.424-2.574 3.694-1.553 5.615-3.749 6.553-5.917v-55.116c-.672 3.124-9.105 10.902-23.843 10.902h-.11c-20.112-.421-47.088-14.857-95.872-14.868zm0 1c30.077.007 51.565 5.452 68.831 9.828 10.327 2.617 19.245 4.877 27.038 5.04h.113c11.752 0 19.434-4.704 22.843-8.46v51.461c-1.029 2.232-3.026 3.984-5.943 5.209-3.949 1.675-9.521 2.491-17.008 2.495-8.018-.2-16.972-2.243-27.339-4.609-17.145-3.913-38.482-8.782-68.557-8.782-30.028.001-51.365 4.87-68.51 8.782-10.369 2.366-19.324 4.409-27.315 4.609-7.516-.004-13.085-.82-17.032-2.496-2.923-1.226-4.922-2.978-5.946-5.207v-51.466c3.411 3.756 11.098 8.464 22.843 8.464h.132c7.772-.163 16.69-2.423 27.015-5.04 17.267-4.375 38.757-9.821 68.835-9.828z" fill="#002A50"/><path d="M183.055 343.652l-.123.191-.607.104c-1.46.232-2.371.383-2.729.458-.539.109-1.386.306-2.552.603-.09-.243-.38-.628-.852-1.147l-5.235-5.788-2.288-2.33c-.286-.283-.667-.544-1.129-.779l.068-.574c.245-.038.426-.068.544-.092 1.033-.209 1.813-.529 2.343-.975.481-.403.875-1.019 1.183-1.849.308-.83.358-1.761.154-2.788-.349-1.781-1.26-2.855-2.71-3.215-.694-.17-1.65-.136-2.865.106a9.43 9.43 0 0 0-1.5.426c.099 1.058.399 2.838.893 5.33l1.645 8.288c.499 2.52.893 4.143 1.179 4.879.117.297.331.453.657.48.167.01.793-.058 1.885-.208l.191.127.208 1.061-.108.187c-1.07.146-2.706.436-4.905.871-2.275.451-3.893.804-4.863 1.065l-.186-.113-.213-1.077.122-.19c1.07-.276 1.677-.453 1.827-.525.29-.146.431-.379.422-.697-.014-.786-.272-2.438-.766-4.956l-1.664-8.387c-.498-2.513-.893-4.141-1.178-4.873-.114-.296-.331-.458-.657-.48-.168-.012-.794.059-1.886.208l-.191-.127-.213-1.078.132-.175c1.042-.142 2.679-.434 4.9-.87a89.346 89.346 0 0 0 3.132-.671c1.581-.381 2.769-.65 3.567-.805 1.826-.364 3.2-.463 4.124-.31 1.237.218 2.158.818 2.756 1.795.294.478.512 1.077.653 1.784.571 2.876-.639 5.237-3.64 7.082a92.224 92.224 0 0 0 2.216 2.363l3.187 3.273c1.876 1.935 3.082 3.011 3.621 3.22.272.111.625.125 1.061.035l.19.129.2 1.014M201.488 328.101c-.648-3.052-1.772-5.35-3.381-6.893-1.609-1.534-3.599-2.054-5.969-1.553-3.132.664-4.913 2.507-5.34 5.543-.222 1.553-.14 3.23.236 5.018.689 3.261 1.836 5.704 3.436 7.336 1.654 1.69 3.721 2.275 6.2 1.75 3.005-.635 4.709-2.543 5.117-5.727.218-1.685.118-3.511-.299-5.474zm4.701-1.851c.82 3.891.331 7.184-1.464 9.877-1.75 2.617-4.533 4.326-8.349 5.133-3.608.765-6.654.35-9.138-1.249-2.488-1.591-4.106-4.195-4.872-7.812-1.074-5.069.113-8.99 3.572-11.762 1.577-1.255 3.648-2.16 6.222-2.701 3.676-.78 6.745-.422 9.197 1.074 2.493 1.523 4.106 4.002 4.832 7.44zM227.183 327.875c.245 1.757-.05 3.382-.87 4.863-.716 1.304-1.75 2.339-3.091 3.108-1.229.707-2.747 1.187-4.551 1.429-2.239.302-4.51.089-6.803-.645l-.245-.329c.136-1.269.05-3.033-.259-5.296l.141-.184 1.024-.139.168.141.05.374c.082.592.249 1.374.512 2.339.476.633 1.242 1.129 2.303 1.484a7.296 7.296 0 0 0 3.34.333c2.112-.285 3.476-1.221 4.088-2.802.313-.819.417-1.628.308-2.439-.181-1.367-.888-2.268-2.107-2.702-.607-.21-1.555-.33-2.842-.351-2.905-.054-4.859-.349-5.842-.893-1.491-.82-2.38-2.279-2.665-4.383-.295-2.191.203-4.036 1.504-5.534 1.374-1.578 3.449-2.558 6.228-2.931 2.497-.338 4.569-.211 6.219.383l.163.369c-.086 1.305-.037 2.853.154 4.643l-.159.183-1.006.138-.181-.138c-.204-1.278-.372-2.105-.499-2.477-.399-.46-1.033-.807-1.904-1.049a7.137 7.137 0 0 0-2.814-.175c-1.432.193-2.511.726-3.241 1.594-.684.82-.947 1.799-.793 2.933.163 1.23.73 2.071 1.695 2.528.626.293 2.035.47 4.224.521.232 0 .875.023 1.922.066.644.02 1.247.095 1.809.229 1.133.258 2.03.771 2.688 1.53.707.83 1.155 1.921 1.332 3.279M249.768 328.51c-.154 1.584-.177 3.365-.068 5.345l-.154.17-11.739.535c-1.958.109-3.34.213-4.142.323l-.168-.155-.027-.451.072-.197c.77-.549 1.183-.889 1.237-1.023.091-.209.109-.926.064-2.154l-.145-3.617-.445-8.186c-.135-2.561-.298-4.224-.48-4.994a.706.706 0 0 0-.58-.566c-.163-.029-.797-.05-1.899-.059l-.168-.152-.059-1.095.154-.158c1.088.007 2.77-.05 5.041-.175 2.021-.106 5.869-.346 11.535-.719l.185.122-.117 1.8c-.028.575-.055 1.066-.064 1.46l-.031 1.506-.155.189-.933.051-.173-.151c-.09-1.463-.222-2.293-.394-2.487-.122-.148-.707-.234-1.754-.264a33.66 33.66 0 0 0-2.737.019c-.939.051-1.886.138-2.842.264-.055 1.14-.028 2.705.081 4.706l.181 3.343c.848.005 1.537-.004 2.067-.031l2.117-.132c.983-.062 1.541-.175 1.663-.333.164-.202.24-.936.222-2.196l.15-.17 1.002-.054.172.151c.022 1.208.059 2.314.113 3.314.059 1.085.145 2.275.259 3.564l-.155.153-1.083.056-.168-.149c-.068-1.24-.195-1.968-.376-2.188-.186-.224-.716-.351-1.59-.376a26.868 26.868 0 0 0-2.104.03c-.784.043-1.514.108-2.193.204l.267 4.918c.077 1.409.177 2.775.304 4.097l2.193-.121c3.141-.167 5.059-.393 5.757-.683a.488.488 0 0 0 .249-.194c.104-.154.186-.48.254-.981l.281-2.021.154-.188.984-.05.185.15M267.39 316.643c.065-2.38-1.146-3.602-3.621-3.666-.82-.019-1.514.005-2.09.074a77.924 77.924 0 0 0-.144 3.131l-.114 4.461c.241.032.739.052 1.483.073 1.949.049 3.244-.539 3.892-1.777a5.11 5.11 0 0 0 .594-2.296zm.418 10.747c.081-3.229-1.568-4.888-4.963-4.981-.431-.01-.926-.005-1.473.014l-.195 7.48a40.88 40.88 0 0 0 0 2.375c.44.089 1.061.143 1.858.166 1.505.038 2.683-.408 3.526-1.333.788-.884 1.206-2.126 1.247-3.721zm4.958-.372c-.073 2.706-1.436 4.766-4.093 6.183-1.31.697-2.986 1.022-5.021.97a65.943 65.943 0 0 1-1.601-.055l-3.862-.185c-1.377-.037-2.442-.033-3.199.013l-.155-.166.01-.45.086-.19c.811-.488 1.251-.794 1.314-.92.105-.191.186-.908.24-2.149l.141-3.619.213-8.186c.068-2.566.041-4.235-.077-5.016-.045-.314-.227-.517-.539-.614-.155-.043-.789-.114-1.886-.209l-.154-.165.032-1.1.158-.141c.961.087 2.606.163 4.945.223 1.486.041 2.828.05 4.029.027.947-.02 1.75-.02 2.403-.003 3.009.078 4.962.815 5.865 2.204.476.739.703 1.571.679 2.507-.044 1.533-.669 2.792-1.894 3.785-.584.469-1.188.816-1.809 1.034-.716.253-1.495.464-2.342.636 4.432.308 6.603 2.175 6.517 5.586zM289.804 327.211l-2.474-8.809-4.252 8.038c.875.134 2.017.282 3.418.438 1.359.154 2.461.265 3.308.333zm9.201 9.802l-.164.142c-2.371-.335-3.802-.53-4.297-.587a143.16 143.16 0 0 0-5.502-.53l-.126-.179.117-1.009.181-.161 1.411.079c.587.038.906-.139.947-.523.027-.224-.065-.745-.278-1.563l-.91-3.536a264.917 264.917 0 0 0-8.258-.94l-.929 1.881c-.703 1.423-1.079 2.325-1.119 2.697-.046.41.175.68.67.809.271.075.816.181 1.623.317l.144.179-.117 1.027-.182.14c-1.971-.285-3.24-.464-3.806-.531a154.42 154.42 0 0 0-3.274-.273l-.144-.166.122-1.04.19-.143c1.112.064 1.813-.077 2.108-.425.291-.345 1.496-2.471 3.599-6.373l5.389-10.013c.404-.777 1.016-1.947 1.832-3.509l2.283.254 6.223 20.998c.25.8.494 1.262.754 1.387.34.17.838.292 1.504.369l.127.192-.118 1.03zM329.794 321.335l-.209.12c-1.091-.159-1.718-.227-1.884-.22-.323.023-.541.179-.659.476-.289.732-.697 2.354-1.21 4.868l-1.313 6.432c-.971 4.74-1.537 7.84-1.691 9.302l-.231.102a85.253 85.253 0 0 0-2.625-.979c-2.18-3.761-5.824-10.545-10.931-20.357l-2.124 10.356c-.511 2.513-.779 4.164-.792 4.952-.014.317.126.55.417.7.149.075.752.252 1.823.537l.121.188-.221 1.079-.185.111a64.35 64.35 0 0 0-3.37-.79 69.547 69.547 0 0 0-3.679-.651l-.127-.179.217-1.076.191-.123c1.092.154 1.717.229 1.891.22.32-.023.539-.181.656-.476.291-.735.693-2.352 1.211-4.868l1.713-8.378c.511-2.513.779-4.164.797-4.952.009-.315-.131-.547-.422-.698-.149-.075-.752-.254-1.817-.537l-.127-.186.223-1.079.186-.113c.988.272 1.939.498 2.845.685 1.428.29 2.615.503 3.567.63 2.761 5.846 6.119 12.192 10.062 19.036l1.901-9.267c.515-2.513.779-4.163.796-4.951.01-.316-.127-.547-.421-.696-.149-.073-.752-.251-1.823-.535l-.121-.193.221-1.074.187-.111a67.62 67.62 0 0 0 3.354.787c1.363.278 2.592.496 3.693.652l.127.18-.217 1.076M351.605 348.119l-.188.127a121.176 121.176 0 0 0-3.576-.824 75.217 75.217 0 0 0-2.822-.474c-.137-.578-.531-1.433-1.184-2.563l-3.611-6.326a30.042 30.042 0 0 0-2.662-3.871l-.766 3.77c-.511 2.516-.769 4.167-.789 4.954-.007.314.127.548.422.695.151.075.752.254 1.819.531l.127.192-.213 1.063-.178.129c-1.043-.279-2.66-.641-4.859-1.086-2.276-.46-3.903-.754-4.899-.892l-.133-.179.219-1.072.189-.125c1.094.154 1.719.224 1.891.216.322-.026.539-.184.658-.479.289-.731.688-2.354 1.201-4.867l1.7-8.384c.507-2.513.769-4.163.789-4.949.008-.317-.133-.551-.428-.698-.145-.075-.752-.249-1.812-.531l-.131-.192.216-1.078.192-.109c.996.269 2.619.629 4.857 1.081 2.295.468 3.926.765 4.901.895l.113.174-.223 1.091-.185.113c-1.092-.156-1.723-.229-1.885-.218-.322.021-.545.182-.658.476-.295.732-.694 2.357-1.201 4.868l-.797 3.93c2.347-1.437 4.039-2.511 5.072-3.225l2.723-1.875c.933-.645 2.148-1.545 3.631-2.694l.222-1.095.203-.12c.803.229 1.592.42 2.375.581.92.183 2.004.371 3.25.557l.133.193-.205.98-.189.13c-1.229-.252-2.176-.24-2.842.03-.971.401-2.879 1.486-5.725 3.263l-3.816 2.391c.326.705.883 1.756 1.668 3.157l2.709 4.84c2.013 3.588 3.205 5.512 3.576 5.788.236.168.635.317 1.215.444l.123.206-.217 1.061" fill="#FFF"/></g></svg>