<?xml version="1.0" encoding="utf-8"?>
<!-- Generator: Adobe Illustrator 18.1.1, SVG Export Plug-In . SVG Version: 6.00 Build 0)  -->
<svg version="1.1" id="Layer_1" xmlns="http://www.w3.org/2000/svg" xmlns:xlink="http://www.w3.org/1999/xlink" x="0px" y="0px"
   viewBox="0 0 126.7 112.3" style="enable-background:new 0 0 126.7 112.3;" xml:space="preserve">
<g>
  <g>
    <path style="fill:#CB9932;" d="M100.3,45.6l-0.2-0.1l-6.3-6.3C93.1,38.4,92.1,38,91,38c-1,0-2,0.4-2.8,1.1l-15,15
      c-1.5,1.5-1.5,4,0,5.5l19.2,19.2c0.7,0.7,1.7,1.1,2.8,1.1c1,0,2-0.4,2.8-1.1l15-15c0.7-0.7,1.1-1.7,1.1-2.8c0-1-0.4-2-1.1-2.8
      l-7.7-7.7L106,50c1-1,2.5-4.4,3.6-6.9c-2.6,1.6-6.4,2.7-8.1,2.7C101,45.7,100.6,45.7,100.3,45.6z"/>
    <path style="fill:#CB9932;" d="M81.2,81.1l-15-15c-0.7-0.7-1.7-1.1-2.8-1.1s-2,0.4-2.8,1.1L41.6,85.3c-1.5,1.5-1.5,4,0,5.5l15,15
      c0.7,0.7,1.7,1.1,2.8,1.1c1,0,2-0.4,2.8-1.1l7.7-7.7l0.7,0.7c1,1,4.4,2.5,6.9,3.6c-0.7-1.2-1.3-2.5-1.5-3.2c-0.3-0.7-1.6-4.4-1-6
      l0.1-0.2l6.3-6.3C82.7,85.1,82.7,82.6,81.2,81.1z"/>
    <path style="fill:#CB9932;" d="M46.4,32.1l15,15c0.7,0.7,1.7,1.1,2.8,1.1c1,0,2-0.4,2.8-1.1L86,27.9c1.5-1.5,1.5-4,0-5.5l-15-15
      c-0.7-0.7-1.7-1.1-2.8-1.1c-1,0-2,0.4-2.8,1.1l-7.7,7.7l-0.7-0.7c-1-1-4.4-2.5-6.9-3.6c0.7,1.2,1.3,2.5,1.5,3.2
      c0.3,0.7,1.6,4.4,1,6l-0.1,0.2l-6.3,6.3c-0.7,0.7-1.1,1.7-1.1,2.8C45.2,30.4,45.6,31.3,46.4,32.1z"/>
    <path style="fill:#CB9932;" d="M27.2,67.6l0.2,0.1l6.3,6.3c0.7,0.7,1.7,1.1,2.8,1.1c1,0,2-0.4,2.8-1.1l15-15
      c0.7-0.7,1.1-1.7,1.1-2.8c0-1-0.4-2-1.1-2.8L35.1,34.4c-0.7-0.7-1.7-1.1-2.8-1.1c-1,0-2,0.4-2.8,1.1l-15,15
      c-0.7,0.7-1.1,1.7-1.1,2.8c0,1,0.4,2,1.1,2.8l7.7,7.7l-0.7,0.7c-1,1-2.5,4.4-3.6,6.9c2.6-1.6,6.4-2.7,8.1-2.7
      C26.6,67.5,27,67.5,27.2,67.6z"/>
  </g>
  <path style="fill:#FFFFFF;" d="M114.3,57l-6.4-6.4c1-1.4,2.1-3.8,2.7-5.3c2-4.7,1.8-5.2,1.7-5.5c-0.1-0.4-0.5-0.6-0.9-0.6
    c-0.6,0-0.9,0.5-1.1,0.8c-1,1.7-6.5,3.9-8.9,3.9c-0.1,0-0.2,0-0.2,0l-6-6c-1.1-1.1-2.5-1.7-4.1-1.7c-1.2,0-2.4,0.4-3.4,1.1
    l-4.2-4.2l3.9-3.9c2.3-2.3,2.3-5.9,0-8.2l-15-15c-1.1-1.1-2.5-1.7-4.1-1.7c-1.5,0-3,0.6-4.1,1.7l-6.4,6.4C55.1,10.6,48.5,8,47.4,8
    c-0.6,0-0.9,0.4-1,0.7c-0.2,0.7,0.5,1.2,0.8,1.3c2,1.2,4.1,7.6,3.9,9.2l-6,6c-1.1,1.1-1.7,2.5-1.7,4.1c0,1.2,0.4,2.4,1.1,3.3
    l-4.2,4.2L36.4,33c-1.1-1.1-2.5-1.7-4.1-1.7c-1.5,0-3,0.6-4.1,1.7l-15,15c-2.3,2.3-2.3,5.9,0,8.2l6.4,6.4c-1,1.4-2.1,3.8-2.7,5.3
    c-2,4.7-1.8,5.2-1.7,5.5c0.1,0.4,0.5,0.6,0.9,0.6c0.6,0,0.9-0.5,1.1-0.8c1-1.7,6.5-3.9,8.9-3.9c0.1,0,0.2,0,0.2,0l6,6
    c1.1,1.1,2.5,1.7,4.1,1.7c0.9,0,1.8-0.2,2.6-0.6l4.3,4.3L40.2,84c-2.3,2.3-2.3,5.9,0,8.2l15,15c1.1,1.1,2.5,1.7,4.1,1.7
    c1.5,0,3-0.6,4.1-1.7l6.4-6.4c2.6,1.9,9.2,4.5,10.4,4.5h0c0.6,0,0.9-0.4,1-0.7c0.2-0.7-0.5-1.2-0.8-1.3c-2-1.2-4.1-7.6-3.9-9.2l6-6
    c1.8-1.8,2.2-4.6,1-6.7l4.3-4.3l3.3,3.3c1.1,1.1,2.5,1.7,4.1,1.7c1.5,0,3-0.6,4.1-1.7l15-15c1.1-1.1,1.7-2.5,1.7-4.1
    C116,59.6,115.4,58.1,114.3,57z M46.4,26.6l6.3-6.3l0.1-0.2c0.6-1.6-0.7-5.3-1-6c-0.3-0.7-0.8-2-1.5-3.2c2.6,1,6,2.6,6.9,3.6
    l0.7,0.7l7.7-7.7c0.7-0.7,1.7-1.1,2.8-1.1c1,0,2,0.4,2.8,1.1l15,15c1.5,1.5,1.5,4,0,5.5L66.8,47c-0.7,0.7-1.7,1.1-2.8,1.1
    c-1,0-2-0.4-2.8-1.1l-15-15c-0.7-0.7-1.1-1.7-1.1-2.8C45.2,28.3,45.6,27.3,46.4,26.6z M36.5,75.2c-1,0-2-0.4-2.8-1.1l-6.3-6.3
    l-0.2-0.1c-0.3-0.1-0.6-0.2-1-0.2c-1.8,0-5.5,1.1-8.1,2.7c1-2.6,2.6-6,3.6-6.9l0.7-0.7l-7.7-7.7c-0.7-0.7-1.1-1.7-1.1-2.8
    c0-1,0.4-2,1.1-2.8l15-15c0.7-0.7,1.7-1.1,2.8-1.1c1,0,2,0.4,2.8,1.1l19.2,19.2c0.7,0.7,1.1,1.7,1.1,2.8c0,1-0.4,2-1.1,2.8l-15,15
    C38.5,74.8,37.6,75.2,36.5,75.2z M81.2,86.6l-6.3,6.3l-0.1,0.2c-0.6,1.6,0.7,5.3,1,6c0.3,0.7,0.8,2,1.5,3.2c-2.6-1-6-2.6-6.9-3.6
    l-0.7-0.7l-7.7,7.7c-0.7,0.7-1.7,1.1-2.8,1.1c-1,0-2-0.4-2.8-1.1l-15-15c-1.5-1.5-1.5-4,0-5.5l19.2-19.2c0.7-0.7,1.7-1.1,2.8-1.1
    s2,0.4,2.8,1.1l15,15C82.7,82.6,82.7,85.1,81.2,86.6z M85.5,76.1L83,78.6c-0.4,0.4-1.1,0.4-1.5,0.1l0,0L67.6,64.8
    c-1.1-1.1-2.5-1.7-4.1-1.7c-1.5,0-3,0.6-4.1,1.7L45.7,78.5l0,0c-0.4,0.3-0.9,0.3-1.3,0.1l-2.9-2.9c-0.3-0.4-0.2-0.9,0.1-1.3l14-14
    c1.1-1.1,1.7-2.5,1.7-4.1c0-1.5-0.6-3-1.7-4.1L42.5,39.2l0,0c-0.3-0.5-0.3-1.1,0.1-1.5l2.5-2.5c0.4-0.4,1.1-0.4,1.5-0.1l0,0
    L60,48.4c1.1,1.1,2.5,1.7,4.1,1.7s3-0.6,4.1-1.7l13-13c0.5-0.3,1.1-0.3,1.5,0.1l2.5,2.5c0.4,0.4,0.4,1.1,0.1,1.5l0,0L72,52.8
    c-2.3,2.3-2.3,5.9,0,8.2l13.6,13.6l0,0C85.9,75,85.9,75.7,85.5,76.1z M113,63.9l-15,15c-0.7,0.7-1.7,1.1-2.8,1.1
    c-1,0-2-0.4-2.8-1.1L73.3,59.6c-1.5-1.5-1.5-4,0-5.5l15-15C89,38.4,90,38,91,38c1,0,2,0.4,2.8,1.1l6.3,6.3l0.2,0.1
    c0.3,0.1,0.6,0.2,1,0.2c1.8,0,5.5-1.1,8.1-2.7c-1,2.6-2.6,6-3.6,6.9l-0.7,0.7l7.7,7.7c0.7,0.7,1.1,1.7,1.1,2.8
    C114.1,62.1,113.7,63.1,113,63.9z"/>
  <path style="fill:#203C88;" d="M67.6,64.8l13.9,13.9l0,0c0.5,0.3,1.1,0.3,1.5-0.1l2.5-2.5c0.4-0.4,0.4-1.1,0.1-1.5l0,0L72,61
    c-2.3-2.3-2.3-5.9,0-8.2l13.3-13.3l0,0c0.3-0.5,0.3-1.1-0.1-1.5l-2.5-2.5c-0.4-0.4-1.1-0.4-1.5-0.1l-13,13
    c-1.1,1.1-2.5,1.7-4.1,1.7c-1.5,0-3-0.6-4.1-1.7L46.7,35l0,0c-0.5-0.3-1.1-0.3-1.5,0.1l-2.5,2.5c-0.4,0.4-0.4,1.1-0.1,1.5l0,0
    l13.1,13.1c1.1,1.1,1.7,2.5,1.7,4.1c0,1.5-0.6,3-1.7,4.1l-14,14c-0.3,0.4-0.3,0.9-0.1,1.3l2.9,2.9c0.4,0.3,0.9,0.2,1.3-0.1l0,0
    l13.7-13.7c1.1-1.1,2.5-1.7,4.1-1.7C65,63.1,66.5,63.7,67.6,64.8z"/>
</g>
</svg>
