<?xml version="1.0" encoding="utf-8"?>
<!-- Generator: Adobe Illustrator 19.0.0, SVG Export Plug-In . SVG Version: 6.00 Build 0)  -->
<svg version="1.1" id="Layer_1" xmlns="http://www.w3.org/2000/svg" xmlns:xlink="http://www.w3.org/1999/xlink" x="0px" y="0px"
   viewBox="0 0 269 191" style="enable-background:new 0 0 269 191;" xml:space="preserve">
<style type="text/css">
  .st0{fill:#CC9932;}
  .st1{fill:#FFFFFF;}
  .st2{fill:#203C89;}
</style>
<g>
  <g>
    <path class="st0" d="M167.5,76.9l-0.3-0.1l-10.7-10.7c-1.2-1.2-2.9-1.9-4.7-1.9c-1.8,0-3.4,0.7-4.7,1.9l-25.3,25.3
      c-2.6,2.6-2.6,6.8,0,9.3l32.4,32.4c1.2,1.2,2.9,1.9,4.7,1.9c1.8,0,3.4-0.7,4.7-1.9l25.3-25.3c1.2-1.2,1.9-2.9,1.9-4.7
      c0-1.8-0.7-3.4-1.9-4.7l-13-13l1.1-1.1c1.6-1.6,4.3-7.4,6-11.7c-4.4,2.6-10.8,4.5-13.7,4.5C168.6,77.1,168,77.1,167.5,76.9z"/>
    <path class="st0" d="M135.3,136.9L110,111.6c-1.2-1.2-2.9-1.9-4.7-1.9s-3.4,0.7-4.7,1.9L68.3,144c-2.6,2.6-2.6,6.8,0,9.3
      l25.3,25.3c1.2,1.2,2.9,1.9,4.7,1.9c1.8,0,3.4-0.7,4.7-1.9l13-13l1.1,1.1c1.6,1.6,7.4,4.3,11.7,6c-1.2-2-2.1-4.2-2.6-5.4
      c-0.5-1.2-2.7-7.4-1.7-10.1l0.1-0.3l10.7-10.7C137.8,143.6,137.8,139.5,135.3,136.9z"/>
    <path class="st0" d="M76.4,54.1l25.3,25.3c1.2,1.2,2.9,1.9,4.7,1.9c1.8,0,3.4-0.7,4.7-1.9L143.4,47c2.6-2.6,2.6-6.8,0-9.3
      l-25.3-25.3c-1.2-1.2-2.9-1.9-4.7-1.9c-1.8,0-3.4,0.7-4.7,1.9l-13,13l-1.1-1.1c-1.6-1.6-7.4-4.3-11.7-6c1.2,2,2.1,4.2,2.6,5.4
      c0.5,1.2,2.7,7.4,1.7,10.1l-0.1,0.3L76.4,44.8c-1.2,1.2-1.9,2.9-1.9,4.7C74.4,51.2,75.1,52.9,76.4,54.1z"/>
    <path class="st0" d="M44.1,114.1l0.3,0.1l10.7,10.7c1.2,1.2,2.9,1.9,4.7,1.9c1.8,0,3.4-0.7,4.7-1.9l25.3-25.3
      c1.2-1.2,1.9-2.9,1.9-4.7c0-1.8-0.7-3.4-1.9-4.7L57.3,57.9C56,56.7,54.4,56,52.6,56c-1.8,0-3.4,0.7-4.7,1.9L22.7,83.2
      c-1.2,1.2-1.9,2.9-1.9,4.7c0,1.8,0.7,3.4,1.9,4.7l13,13l-1.1,1.1c-1.6,1.6-4.3,7.4-6,11.7c4.4-2.6,10.8-4.5,13.8-4.5
      C43,113.9,43.6,113.9,44.1,114.1z"/>
  </g>
  <path class="st1" d="M191.2,96.2l-10.9-10.9c1.7-2.4,3.6-6.5,4.6-9c3.4-7.9,3-8.8,2.8-9.3c-0.3-0.6-0.8-1-1.5-1
    c-1,0-1.5,0.8-1.8,1.3c-1.7,2.8-11,6.6-15.1,6.6c-0.2,0-0.3,0-0.4,0l-10.1-10.1c-1.8-1.8-4.3-2.9-6.9-2.9c-2.1,0-4.1,0.7-5.8,1.9
    l-7.1-7.1l6.6-6.6c3.8-3.8,3.8-10,0-13.8l-25.3-25.3c-1.8-1.8-4.3-2.9-6.9-2.9c-2.6,0-5.1,1-6.9,2.9L95.6,21
    c-4.5-3.2-15.6-7.6-17.5-7.6c-1,0-1.5,0.6-1.7,1.2c-0.4,1.3,0.8,2,1.3,2.3c3.4,2.1,6.9,12.9,6.6,15.5L74.1,42.6
    c-1.8,1.8-2.9,4.3-2.9,6.9c0,2.1,0.6,4,1.8,5.6L66,62.2l-6.5-6.5c-1.8-1.8-4.3-2.9-6.9-2.9c-2.6,0-5.1,1-6.9,2.9L20.5,81
    c-3.8,3.8-3.8,10,0,13.8l10.9,10.9c-1.7,2.4-3.6,6.5-4.6,9c-3.4,7.9-3,8.8-2.8,9.3c0.3,0.6,0.8,1,1.5,1c1,0,1.5-0.8,1.8-1.3
    c1.7-2.8,11-6.6,15.1-6.6c0.2,0,0.3,0,0.4,0l10.1,10.1c1.8,1.8,4.3,2.9,6.9,2.9c1.5,0,3-0.4,4.3-1l7.3,7.3l-5.4,5.4
    c-3.8,3.8-3.8,10,0,13.8l25.3,25.3c1.8,1.8,4.3,2.9,6.9,2.9c2.6,0,5.1-1,6.9-2.9L116,170c4.5,3.2,15.6,7.6,17.5,7.6h0
    c1,0,1.5-0.6,1.7-1.2c0.4-1.3-0.8-2-1.3-2.3c-3.4-2.1-6.9-12.9-6.6-15.5l10.2-10.2c3.1-3.1,3.7-7.7,1.8-11.4l7.3-7.3l5.5,5.5
    c1.8,1.8,4.3,2.9,6.9,2.9c2.6,0,5.1-1,6.9-2.9l25.3-25.3c1.8-1.8,2.9-4.3,2.9-6.9C194,100.5,193,98.1,191.2,96.2z M76.4,44.8
    l10.7-10.7l0.1-0.3c1-2.7-1.2-8.9-1.7-10.1c-0.5-1.2-1.4-3.4-2.6-5.4c4.3,1.7,10.1,4.4,11.7,6l1.1,1.1l13-13
    c1.2-1.2,2.9-1.9,4.7-1.9c1.8,0,3.4,0.7,4.7,1.9l25.3,25.3c2.6,2.6,2.6,6.8,0,9.3L111,79.4c-1.2,1.2-2.9,1.9-4.7,1.9
    c-1.8,0-3.4-0.7-4.7-1.9L76.4,54.1c-1.2-1.2-1.9-2.9-1.9-4.7C74.4,47.7,75.1,46,76.4,44.8z M59.8,126.9c-1.8,0-3.4-0.7-4.7-1.9
    l-10.7-10.7l-0.3-0.1c-0.5-0.2-1.1-0.3-1.8-0.3c-3,0-9.4,1.9-13.8,4.5c1.7-4.3,4.4-10.1,6-11.7l1.1-1.1l-13-13
    c-1.2-1.2-1.9-2.9-1.9-4.7c0-1.8,0.7-3.4,1.9-4.7L48,57.9c1.2-1.2,2.9-1.9,4.7-1.9c1.8,0,3.4,0.7,4.7,1.9l32.4,32.4
    c1.2,1.2,1.9,2.9,1.9,4.7c0,1.8-0.7,3.4-1.9,4.7l-25.3,25.3C63.2,126.2,61.5,126.9,59.8,126.9z M135.3,146.2l-10.7,10.7l-0.1,0.3
    c-1,2.7,1.2,8.9,1.7,10.1c0.5,1.2,1.4,3.4,2.6,5.4c-4.3-1.7-10.1-4.4-11.7-6l-1.1-1.1l-13,13c-1.2,1.2-2.9,1.9-4.7,1.9
    s-3.4-0.7-4.7-1.9l-25.3-25.3c-2.6-2.6-2.6-6.8,0-9.3l32.4-32.4c1.2-1.2,2.9-1.9,4.7-1.9s3.4,0.7,4.7,1.9l25.3,25.3
    C137.8,139.5,137.8,143.6,135.3,146.2z M142.5,128.4l-4.2,4.2c-0.7,0.7-1.8,0.8-2.6,0.2l0,0l-23.4-23.4c-1.8-1.8-4.3-2.9-6.9-2.9
    c-2.6,0-5.1,1-6.9,2.9l-23.1,23.1l0,0c-0.7,0.5-1.5,0.5-2.2,0.1l-4.8-4.8c-0.4-0.7-0.4-1.6,0.1-2.2l23.6-23.6
    c1.8-1.8,2.9-4.3,2.9-6.9c0-2.6-1-5.1-2.9-6.9L69.9,66.1l0,0c-0.6-0.8-0.5-1.9,0.2-2.6l4.2-4.2c0.7-0.7,1.8-0.8,2.6-0.2l0,0
    l22.5,22.5c1.8,1.8,4.3,2.9,6.9,2.9c2.6,0,5.1-1,6.9-2.9l22-22c0.8-0.6,1.9-0.5,2.6,0.2l4.2,4.2c0.7,0.7,0.8,1.8,0.2,2.6l0,0
    l-22.4,22.4c-3.8,3.8-3.8,10,0,13.8l23,23l0,0C143.2,126.6,143.2,127.7,142.5,128.4z M188.9,107.8l-25.3,25.3
    c-1.2,1.2-2.9,1.9-4.7,1.9c-1.8,0-3.4-0.7-4.7-1.9l-32.4-32.4c-2.6-2.6-2.6-6.8,0-9.3l25.3-25.3c1.2-1.2,2.9-1.9,4.7-1.9
    c1.8,0,3.4,0.7,4.7,1.9l10.7,10.7l0.3,0.1c0.5,0.2,1.1,0.3,1.8,0.3c3,0,9.4-1.9,13.7-4.5c-1.7,4.3-4.4,10.1-6,11.7l-1.1,1.1l13,13
    c1.2,1.2,1.9,2.9,1.9,4.7C190.9,104.9,190.2,106.5,188.9,107.8z"/>
  <path class="st1" d="M144,100.2c-1.7,0-3-0.5-4-1.4c-0.9-0.9-1.4-2.2-1.4-3.8c0-1.6,0.4-2.8,1.3-3.8c0.9-0.9,1.9-1.4,3.3-1.4
    c1.4,0,3,0.6,4.8,1.7l2.3,1.5v-8l-0.9-0.4c-1.3-0.6-2.4-1-3.3-1.2c-0.9-0.2-2-0.3-3.1-0.3c-3.4,0-6.2,1.1-8.3,3.4
    c-2.1,2.2-3.1,5.1-3.1,8.6c0,3.5,1.1,6.4,3.2,8.5c2.1,2.1,5,3.2,8.6,3.2c2.1,0,4.2-0.4,6.4-1.2l1-0.4V98l-2.1,1
    C146.8,99.8,145.3,100.2,144,100.2z"/>
  <rect x="178.8" y="85.9" class="st0" width="9.4" height="15.9"/>
  <path class="st1" d="M168.8,84.4c-1.3-0.8-2.8-1.2-4.4-1.2c-1.7,0-3.3,0.4-4.6,1.2V73.1h-7v33.4h7V91.3c0.7-0.7,1.3-1.2,1.8-1.5
    c0.5-0.3,1.1-0.5,1.7-0.5c0.7,0,1.2,0.2,1.7,0.8c0.5,0.6,0.7,1.5,0.7,2.6v13.9h7V93.6c0-2.6-0.3-4.5-0.9-5.8
    C171.1,86.3,170.1,85.2,168.8,84.4z"/>
  <path class="st1" d="M211.2,84.3c-1.3-0.8-2.7-1.2-4.3-1.2c-1.6,0-3.1,0.4-4.5,1.2v-0.9h-7.1v23h7.1V91.2c0.9-1.2,2-1.8,3.3-1.8
    c1,0,1.6,0.2,1.9,0.7c0.2,0.3,0.7,1.3,0.7,3.5v12.9h7V93.6c0-2.7-0.3-4.7-1-6C213.6,86.2,212.6,85.1,211.2,84.3z"/>
  <path class="st1" d="M233.1,102.7c-0.8-0.3-2.4-0.8-5-1.4c-1.1-0.2-1.7-0.4-2.1-0.6c0.1,0,0.3-0.1,0.4-0.1c2.3-0.3,4-0.8,5.1-1.5
    c1.2-0.7,2.1-1.6,2.8-2.9c0.7-1.2,1.1-2.5,1.1-3.8c0-1.1-0.2-2-0.6-2.9c0,0,0,0,0,0h2.6v-6.1h-9.8c-3,0-5.5,0.7-7.3,2.2
    c-1.9,1.5-2.9,3.6-2.9,6.2c0,2.6,0.9,4.6,2.8,6.2c-0.1,0.1-0.1,0.1-0.2,0.2c-1.1,1-1.4,2.1-1.4,2.9c0,0.7,0.2,1.3,0.6,2
    c-3,1.5-3.7,4-3.7,5.8c0,2.4,1.1,4.4,3.2,5.8c1.9,1.3,4.5,2,7.7,2c3.1,0,5.7-0.7,7.6-2c2.1-1.4,3.2-3.4,3.2-5.8
    c0-1.9-0.6-3.4-1.9-4.7C234.8,103.6,234,103.1,233.1,102.7z M224,92.2c0-0.6,0.2-1.1,0.7-1.5c0.5-0.5,1-0.7,1.7-0.7
    c0.7,0,1.3,0.2,1.8,0.6c0.4,0.4,0.6,0.9,0.6,1.5c0,0.6-0.2,1.1-0.6,1.5c-0.5,0.4-1,0.6-1.8,0.6c-0.7,0-1.3-0.2-1.8-0.6
    C224.2,93.2,224,92.8,224,92.2z M230.5,109.1c0,0.2,0,0.5-0.6,0.9c-0.7,0.4-1.9,0.6-3.4,0.6c-2.7,0-4.1-0.5-4.1-1.6
    c0-0.2,0-0.5,0.6-0.9c0.6-0.4,1.4-0.6,2.4-0.6c1.7,0,3.1,0.2,4.1,0.7C229.9,108.4,230.5,108.8,230.5,109.1z"/>
  <path class="st1" d="M193.7,105.2l0.2-0.1c0.1-0.6,0.2-1.3,0.2-1.9c0-1.3-0.3-2.6-0.8-3.8l-1.3,0.9c-0.2,0.2-0.4,0.3-0.6,0.4V93
    c0-1.8-0.1-3-0.2-3.7c-0.1-0.8-0.4-1.6-0.8-2.3c-0.4-0.8-0.9-1.4-1.5-1.8c-1.6-1.4-3.7-2.1-6.2-2.1c-3.3,0-6,1.1-7.8,3.3l-0.4,0.4
    v8.8l2.6-2.9c1.7-1.9,3.5-2.9,5.2-2.9c1.6,0,2.1,0.5,2.1,2.1l-4.1,1.4c-1.9,0.7-3.4,1.6-4.5,2.8c-1.2,1.3-1.8,2.8-1.8,4.4
    c0,1.8,0.6,3.3,1.8,4.5c1.2,1.2,2.7,1.8,4.5,1.8c1.7,0,3.3-0.4,4.8-1.3c0.6,0.7,1.7,1.3,3.5,1.3c0.8,0,1.5-0.1,2.3-0.4
    C191.9,106.2,192.7,105.8,193.7,105.2z M184.5,100.4c-0.6,0.5-1.3,0.7-2,0.7c-0.4,0-0.8-0.1-1-0.3c-0.2-0.2-0.3-0.5-0.3-0.9
    c0-0.4,0.1-0.7,0.4-1c0.2-0.2,0.8-0.7,2.3-1.3l0.6-0.2V100.4z"/>
  <path class="st1" d="M255.9,97.6l-0.5,0.4c-2,1.4-4,2.1-6.3,2.1c-1.5,0-2.6-0.4-3.5-1.3c-0.6-0.5-1-1.2-1.2-2h10.4h2.2h0.9h0.3v-2
    c0-3.5-0.9-6.3-2.7-8.4c-1.9-2.2-4.4-3.3-7.5-3.3c-3.2,0-5.8,1.1-7.8,3.4c-2,2.2-3,5-3,8.4c0,2.3,0.5,4.3,1.4,6.1
    c0.9,1.8,2.2,3.2,3.8,4.2c1.6,1.1,3.7,1.6,6.2,1.6c1.7,0,3.3-0.2,4.6-0.6c1.3-0.4,2.7-1,4-1.9l0.7-0.4v-6.3H255.9z M245.5,90.5
    c0.6-0.6,1.4-0.9,2.5-0.9c1,0,1.8,0.3,2.3,0.8c0.3,0.3,0.5,0.6,0.7,1.1h-6.2C244.9,91.1,245.2,90.7,245.5,90.5z"/>
  <path class="st1" d="M79.6,97.6L79,98c-2,1.4-4,2.1-6.3,2.1c-1.5,0-2.6-0.4-3.5-1.3c-0.6-0.5-1-1.2-1.2-2h10.4h2.2h0.9h0.3v-2
    c0-3.5-0.9-6.3-2.7-8.4c-1.9-2.2-4.4-3.3-7.5-3.3c-3.2,0-5.8,1.1-7.8,3.4c-2,2.2-3,5-3,8.4c0,2.3,0.5,4.3,1.4,6.1
    c0.9,1.8,2.2,3.2,3.8,4.2c1.6,1.1,3.7,1.6,6.2,1.6c1.7,0,3.3-0.2,4.6-0.6c1.3-0.4,2.7-1,4-1.9l0.7-0.4v-6.3H79.6z M69.1,90.5
    c0.6-0.6,1.4-0.9,2.5-0.9c1,0,1.8,0.3,2.3,0.8c0.3,0.3,0.5,0.6,0.7,1.1h-6.2C68.6,91.1,68.8,90.7,69.1,90.5z"/>
  <path class="st2" d="M112.2,109.4l23.4,23.4l0,0c0.8,0.6,1.9,0.5,2.6-0.2l4.2-4.2c0.7-0.7,0.8-1.8,0.2-2.6l0,0l-23-23
    c-3.8-3.8-3.8-10,0-13.8l22.4-22.4l0,0c0.6-0.8,0.5-1.9-0.2-2.6l-4.2-4.2c-0.7-0.7-1.8-0.8-2.6-0.2l-22,22
    c-1.8,1.8-4.3,2.9-6.9,2.9c-2.6,0-5.1-1-6.9-2.9L76.9,59.1l0,0c-0.8-0.6-1.9-0.5-2.6,0.2l-4.2,4.2c-0.7,0.7-0.8,1.8-0.2,2.6l0,0
    l22.1,22.1c1.8,1.8,2.9,4.3,2.9,6.9c0,2.6-1,5.1-2.9,6.9l-23.6,23.6c-0.5,0.7-0.5,1.5-0.1,2.2l4.8,4.8c0.7,0.4,1.6,0.4,2.2-0.1l0,0
    l23.1-23.1c1.8-1.8,4.3-2.9,6.9-2.9C107.9,106.5,110.4,107.5,112.2,109.4z"/>
  <g>
    <path class="st1" d="M31.3,49.8c0-0.3,0.1-0.7,0.2-1.2c0.1-0.5,0.3-0.9,0.6-1.2c0.3-0.3,0.6-0.6,1.1-0.8c0.4-0.2,0.9-0.3,1.4-0.3
      c0.5,0,0.9,0.1,1.2,0.4s0.5,0.7,0.5,1.2c0,0.5-0.1,1-0.3,1.5c-0.2,0.5-0.4,0.9-0.8,1.2c-0.3,0.2-0.6,0.5-1,0.6
      c-0.3,0.2-0.7,0.3-1.2,0.3c-0.4,0-0.7-0.1-1-0.2c-0.2-0.2-0.4-0.4-0.5-0.6C31.3,50.3,31.3,50,31.3,49.8z M32.5,49.7
      c0,0.4,0.1,0.7,0.2,0.9c0.2,0.2,0.4,0.3,0.7,0.3c0.2,0,0.4-0.1,0.5-0.2c0.2-0.1,0.3-0.3,0.4-0.6c0.1-0.3,0.2-0.7,0.3-1.1
      c0.1-0.4,0.1-0.8,0.1-1.2c0-0.4-0.1-0.8-0.3-0.9c-0.2-0.2-0.4-0.3-0.6-0.3c-0.3,0-0.5,0.1-0.7,0.3c-0.2,0.2-0.4,0.6-0.5,1.2
      C32.6,48.7,32.5,49.2,32.5,49.7z"/>
    <path class="st1" d="M37.1,49.7h0.2l0,0l0,0.5c0.1,0.2,0.3,0.3,0.6,0.4c0.2,0.1,0.5,0.2,0.8,0.2c0.2,0,0.4,0,0.5-0.1
      c0.2-0.1,0.3-0.2,0.3-0.3c0.1-0.1,0.1-0.3,0.1-0.4c0-0.1,0-0.2-0.1-0.3c-0.1-0.1-0.1-0.2-0.3-0.2c-0.1-0.1-0.3-0.1-0.5-0.2
      c-0.3-0.1-0.6-0.1-0.7-0.2c-0.1,0-0.3-0.1-0.4-0.2c-0.1-0.1-0.2-0.2-0.3-0.4c-0.1-0.2-0.1-0.3-0.1-0.5s0-0.4,0.1-0.5
      c0.1-0.2,0.2-0.3,0.3-0.4c0.1-0.1,0.3-0.3,0.6-0.4c0.3-0.2,0.5-0.3,0.7-0.3c0.2,0,0.3-0.1,0.6-0.1c0.5,0,0.9,0.1,1.3,0.3
      c-0.1,0.3-0.1,0.7-0.2,1.2l0,0h-0.2l0,0l-0.1-0.5c-0.2-0.2-0.3-0.3-0.6-0.3c-0.2-0.1-0.4-0.1-0.6-0.1c-0.2,0-0.4,0.1-0.6,0.2
      c-0.2,0.1-0.2,0.3-0.2,0.5c0,0.2,0.1,0.4,0.2,0.5c0.2,0.1,0.5,0.2,0.9,0.3c0.3,0.1,0.6,0.1,0.7,0.2c0.2,0.1,0.3,0.2,0.4,0.4
      s0.2,0.4,0.2,0.6c0,0.2,0,0.4-0.1,0.6c-0.1,0.2-0.3,0.4-0.6,0.6c-0.3,0.2-0.6,0.4-0.8,0.5c-0.2,0.1-0.5,0.1-0.9,0.1
      c-0.2,0-0.4,0-0.6,0c-0.2,0-0.5-0.1-0.8-0.2l0-0.1c0-0.1,0.1-0.3,0.1-0.6C37,50.1,37.1,49.9,37.1,49.7L37.1,49.7z"/>
    <path class="st1" d="M45.2,50l0.1,0.2l0,0.1c-0.6,0.4-1.1,0.7-1.5,0.9c-0.4,0.2-0.7,0.2-1,0.2c-0.2,0-0.5-0.1-0.7-0.2
      c-0.2-0.1-0.4-0.3-0.5-0.5c-0.1-0.2-0.1-0.4-0.1-0.6c0-0.4,0.1-0.8,0.2-1.4c0.1-0.6,0.3-1,0.5-1.3c0.2-0.3,0.6-0.6,1.1-0.8
      c0.5-0.3,0.9-0.4,1.3-0.4c0.3,0,0.5,0.1,0.7,0.2c0.2,0.2,0.3,0.4,0.3,0.7c0,0.3-0.1,0.7-0.3,0.9c-0.2,0.3-0.6,0.5-1,0.7
      c-0.5,0.2-1,0.3-1.5,0.4c0,0.2-0.1,0.5-0.1,0.7c0,0.3,0.1,0.6,0.2,0.7c0.2,0.1,0.3,0.2,0.5,0.2c0.1,0,0.3,0,0.5-0.1
      c0.2-0.1,0.3-0.1,0.5-0.2C44.6,50.4,44.8,50.2,45.2,50L45.2,50z M42.9,48.9c0.7-0.2,1.2-0.4,1.4-0.7c0.2-0.3,0.4-0.6,0.4-0.9
      c0-0.2,0-0.3-0.1-0.4c-0.1-0.1-0.2-0.1-0.4-0.1c-0.3,0-0.5,0.1-0.7,0.4C43.3,47.4,43.1,48,42.9,48.9z"/>
    <path class="st1" d="M48.7,43.5l0.1,0.1c-0.4,1.5-0.7,3-0.9,4.3c0.4-0.6,0.9-1,1.3-1.3c0.5-0.3,0.9-0.4,1.3-0.4
      c0.3,0,0.5,0.1,0.6,0.4c0.1,0.2,0.2,0.6,0.2,0.9c0,0.6-0.1,1.2-0.4,1.8c-0.2,0.6-0.7,1.1-1.3,1.5c-0.6,0.4-1.2,0.6-1.8,0.6
      c-0.3,0-0.5,0-0.7-0.1c-0.2-0.1-0.4-0.2-0.4-0.4c-0.1-0.2-0.1-0.4-0.1-0.6c0-0.2,0-0.4,0-0.6c0-0.2,0.1-0.7,0.2-1.4
      c0.4-2.3,0.6-3.6,0.6-3.7c0-0.1,0-0.1-0.1-0.2c0,0-0.1-0.1-0.2-0.1c-0.1,0-0.3,0-0.5,0l0,0l0-0.2l0.1,0
      C47.4,43.9,48.1,43.7,48.7,43.5z M47.6,50c0,0.3,0.1,0.6,0.2,0.7c0.1,0.1,0.3,0.2,0.5,0.2c0.2,0,0.4-0.1,0.5-0.2
      c0.2-0.1,0.4-0.4,0.5-0.7c0.2-0.3,0.3-0.7,0.4-1.1c0.1-0.4,0.2-0.8,0.2-1.1c0-0.3,0-0.5-0.1-0.6c-0.1-0.1-0.2-0.2-0.3-0.2
      c-0.1,0-0.3,0.1-0.4,0.2c-0.2,0.1-0.4,0.3-0.6,0.5c-0.2,0.2-0.4,0.5-0.5,0.7c-0.1,0.3-0.2,0.5-0.3,0.8
      C47.7,49.4,47.6,49.7,47.6,50z"/>
    <path class="st1" d="M56.9,50.1l0.1,0.2l0,0.1c-0.6,0.5-1,0.7-1.3,0.9s-0.4,0.2-0.6,0.2c-0.1,0-0.2,0-0.3-0.1
      c-0.1-0.1-0.1-0.2-0.1-0.3c0-0.1,0-0.4,0.1-0.6c0.1-0.3,0.2-0.8,0.4-1.5c-0.6,1-1.1,1.7-1.5,2c-0.5,0.4-0.8,0.6-1.1,0.6
      c-0.2,0-0.3-0.1-0.4-0.2C52,51.1,52,50.8,52,50.5c0-0.3,0-0.7,0.1-1.1c0.1-0.4,0.2-0.9,0.4-1.3c0.1-0.2,0.2-0.4,0.3-0.5
      c0.1-0.1,0.4-0.3,0.8-0.6c0.4-0.3,0.7-0.5,0.9-0.5c0.2-0.1,0.4-0.1,0.6-0.1c0.2,0,0.3,0,0.5,0.1s0.4,0.1,0.6,0.2l0.5-0.3l0.2,0.1
      c-0.1,0.2-0.2,0.6-0.3,1.1l-0.4,1.7c-0.1,0.6-0.2,1-0.2,1.1c0,0.1,0,0.2,0.1,0.2C56.2,50.5,56.4,50.4,56.9,50.1L56.9,50.1z
       M55.5,47c-0.3-0.2-0.6-0.2-0.8-0.2c-0.3,0-0.5,0.1-0.6,0.3c-0.2,0.2-0.3,0.7-0.5,1.4c-0.2,0.7-0.3,1.3-0.3,1.6
      c0,0.3,0.1,0.4,0.2,0.4c0.1,0,0.4-0.2,0.8-0.6c0.4-0.4,0.7-0.9,0.9-1.4C55.3,47.9,55.4,47.5,55.5,47z"/>
    <path class="st1" d="M57.9,51.4l-0.1-0.1c0.1-0.3,0.2-0.7,0.4-1.3c0.2-0.6,0.3-1.2,0.4-1.6c0.1-0.5,0.1-0.8,0.1-0.9
      c0-0.1,0-0.2-0.1-0.2c-0.1,0-0.4,0.1-0.7,0.4l-0.1,0l-0.1-0.2l0-0.1c0.2-0.2,0.4-0.3,0.6-0.5c0.2-0.2,0.4-0.3,0.6-0.5
      c0.2-0.1,0.3-0.2,0.4-0.2c0.1,0,0.2,0,0.3,0c0.2,0,0.3,0.1,0.3,0.3c0,0.2,0,0.4-0.1,0.7c-0.1,0.3-0.2,0.8-0.4,1.6
      c0.4-0.7,0.9-1.3,1.5-1.8c0.6-0.5,1.1-0.8,1.4-0.8c0.3,0,0.4,0.2,0.4,0.5c0,0.2,0,0.4-0.1,0.8c-0.1,0.3-0.2,0.8-0.4,1.5
      c-0.1,0.4-0.2,0.8-0.2,1c0,0.2-0.1,0.4-0.1,0.5c0,0.1,0,0.2,0.1,0.2c0.1,0,0.4-0.1,0.8-0.4l0.1,0l0.1,0.2l0,0.1
      c-0.6,0.4-1,0.7-1.3,0.8c-0.3,0.1-0.5,0.2-0.7,0.2c-0.1,0-0.2-0.1-0.3-0.2c0-0.1-0.1-0.2-0.1-0.3c0-0.3,0.1-0.8,0.4-1.7
      c0.3-0.9,0.4-1.5,0.4-1.8c0-0.1-0.1-0.2-0.2-0.2c-0.1,0-0.1,0-0.3,0.1c-0.1,0.1-0.3,0.2-0.5,0.4c-0.2,0.2-0.4,0.5-0.6,0.7
      c-0.2,0.3-0.3,0.6-0.5,0.9c-0.1,0.3-0.2,0.7-0.3,1C59.1,50.7,59,51,59,51.2C58.5,51.2,58.2,51.3,57.9,51.4z"/>
    <path class="st1" d="M64.3,44.3L64.3,44.3l0-0.3l0,0c0.7-0.1,1.4-0.3,2.1-0.5l0.1,0.1c-0.2,0.7-0.5,2.4-1.1,5.2
      c0,0,0.1-0.2,0.4-0.5c0.3-0.4,0.6-0.7,0.9-1s0.5-0.5,0.8-0.7c0.3-0.2,0.5-0.3,0.7-0.4c0.2-0.1,0.4-0.1,0.6-0.1c0.1,0,0.2,0,0.3,0
      l0,0.1c-0.1,0.3-0.2,0.6-0.2,0.8l-0.1,0C68.5,47,68.3,47,68.2,47c-0.2,0-0.5,0.1-0.7,0.2s-0.5,0.3-0.8,0.6c0,0.1,0.2,0.4,0.4,1
      c0.2,0.6,0.4,1,0.5,1.2c0.1,0.3,0.2,0.4,0.3,0.4c0.1,0,0.1,0.1,0.2,0.1c0.1,0,0.4-0.1,0.7-0.4l0.1,0l0.1,0.2l0,0.1
      c-0.1,0.1-0.3,0.2-0.4,0.3c-0.7,0.5-1.1,0.7-1.3,0.7c-0.1,0-0.1,0-0.2,0c-0.1,0-0.1-0.1-0.2-0.2c-0.1-0.1-0.2-0.3-0.2-0.5
      c-0.1-0.2-0.2-0.5-0.4-1s-0.3-0.8-0.3-0.9c-0.2,0.2-0.3,0.4-0.4,0.5c-0.1,0.1-0.1,0.2-0.2,0.3c0,0.1-0.1,0.3-0.1,0.6
      c-0.1,0.3-0.1,0.5-0.1,0.6c0,0.1,0,0.3,0,0.4c-0.3,0-0.7,0.1-1.2,0.2l-0.1-0.1c0.3-1,0.6-2.3,0.9-4c0.3-1.6,0.5-2.5,0.5-2.7
      c0-0.1,0-0.1-0.1-0.2c0,0-0.1-0.1-0.2-0.1C64.7,44.3,64.5,44.3,64.3,44.3z"/>
  </g>
  <g>
    <g>
      <path class="st2" d="M149.2,100.4v3.9c-2,0.7-3.9,1.1-5.8,1.1c-3.1,0-5.6-0.9-7.5-2.8c-1.9-1.9-2.8-4.3-2.8-7.5
        c0-3.1,0.9-5.7,2.7-7.6c1.8-1.9,4.2-2.9,7.2-2.9c1,0,2,0.1,2.8,0.3c0.8,0.2,1.8,0.6,3,1.1v4.2c-2-1.3-3.9-1.9-5.6-1.9
        c-1.8,0-3.2,0.6-4.4,1.9c-1.1,1.3-1.7,2.9-1.7,4.8c0,2,0.6,3.7,1.9,4.9c1.2,1.2,2.9,1.8,5,1.8
        C145.5,101.7,147.3,101.2,149.2,100.4z"/>
      <path class="st2" d="M154.3,74.7h4v13c1.7-2,3.7-3,6.2-3c1.3,0,2.5,0.3,3.6,1c1.1,0.7,1.8,1.6,2.4,2.8s0.8,2.9,0.8,5.2V105h-4
        V92.7c0-1.5-0.4-2.6-1.1-3.5s-1.7-1.3-2.8-1.3c-0.9,0-1.7,0.2-2.5,0.7c-0.8,0.4-1.6,1.2-2.5,2.2V105h-4V74.7z"/>
      <path class="st2" d="M189.9,93v8.5c0,0.7,0.2,1,0.7,1c0.5,0,1.2-0.4,2.2-1.1v2.4c-0.9,0.6-1.6,1-2.2,1.2
        c-0.5,0.2-1.1,0.3-1.7,0.3c-1.7,0-2.7-0.7-3-2c-1.7,1.3-3.5,2-5.4,2c-1.4,0-2.6-0.5-3.5-1.4c-0.9-0.9-1.4-2.1-1.4-3.5
        c0-1.3,0.5-2.4,1.4-3.4c0.9-1,2.2-1.8,3.9-2.4L186,93v-1.1c0-2.4-1.2-3.6-3.6-3.6c-2.2,0-4.3,1.1-6.3,3.3v-4.3
        c1.5-1.8,3.7-2.7,6.6-2.7c2.2,0,3.9,0.6,5.2,1.7c0.4,0.4,0.8,0.8,1.2,1.4c0.3,0.6,0.6,1.2,0.7,1.8
        C189.9,90.2,189.9,91.3,189.9,93z M186,101.1v-5.9l-2.7,1c-1.3,0.5-2.3,1.1-2.9,1.6c-0.6,0.5-0.8,1.2-0.8,2c0,0.8,0.3,1.5,0.8,2
        c0.5,0.5,1.2,0.8,2.1,0.8C183.8,102.6,184.9,102.1,186,101.1z"/>
      <path class="st2" d="M201,85v2.5c1.8-2,3.8-2.9,6-2.9c1.2,0,2.4,0.3,3.5,1c1.1,0.6,1.9,1.5,2.4,2.7c0.6,1.1,0.8,2.9,0.8,5.3V105
        h-4V93.6c0-2-0.3-3.5-0.9-4.4c-0.6-0.9-1.7-1.3-3.1-1.3c-1.9,0-3.5,0.9-4.8,2.8V105h-4V85H201z"/>
      <path class="st2" d="M218.9,91.9c0-2.1,0.8-3.8,2.3-5.1c1.6-1.2,3.7-1.9,6.4-1.9h8.2v3.1h-4c0.8,0.8,1.3,1.5,1.6,2.2
        c0.3,0.7,0.5,1.4,0.5,2.2c0,1-0.3,2.1-0.9,3.1c-0.6,1-1.4,1.8-2.3,2.3c-0.9,0.5-2.5,1-4.6,1.3c-1.5,0.2-2.2,0.7-2.2,1.5
        c0,0.5,0.3,0.8,0.8,1.1c0.6,0.3,1.6,0.6,3,0.9c2.5,0.5,4,1,4.7,1.3c0.7,0.3,1.3,0.7,1.9,1.3c1,1,1.4,2.2,1.4,3.6
        c0,1.9-0.8,3.4-2.5,4.5c-1.7,1.1-3.9,1.7-6.8,1.7c-2.9,0-5.1-0.6-6.8-1.7c-1.7-1.1-2.6-2.7-2.6-4.6c0-2.7,1.7-4.5,5-5.2
        c-1.3-0.9-2-1.7-2-2.5c0-0.6,0.3-1.2,0.9-1.7c0.6-0.5,1.3-0.9,2.3-1.2C220.4,97,218.9,94.9,218.9,91.9z M225.4,106
        c-1.3,0-2.4,0.3-3.3,0.8c-0.8,0.6-1.3,1.3-1.3,2.2c0,2.1,1.9,3.1,5.6,3.1c1.8,0,3.1-0.3,4.1-0.8c1-0.5,1.4-1.2,1.4-2.2
        c0-0.9-0.6-1.7-1.8-2.3C228.9,106.3,227.3,106,225.4,106z M226.4,88.5c-1.1,0-2,0.4-2.7,1.1c-0.8,0.7-1.1,1.6-1.1,2.6
        c0,1,0.4,1.9,1.1,2.6c0.7,0.7,1.7,1,2.8,1c1.1,0,2-0.3,2.8-1c0.7-0.7,1.1-1.5,1.1-2.6c0-1-0.4-1.9-1.1-2.6
        C228.4,88.8,227.5,88.5,226.4,88.5z"/>
      <path class="st2" d="M256.7,95.4h-14.1c0.1,1.9,0.7,3.4,1.9,4.6c1.2,1.1,2.7,1.7,4.6,1.7c2.6,0,5-0.8,7.2-2.4v3.9
        c-1.2,0.8-2.4,1.4-3.6,1.7c-1.2,0.3-2.6,0.5-4.2,0.5c-2.2,0-4-0.5-5.3-1.4c-1.4-0.9-2.5-2.1-3.3-3.7c-0.8-1.5-1.2-3.3-1.2-5.4
        c0-3,0.9-5.5,2.6-7.4c1.7-1.9,4-2.9,6.7-2.9c2.7,0,4.8,0.9,6.3,2.8c1.6,1.9,2.4,4.3,2.4,7.5V95.4z M242.7,93h10.1
        c-0.1-1.6-0.6-2.8-1.4-3.7c-0.8-0.9-2-1.3-3.4-1.3c-1.4,0-2.6,0.4-3.5,1.3C243.5,90.2,243,91.4,242.7,93z"/>
    </g>
    <path class="st2" d="M80.3,95.4H66.2c0.1,1.9,0.7,3.4,1.9,4.6c1.2,1.1,2.7,1.7,4.6,1.7c2.6,0,5-0.8,7.2-2.4v3.9
      c-1.2,0.8-2.4,1.4-3.6,1.7c-1.2,0.3-2.6,0.5-4.2,0.5c-2.2,0-4-0.5-5.3-1.4c-1.4-0.9-2.5-2.1-3.3-3.7c-0.8-1.5-1.2-3.3-1.2-5.4
      c0-3,0.9-5.5,2.6-7.4c1.7-1.9,4-2.9,6.7-2.9c2.7,0,4.8,0.9,6.4,2.8c1.6,1.9,2.4,4.3,2.4,7.5V95.4z M66.3,93h10.1
      c-0.1-1.6-0.6-2.8-1.4-3.7c-0.8-0.9-2-1.3-3.4-1.3c-1.4,0-2.6,0.4-3.5,1.3C67.2,90.2,66.6,91.4,66.3,93z"/>
  </g>
  <g>
    <path class="st1" d="M32,55c0.9,1.6,1.5,2.6,1.8,2.9c0.3,0.4,0.5,0.6,0.7,0.7c0.2,0.1,0.7,0.2,1.5,0.3l0.2,0.1l-0.1,0.9l-0.2,0.1
      C35,60,34,60,32.9,60c-1.1,0-2.3,0-3.4,0.1c-3.2-6.2-5.7-10.6-7.4-13.1l0.1-0.6c0.3,0,0.7,0,1,0c2.1,0,3.7-0.5,4.9-1.6
      c1.2-1,1.8-2.5,1.8-4.5c0-2.6-1.5-3.9-4.4-3.9c-1.2,0-2.2,0.1-2.9,0.3l-2.4,13.7c-0.7,4.1-1.1,6.4-1.1,6.9v0.4
      c0,0.3,0.1,0.6,0.3,0.7c0.2,0.2,0.6,0.3,1.2,0.3l1.9,0.1l0.1,0.1l-0.1,0.9l-0.2,0.1c-2-0.1-3.9-0.1-5.8-0.1c-1.9,0-3.8,0-5.6,0.1
      L10.8,60l0.1-0.9l0.2-0.1l0.9-0.1c0.7,0,1.2-0.1,1.6-0.1c0.3-0.1,0.6-0.6,0.9-1.5c0.2-1,0.5-2.3,0.8-4l1.6-9.4
      c0.6-3.5,0.9-5.7,0.9-6.5c0-0.4-0.1-0.7-0.3-0.8c-0.2-0.1-0.6-0.2-1.3-0.2l-1.6-0.1L14.4,36l0.1-0.9l0.2-0.1
      c1.5,0.1,3.4,0.1,5.6,0.1l7-0.1c3.1,0,5,0.5,6,1.6c0.9,1.1,1.4,2.3,1.4,3.6c0,1.5-0.6,2.9-1.7,4.2c-1.1,1.2-3.1,2.1-5.8,2.7L32,55
      z"/>
  </g>
</g>
</svg>
