<svg xmlns="http://www.w3.org/2000/svg" class="ic-icon-svg ic-icon-svg--learning-resources" version="1.1" x="0px" y="0px" viewBox="0 0 26.748 28" enable-background="new 0 0 26.748 28" xml:space="preserve"><g><path fill="#FFFFFF" d="M14.257,9.055H3.225c-0.466,0-0.844-0.378-0.844-0.844c0-0.466,0.378-0.844,0.844-0.844h11.031,c0.466,0,0.844,0.378,0.844,0.844C15.101,8.677,14.723,9.055,14.257,9.055z"/></g><g><path fill="#FFFFFF" d="M14.257,12.134H3.225c-0.466,0-0.844-0.378-0.844-0.844s0.378-0.844,0.844-0.844h11.031,c0.466,0,0.844,0.378,0.844,0.844S14.723,12.134,14.257,12.134z"/></g><g><path fill="#FFFFFF" d="M14.257,15.212H3.225c-0.466,0-0.844-0.378-0.844-0.844s0.378-0.844,0.844-0.844h11.031,c0.466,0,0.844,0.378,0.844,0.844S14.723,15.212,14.257,15.212z"/></g><path fill="#FFFFFF" d="M14.729,19.37L13.466 18.148 12.769 20.065z"></path><g><path fill="#FFFFFF" d="M23.074,12.215V26.03c0,0.153-0.129,0.281-0.281,0.281H9.25c-0.153,0-0.281-0.129-0.281-0.281v-2.551h6.544,c1.086,0,1.97-0.884,1.97-1.97v-3.8l-1.689,1.659v2.14c0,0.153-0.129,0.281-0.281,0.281H1.97c-0.153,0-0.281-0.129-0.281-0.281,V6.851h3.888c1.031,0,1.871-0.839,1.871-1.871V1.615h8.065c0.153,0,0.281,0.129,0.281,0.281v12.974l1.689-1.659V6.135h5.31,c0.153,0,0.281,0.129,0.281,0.281v1.299l1.656-1.627c-0.157-0.93-0.963-1.642-1.937-1.642h-5.31v-2.55,c0-0.911-0.625-1.672-1.466-1.897H6.292c-0.093,0.03-0.18,0.076-0.256,0.146L0.276,5.381C0.12,5.524,0.035,5.716,0.014,5.918,C0.009,5.919,0.005,5.92,0,5.921v15.588c0,1.086,0.884,1.97,1.97,1.97h5.31v2.551c0,1.086,0.884,1.97,1.97,1.97h13.543,c1.086,0,1.97-0.884,1.97-1.97V10.555L23.074,12.215z M5.759,2.679V4.98c0,0.098-0.084,0.182-0.182,0.182H3.028L5.759,2.679z"/></g><path fill="#FFFFFF" d="M25.25,6.366L14.215 17.211 15.712 18.66 26.748 7.816 z"></path><path fill="#FFFFFF" d="M15.344000000000001,24.875a0.677,0.677 0 1,0 1.354,0a0.677,0.677 0 1,0 -1.354,0"/></svg>
