<?xml version="1.0" encoding="utf-8"?>
<!-- Generator: Adobe Illustrator 19.0.0, SVG Export Plug-In . SVG Version: 6.00 Build 0)  -->
<svg version="1.1" id="Layer_1" xmlns="http://www.w3.org/2000/svg" xmlns:xlink="http://www.w3.org/1999/xlink" x="0px" y="0px"
   viewBox="0 0 295 188" style="enable-background:new 0 0 295 188;" xml:space="preserve">
<style type="text/css">
  .st0{fill:#CC9932;}
  .st1{fill:#FFFFFF;}
  .st2{fill:#203C89;}
</style>
<g>
  <path class="st0" d="M195.2,75.8l-0.3-0.1l-10.7-10.7c-1.2-1.2-2.9-1.9-4.7-1.9c-1.8,0-3.4,0.7-4.7,1.9l-25.3,25.3
    c-2.6,2.6-2.6,6.8,0,9.3l32.4,32.4c1.2,1.2,2.9,1.9,4.7,1.9c1.8,0,3.4-0.7,4.7-1.9l25.3-25.3c1.2-1.2,1.9-2.9,1.9-4.7
    c0-1.8-0.7-3.4-1.9-4.7l-13-13l1.1-1.1c1.6-1.6,4.3-7.4,6-11.7C206.4,74.1,200,76,197,76C196.3,76,195.7,75.9,195.2,75.8z"/>
  <path class="st0" d="M163,135.8l-25.3-25.3c-1.2-1.2-2.9-1.9-4.7-1.9c-1.8,0-3.4,0.7-4.7,1.9L96,142.9c-2.6,2.6-2.6,6.8,0,9.3
    l25.3,25.3c1.2,1.2,2.9,1.9,4.7,1.9s3.4-0.7,4.7-1.9l13-13l1.1,1.1c1.6,1.6,7.4,4.3,11.7,6c-1.2-2-2.1-4.2-2.6-5.4
    c-0.5-1.2-2.7-7.4-1.7-10.1l0.1-0.3l10.7-10.7C165.5,142.5,165.5,138.3,163,135.8z"/>
  <path class="st0" d="M104.1,53l25.3,25.3c1.2,1.2,2.9,1.9,4.7,1.9c1.8,0,3.4-0.7,4.7-1.9l32.4-32.4c2.6-2.6,2.6-6.8,0-9.3
    l-25.3-25.3c-1.2-1.2-2.9-1.9-4.7-1.9c-1.8,0-3.4,0.7-4.7,1.9l-13,13l-1.1-1.1c-1.6-1.6-7.4-4.3-11.7-6c1.2,2,2.1,4.2,2.6,5.4
    c0.5,1.2,2.7,7.4,1.7,10.1l-0.1,0.3l-10.7,10.7c-1.2,1.2-1.9,2.9-1.9,4.7C102.1,50.1,102.8,51.7,104.1,53z"/>
  <path class="st0" d="M71.8,113l0.3,0.1l10.7,10.7c1.2,1.2,2.9,1.9,4.7,1.9c1.8,0,3.4-0.7,4.7-1.9l25.3-25.3
    c1.2-1.2,1.9-2.9,1.9-4.7c0-1.8-0.7-3.4-1.9-4.7L85,56.8c-1.2-1.2-2.9-1.9-4.7-1.9c-1.8,0-3.4,0.7-4.7,1.9L50.4,82.1
    c-1.2,1.2-1.9,2.9-1.9,4.7c0,1.8,0.7,3.4,1.9,4.7l13,13l-1.1,1.1c-1.6,1.6-4.3,7.4-6,11.7c4.4-2.6,10.8-4.5,13.8-4.5
    C70.7,112.7,71.3,112.8,71.8,113z"/>
</g>
<path class="st1" d="M218.9,95.1L208,84.2c1.7-2.4,3.6-6.5,4.6-9c3.4-7.9,3-8.8,2.8-9.3c-0.3-0.6-0.8-1-1.5-1c-1,0-1.5,0.8-1.8,1.3
  c-1.7,2.8-11,6.6-15.1,6.6c-0.2,0-0.3,0-0.4,0l-10.1-10.1c-1.8-1.8-4.3-2.9-6.9-2.9c-2.1,0-4.1,0.7-5.8,1.9l-7.1-7.1l6.6-6.6
  c3.8-3.8,3.8-10,0-13.8L148,9c-1.8-1.8-4.3-2.9-6.9-2.9c-2.6,0-5.1,1-6.9,2.9l-10.9,10.9c-4.5-3.2-15.6-7.6-17.5-7.6
  c-1,0-1.5,0.6-1.7,1.2c-0.4,1.3,0.8,2,1.3,2.3c3.4,2.1,6.9,12.9,6.6,15.5l-10.2,10.2c-1.8,1.8-2.9,4.3-2.9,6.9c0,2.1,0.6,4,1.8,5.6
  l-7.1,7.1l-6.5-6.5c-1.8-1.8-4.3-2.9-6.9-2.9c-2.6,0-5.1,1-6.9,2.9L48.2,79.9c-3.8,3.8-3.8,10,0,13.8L59,104.5
  c-1.7,2.4-3.6,6.5-4.6,9c-3.4,7.9-3,8.8-2.8,9.3c0.3,0.6,0.8,1,1.5,1c1,0,1.5-0.8,1.8-1.3c1.7-2.8,11-6.6,15.1-6.6
  c0.2,0,0.3,0,0.4,0l10.1,10.1c1.8,1.8,4.3,2.9,6.9,2.9c1.5,0,3-0.4,4.3-1l7.3,7.3l-5.4,5.4c-3.8,3.8-3.8,10,0,13.8l25.3,25.3
  c1.8,1.8,4.3,2.9,6.9,2.9c2.6,0,5.1-1,6.9-2.9l10.9-10.9c4.5,3.2,15.6,7.6,17.5,7.6h0c1,0,1.5-0.6,1.7-1.2c0.4-1.3-0.8-2-1.3-2.3
  c-3.4-2.1-6.9-12.9-6.6-15.5l10.2-10.2c3.1-3.1,3.7-7.7,1.8-11.4l7.3-7.3l5.5,5.5c1.8,1.8,4.3,2.9,6.9,2.9c2.6,0,5.1-1,6.9-2.9
  l25.3-25.3c1.8-1.8,2.9-4.3,2.9-6.9C221.7,99.4,220.7,96.9,218.9,95.1z M104.1,43.7L114.8,33l0.1-0.3c1-2.7-1.2-8.9-1.7-10.1
  c-0.5-1.2-1.4-3.4-2.6-5.4c4.3,1.7,10.1,4.4,11.7,6l1.1,1.1l13-13c1.2-1.2,2.9-1.9,4.7-1.9c1.8,0,3.4,0.7,4.7,1.9l25.3,25.3
  c2.6,2.6,2.6,6.8,0,9.3l-32.4,32.4c-1.2,1.2-2.9,1.9-4.7,1.9c-1.8,0-3.4-0.7-4.7-1.9L104.1,53c-1.2-1.2-1.9-2.9-1.9-4.7
  C102.1,46.6,102.8,44.9,104.1,43.7z M87.5,125.8c-1.8,0-3.4-0.7-4.7-1.9l-10.7-10.7l-0.3-0.1c-0.5-0.2-1.1-0.3-1.8-0.3
  c-3,0-9.4,1.9-13.8,4.5c1.7-4.3,4.4-10.1,6-11.7l1.1-1.1l-13-13c-1.2-1.2-1.9-2.9-1.9-4.7c0-1.8,0.7-3.4,1.9-4.7l25.3-25.3
  c1.2-1.2,2.9-1.9,4.7-1.9c1.8,0,3.4,0.7,4.7,1.9l32.4,32.4c1.2,1.2,1.9,2.9,1.9,4.7c0,1.8-0.7,3.4-1.9,4.7l-25.3,25.3
  C90.9,125.1,89.2,125.8,87.5,125.8z M163,145.1l-10.7,10.7l-0.1,0.3c-1,2.7,1.2,8.9,1.7,10.1c0.5,1.2,1.4,3.4,2.6,5.4
  c-4.3-1.7-10.1-4.4-11.7-6l-1.1-1.1l-13,13c-1.2,1.2-2.9,1.9-4.7,1.9s-3.4-0.7-4.7-1.9L96,152.2c-2.6-2.6-2.6-6.8,0-9.3l32.4-32.4
  c1.2-1.2,2.9-1.9,4.7-1.9c1.8,0,3.4,0.7,4.7,1.9l25.3,25.3C165.5,138.3,165.5,142.5,163,145.1z M170.2,127.3l-4.2,4.2
  c-0.7,0.7-1.8,0.8-2.6,0.2l0,0l-23.4-23.4c-1.8-1.8-4.3-2.9-6.9-2.9c-2.6,0-5.1,1-6.9,2.9L103,131.4l0,0c-0.7,0.5-1.5,0.5-2.2,0.1
  l-4.8-4.8c-0.4-0.7-0.4-1.6,0.1-2.2l23.6-23.6c1.8-1.8,2.9-4.3,2.9-6.9c0-2.6-1-5.1-2.9-6.9L97.6,64.9l0,0c-0.6-0.8-0.5-1.9,0.2-2.6
  l4.2-4.2c0.7-0.7,1.8-0.8,2.6-0.2l0,0l22.5,22.5c1.8,1.8,4.3,2.9,6.9,2.9c2.6,0,5.1-1,6.9-2.9l22-22c0.8-0.6,1.9-0.5,2.6,0.2
  l4.2,4.2c0.7,0.7,0.8,1.8,0.2,2.6l0,0L147.4,88c-3.8,3.8-3.8,10,0,13.8l23,23l0,0C170.9,125.5,170.9,126.6,170.2,127.3z
   M216.6,106.7l-25.3,25.3c-1.2,1.2-2.9,1.9-4.7,1.9c-1.8,0-3.4-0.7-4.7-1.9l-32.4-32.4c-2.6-2.6-2.6-6.8,0-9.3l25.3-25.3
  c1.2-1.2,2.9-1.9,4.7-1.9c1.8,0,3.4,0.7,4.7,1.9l10.7,10.7l0.3,0.1c0.5,0.2,1.1,0.3,1.8,0.3c3,0,9.4-1.9,13.7-4.5
  c-1.7,4.3-4.4,10.1-6,11.7l-1.1,1.1l13,13c1.2,1.2,1.9,2.9,1.9,4.7C218.6,103.8,217.9,105.4,216.6,106.7z"/>
<path class="st1" d="M171.7,99.1c-1.7,0-3-0.5-4-1.4c-0.9-0.9-1.4-2.2-1.4-3.8c0-1.6,0.4-2.8,1.3-3.8c0.9-0.9,1.9-1.4,3.3-1.4
  c1.4,0,3,0.6,4.8,1.7l2.3,1.5v-8l-0.9-0.4c-1.3-0.6-2.4-1-3.3-1.2c-0.9-0.2-2-0.3-3.1-0.3c-3.4,0-6.2,1.1-8.3,3.4
  c-2.1,2.2-3.1,5.1-3.1,8.6c0,3.5,1.1,6.4,3.2,8.5c2.1,2.1,5,3.2,8.6,3.2c2.1,0,4.2-0.4,6.4-1.2l1-0.4v-7.3l-2.1,1
  C174.5,98.7,173,99.1,171.7,99.1z"/>
<rect x="206.5" y="84.8" class="st0" width="9.4" height="15.9"/>
<path class="st1" d="M196.5,83.2c-1.3-0.8-2.8-1.2-4.4-1.2c-1.7,0-3.3,0.4-4.6,1.2V72h-7v33.4h7V90.2c0.7-0.7,1.3-1.2,1.8-1.5
  c0.5-0.3,1.1-0.5,1.7-0.5c0.7,0,1.2,0.2,1.7,0.8c0.5,0.6,0.7,1.5,0.7,2.6v13.9h7V92.5c0-2.6-0.3-4.5-0.9-5.8
  C198.8,85.2,197.8,84.1,196.5,83.2z"/>
<path class="st1" d="M238.9,83.2c-1.3-0.8-2.7-1.2-4.3-1.2c-1.6,0-3.1,0.4-4.5,1.2v-0.9h-7.1v23h7.1V90.1c0.9-1.2,2-1.8,3.3-1.8
  c1,0,1.6,0.2,1.9,0.7c0.2,0.3,0.7,1.3,0.7,3.5v12.9h7V92.5c0-2.7-0.3-4.7-1-6C241.3,85.1,240.3,84,238.9,83.2z"/>
<path class="st1" d="M260.8,101.6c-0.8-0.3-2.4-0.8-5-1.4c-1.1-0.2-1.7-0.4-2.1-0.6c0.1,0,0.3-0.1,0.4-0.1c2.3-0.3,4-0.8,5.1-1.5
  c1.2-0.7,2.1-1.6,2.8-2.9c0.7-1.2,1.1-2.5,1.1-3.8c0-1.1-0.2-2-0.6-2.9c0,0,0,0,0,0h2.6v-6.1h-9.8c-3,0-5.5,0.7-7.3,2.2
  c-1.9,1.5-2.9,3.6-2.9,6.2c0,2.6,0.9,4.6,2.8,6.2c-0.1,0.1-0.1,0.1-0.2,0.2c-1.1,1-1.4,2.1-1.4,2.9c0,0.7,0.2,1.3,0.6,2
  c-3,1.5-3.7,4-3.7,5.8c0,2.4,1.1,4.4,3.2,5.8c1.9,1.3,4.5,2,7.7,2c3.1,0,5.7-0.7,7.6-2c2.1-1.4,3.2-3.4,3.2-5.8
  c0-1.9-0.6-3.4-1.9-4.7C262.5,102.5,261.7,102,260.8,101.6z M251.7,91c0-0.6,0.2-1.1,0.7-1.5c0.5-0.5,1-0.7,1.7-0.7
  c0.7,0,1.3,0.2,1.8,0.6c0.4,0.4,0.6,0.9,0.6,1.5c0,0.6-0.2,1.1-0.6,1.5c-0.5,0.4-1,0.6-1.8,0.6c-0.7,0-1.3-0.2-1.8-0.6
  C251.9,92.1,251.7,91.6,251.7,91z M258.2,108c0,0.2,0,0.5-0.6,0.9c-0.7,0.4-1.9,0.6-3.4,0.6c-2.7,0-4.1-0.5-4.1-1.6
  c0-0.2,0-0.5,0.6-0.9c0.6-0.4,1.4-0.6,2.4-0.6c1.7,0,3.1,0.2,4.1,0.7C257.6,107.3,258.2,107.6,258.2,108z"/>
<path class="st1" d="M221.4,104l0.2-0.1c0.1-0.6,0.2-1.3,0.2-1.9c0-1.3-0.3-2.6-0.8-3.8l-1.3,0.9c-0.2,0.2-0.4,0.3-0.6,0.4v-7.6
  c0-1.8-0.1-3-0.2-3.7c-0.1-0.8-0.4-1.6-0.8-2.3c-0.4-0.8-0.9-1.4-1.5-1.8c-1.6-1.4-3.7-2.1-6.2-2.1c-3.3,0-6,1.1-7.8,3.3l-0.4,0.4
  v8.8l2.6-2.9c1.7-1.9,3.5-2.9,5.2-2.9c1.6,0,2.1,0.5,2.1,2.1l-4.1,1.4c-1.9,0.7-3.4,1.6-4.5,2.8c-1.2,1.3-1.8,2.8-1.8,4.4
  c0,1.8,0.6,3.3,1.8,4.5c1.2,1.2,2.7,1.8,4.5,1.8c1.7,0,3.3-0.4,4.8-1.3c0.6,0.7,1.7,1.3,3.5,1.3c0.8,0,1.5-0.1,2.3-0.4
  C219.6,105.1,220.4,104.7,221.4,104z M212.2,99.3c-0.6,0.5-1.3,0.7-2,0.7c-0.4,0-0.8-0.1-1-0.3c-0.2-0.2-0.3-0.5-0.3-0.9
  c0-0.4,0.1-0.7,0.4-1c0.2-0.2,0.8-0.7,2.3-1.3l0.6-0.2V99.3z"/>
<path class="st1" d="M283.6,96.5l-0.5,0.4c-2,1.4-4,2.1-6.3,2.1c-1.5,0-2.6-0.4-3.5-1.3c-0.6-0.5-1-1.2-1.2-2h10.4h2.2h0.9h0.3v-2
  c0-3.5-0.9-6.3-2.7-8.4c-1.9-2.2-4.4-3.3-7.5-3.3c-3.2,0-5.8,1.1-7.8,3.4c-2,2.2-3,5-3,8.4c0,2.3,0.5,4.3,1.4,6.1
  c0.9,1.8,2.2,3.2,3.8,4.2c1.6,1.1,3.7,1.6,6.2,1.6c1.7,0,3.3-0.2,4.6-0.6c1.3-0.4,2.7-1,4-1.9l0.7-0.4v-6.3H283.6z M273.2,89.3
  c0.6-0.6,1.4-0.9,2.5-0.9c1,0,1.8,0.3,2.3,0.8c0.3,0.3,0.5,0.6,0.7,1.1h-6.2C272.6,90,272.9,89.6,273.2,89.3z"/>
<path class="st1" d="M107.3,96.5l-0.5,0.4c-2,1.4-4,2.1-6.3,2.1c-1.5,0-2.6-0.4-3.5-1.3c-0.6-0.5-1-1.2-1.2-2h10.4h2.2h0.9h0.3v-2
  c0-3.5-0.9-6.3-2.7-8.4c-1.9-2.2-4.4-3.3-7.5-3.3c-3.2,0-5.8,1.1-7.8,3.4c-2,2.2-3,5-3,8.4c0,2.3,0.5,4.3,1.4,6.1
  c0.9,1.8,2.2,3.2,3.8,4.2c1.6,1.1,3.7,1.6,6.2,1.6c1.7,0,3.3-0.2,4.6-0.6c1.3-0.4,2.7-1,4-1.9l0.7-0.4v-6.3H107.3z M96.8,89.3
  c0.6-0.6,1.4-0.9,2.5-0.9c1,0,1.8,0.3,2.3,0.8c0.3,0.3,0.5,0.6,0.7,1.1h-6.2C96.3,90,96.5,89.6,96.8,89.3z"/>
<path class="st2" d="M139.9,108.3l23.4,23.4l0,0c0.8,0.6,1.9,0.5,2.6-0.2l4.2-4.2c0.7-0.7,0.8-1.8,0.2-2.6l0,0l-23-23
  c-3.8-3.8-3.8-10,0-13.8l22.4-22.4l0,0c0.6-0.8,0.5-1.9-0.2-2.6l-4.2-4.2c-0.7-0.7-1.8-0.8-2.6-0.2l-22,22c-1.8,1.8-4.3,2.9-6.9,2.9
  c-2.6,0-5.1-1-6.9-2.9L104.6,58l0,0c-0.8-0.6-1.9-0.5-2.6,0.2l-4.2,4.2c-0.7,0.7-0.8,1.8-0.2,2.6l0,0L119.6,87
  c1.8,1.8,2.9,4.3,2.9,6.9c0,2.6-1,5.1-2.9,6.9L96,124.4c-0.5,0.7-0.5,1.5-0.1,2.2l4.8,4.8c0.7,0.4,1.6,0.4,2.2-0.1l0,0l23.1-23.1
  c1.8-1.8,4.3-2.9,6.9-2.9C135.6,105.4,138.1,106.4,139.9,108.3z"/>
<g>
  <path class="st1" d="M38.7,45.2c0-0.5,0.1-1.1,0.2-1.8c0.2-0.7,0.4-1.4,0.9-1.9c0.4-0.5,0.9-0.9,1.6-1.3c0.7-0.4,1.4-0.5,2.1-0.5
    c0.7,0,1.4,0.2,1.8,0.6c0.5,0.4,0.7,1.1,0.7,1.9c0,0.8-0.1,1.6-0.4,2.4c-0.3,0.8-0.7,1.4-1.2,1.8c-0.5,0.4-1,0.7-1.5,1
    c-0.5,0.3-1.1,0.4-1.8,0.4c-0.6,0-1.1-0.1-1.5-0.4c-0.4-0.2-0.6-0.6-0.7-1C38.8,46,38.7,45.6,38.7,45.2z M40.6,45.1
    c0,0.6,0.1,1.1,0.4,1.4c0.2,0.3,0.6,0.4,1,0.4c0.3,0,0.6-0.1,0.8-0.3c0.2-0.2,0.5-0.5,0.7-0.9c0.2-0.4,0.4-1,0.5-1.7
    c0.1-0.7,0.2-1.3,0.2-1.8c0-0.7-0.1-1.2-0.4-1.4c-0.3-0.3-0.6-0.4-1-0.4c-0.4,0-0.8,0.2-1.1,0.5c-0.3,0.3-0.6,0.9-0.8,1.8
    C40.7,43.6,40.6,44.4,40.6,45.1z"/>
  <path class="st1" d="M47.7,45.1h0.4l0.1,0.1l0,0.7c0.2,0.3,0.5,0.5,0.9,0.7c0.4,0.2,0.8,0.3,1.2,0.3c0.3,0,0.5,0,0.8-0.1
    c0.2-0.1,0.4-0.2,0.5-0.4c0.1-0.2,0.2-0.4,0.2-0.6c0-0.2,0-0.4-0.1-0.5c-0.1-0.1-0.2-0.3-0.4-0.4c-0.2-0.1-0.4-0.2-0.8-0.2
    c-0.5-0.1-0.9-0.2-1.1-0.3s-0.4-0.2-0.6-0.3c-0.2-0.1-0.3-0.3-0.4-0.6C48.1,43,48,42.8,48,42.5s0.1-0.6,0.2-0.8
    c0.1-0.3,0.3-0.5,0.5-0.7c0.2-0.2,0.5-0.4,1-0.7c0.4-0.3,0.8-0.4,1-0.5c0.2-0.1,0.5-0.1,0.9-0.1c0.7,0,1.4,0.2,2,0.5
    c-0.1,0.5-0.2,1.1-0.3,1.8l-0.1,0.1h-0.3L52.7,42l-0.1-0.7c-0.2-0.2-0.5-0.4-0.8-0.5c-0.3-0.1-0.6-0.2-1-0.2
    c-0.4,0-0.7,0.1-0.9,0.3c-0.2,0.2-0.4,0.5-0.4,0.8c0,0.4,0.1,0.6,0.4,0.8c0.2,0.2,0.7,0.3,1.4,0.4c0.5,0.1,0.9,0.2,1.1,0.3
    c0.2,0.1,0.4,0.3,0.6,0.6c0.2,0.3,0.2,0.6,0.2,0.9c0,0.4-0.1,0.7-0.2,1c-0.2,0.3-0.5,0.6-0.9,1c-0.5,0.4-0.9,0.6-1.2,0.8
    c-0.4,0.1-0.8,0.2-1.4,0.2c-0.3,0-0.6,0-0.9-0.1c-0.3,0-0.7-0.2-1.2-0.4l0-0.1c0.1-0.2,0.1-0.5,0.2-1
    C47.6,45.7,47.6,45.4,47.7,45.1L47.7,45.1z"/>
  <path class="st1" d="M60.2,45.6l0.2,0.3l0,0.1c-0.9,0.7-1.7,1.1-2.2,1.4c-0.6,0.2-1.1,0.4-1.5,0.4c-0.4,0-0.7-0.1-1.1-0.2
    c-0.3-0.2-0.6-0.4-0.7-0.7c-0.1-0.3-0.2-0.6-0.2-1c0-0.6,0.1-1.3,0.3-2.2c0.2-0.9,0.5-1.5,0.8-2c0.3-0.4,0.9-0.9,1.6-1.3
    c0.8-0.4,1.4-0.6,1.9-0.6c0.5,0,0.8,0.1,1.1,0.4c0.3,0.2,0.4,0.6,0.4,1c0,0.5-0.2,1-0.5,1.5c-0.3,0.4-0.9,0.8-1.6,1.1
    c-0.7,0.3-1.5,0.5-2.3,0.6c-0.1,0.4-0.1,0.7-0.1,1.1c0,0.5,0.1,0.9,0.4,1.1c0.2,0.2,0.5,0.3,0.8,0.3c0.2,0,0.5,0,0.7-0.1
    s0.5-0.2,0.7-0.3C59.2,46.1,59.6,45.9,60.2,45.6L60.2,45.6z M56.6,43.8c1.1-0.2,1.8-0.6,2.2-1.1c0.4-0.5,0.6-1,0.6-1.4
    c0-0.3-0.1-0.4-0.2-0.6c-0.1-0.1-0.3-0.2-0.5-0.2c-0.4,0-0.8,0.2-1.1,0.7C57.1,41.6,56.8,42.5,56.6,43.8z"/>
  <path class="st1" d="M65.5,35.6l0.2,0.2c-0.6,2.3-1,4.5-1.5,6.6c0.6-0.9,1.3-1.6,2-2c0.7-0.4,1.3-0.6,1.9-0.6
    c0.4,0,0.7,0.2,0.9,0.6c0.2,0.4,0.3,0.9,0.3,1.4c0,0.9-0.2,1.8-0.5,2.7c-0.4,0.9-1,1.7-2,2.4c-1,0.6-1.9,0.9-2.7,0.9
    c-0.4,0-0.8-0.1-1.1-0.2c-0.3-0.1-0.5-0.3-0.7-0.6c-0.1-0.3-0.2-0.6-0.2-0.9c0-0.3,0-0.6,0.1-0.9c0-0.3,0.2-1,0.4-2.1
    c0.7-3.6,1-5.5,1-5.7c0-0.1,0-0.2-0.1-0.3s-0.2-0.1-0.4-0.1c-0.2,0-0.4,0-0.8,0l-0.1-0.1l0.1-0.3l0.1-0.1
    C63.5,36.2,64.5,36,65.5,35.6z M63.9,45.6c0,0.5,0.1,0.8,0.3,1.1c0.2,0.2,0.5,0.3,0.8,0.3c0.3,0,0.6-0.1,0.8-0.3
    c0.3-0.2,0.6-0.6,0.8-1c0.2-0.5,0.4-1,0.6-1.7c0.2-0.7,0.2-1.2,0.2-1.7c0-0.4-0.1-0.8-0.2-1c-0.1-0.2-0.3-0.3-0.5-0.3
    c-0.2,0-0.4,0.1-0.7,0.2c-0.3,0.2-0.6,0.4-0.9,0.8c-0.3,0.3-0.6,0.7-0.7,1.1c-0.2,0.4-0.3,0.8-0.5,1.3
    C63.9,44.7,63.9,45.1,63.9,45.6z"/>
  <path class="st1" d="M78.2,45.7l0.2,0.3l0,0.1c-1,0.7-1.6,1.1-2,1.3s-0.7,0.3-0.9,0.3c-0.2,0-0.3-0.1-0.4-0.2s-0.1-0.3-0.1-0.5
    c0-0.2,0-0.5,0.1-1c0.1-0.4,0.3-1.2,0.5-2.3c-0.9,1.5-1.7,2.6-2.4,3.1c-0.7,0.6-1.3,0.9-1.7,0.9c-0.2,0-0.5-0.1-0.6-0.3
    c-0.2-0.2-0.3-0.6-0.3-1.2c0-0.5,0.1-1.1,0.2-1.7c0.1-0.7,0.4-1.3,0.6-2c0.1-0.3,0.3-0.6,0.5-0.8c0.2-0.2,0.6-0.5,1.2-1
    c0.6-0.5,1.1-0.7,1.3-0.8c0.3-0.1,0.6-0.1,0.9-0.1c0.2,0,0.5,0,0.8,0.1c0.3,0.1,0.6,0.2,0.9,0.3l0.7-0.4L78,40
    c-0.1,0.3-0.3,0.9-0.5,1.7l-0.6,2.7c-0.2,0.9-0.3,1.5-0.3,1.7c0,0.2,0.1,0.3,0.2,0.3C77,46.4,77.4,46.2,78.2,45.7L78.2,45.7z
     M75.9,41c-0.5-0.2-0.9-0.4-1.3-0.4c-0.4,0-0.7,0.2-1,0.5c-0.3,0.3-0.5,1.1-0.8,2.2c-0.3,1.1-0.4,2-0.4,2.5c0,0.4,0.1,0.6,0.3,0.6
    c0.2,0,0.6-0.3,1.2-1c0.6-0.7,1-1.4,1.4-2.2C75.7,42.4,75.9,41.7,75.9,41z"/>
  <path class="st1" d="M79.6,47.7l-0.2-0.2c0.2-0.4,0.4-1.1,0.6-2.1c0.3-1,0.4-1.8,0.6-2.5c0.1-0.7,0.2-1.2,0.2-1.4
    c0-0.2-0.1-0.3-0.2-0.3c-0.2,0-0.5,0.2-1.1,0.7l-0.1,0l-0.2-0.3l0-0.1c0.3-0.2,0.6-0.5,1-0.8c0.4-0.3,0.7-0.5,1-0.7
    c0.3-0.2,0.5-0.3,0.7-0.4c0.1,0,0.3-0.1,0.4-0.1c0.3,0,0.4,0.2,0.4,0.5c0,0.2,0,0.6-0.1,1.1c-0.1,0.5-0.3,1.3-0.6,2.4
    c0.6-1.1,1.3-2,2.2-2.8c0.9-0.8,1.6-1.2,2.2-1.2c0.4,0,0.7,0.2,0.7,0.7c0,0.3-0.1,0.7-0.2,1.2c-0.1,0.5-0.3,1.3-0.6,2.2
    c-0.2,0.7-0.3,1.2-0.4,1.5c-0.1,0.4-0.1,0.6-0.1,0.7c0,0.2,0.1,0.3,0.2,0.3c0.2,0,0.6-0.2,1.2-0.6l0.1,0l0.2,0.3l0,0.1
    c-0.9,0.7-1.5,1.1-1.9,1.3s-0.7,0.3-1,0.3c-0.2,0-0.4-0.1-0.4-0.3c-0.1-0.2-0.1-0.3-0.1-0.5c0-0.4,0.2-1.3,0.6-2.6
    c0.4-1.4,0.6-2.3,0.6-2.7c0-0.2-0.1-0.3-0.3-0.3c-0.1,0-0.2,0-0.4,0.1c-0.2,0.1-0.4,0.3-0.7,0.6c-0.3,0.3-0.6,0.7-0.9,1.1
    c-0.3,0.4-0.5,0.9-0.7,1.3c-0.2,0.5-0.4,1-0.5,1.6c-0.1,0.6-0.2,1-0.2,1.3C80.7,47.4,80.1,47.5,79.6,47.7z"/>
  <path class="st1" d="M89.4,36.8L89.4,36.8l0-0.4l0.1-0.1c1.1-0.1,2.2-0.4,3.2-0.7l0.2,0.2c-0.3,1.1-0.8,3.7-1.7,8
    c0,0,0.2-0.3,0.6-0.7c0.5-0.6,0.9-1.1,1.3-1.5c0.4-0.4,0.8-0.8,1.2-1.1c0.4-0.3,0.7-0.5,1-0.6c0.3-0.1,0.6-0.2,0.9-0.2
    c0.1,0,0.3,0,0.4,0l0,0.1c-0.2,0.5-0.3,0.9-0.3,1.2l-0.1,0.1C96,41,95.7,41,95.5,41c-0.3,0-0.7,0.1-1.1,0.3s-0.8,0.5-1.2,1
    c0.1,0.2,0.2,0.7,0.5,1.5c0.3,0.9,0.6,1.5,0.8,1.9c0.2,0.4,0.3,0.6,0.4,0.7c0.1,0.1,0.2,0.1,0.3,0.1c0.2,0,0.6-0.2,1.1-0.6l0.1,0
    l0.2,0.3l0,0.1c-0.2,0.1-0.4,0.3-0.6,0.4c-1,0.7-1.7,1-2,1c-0.1,0-0.2,0-0.3-0.1c-0.1,0-0.2-0.1-0.3-0.3c-0.1-0.2-0.2-0.4-0.4-0.7
    c-0.1-0.3-0.3-0.8-0.6-1.5c-0.3-0.7-0.4-1.2-0.5-1.4c-0.3,0.3-0.5,0.5-0.6,0.7c-0.1,0.2-0.2,0.3-0.3,0.5c-0.1,0.1-0.1,0.4-0.2,0.9
    c-0.1,0.4-0.1,0.8-0.2,1c0,0.2,0,0.4,0,0.6c-0.5,0-1.1,0.1-1.8,0.3l-0.1-0.2c0.4-1.5,0.9-3.6,1.4-6.1c0.5-2.5,0.7-3.9,0.7-4.1
    c0-0.1,0-0.2-0.1-0.3c-0.1-0.1-0.2-0.1-0.3-0.1C90.1,36.8,89.8,36.8,89.4,36.8z"/>
</g>
<g>
  <g>
    <path class="st2" d="M176.9,99.2v3.9c-2,0.7-3.9,1.1-5.8,1.1c-3.1,0-5.6-0.9-7.5-2.8c-1.9-1.9-2.8-4.3-2.8-7.5
      c0-3.1,0.9-5.7,2.7-7.6c1.8-1.9,4.2-2.9,7.2-2.9c1,0,2,0.1,2.8,0.3c0.8,0.2,1.8,0.6,3,1.1v4.2c-2-1.3-3.9-1.9-5.6-1.9
      c-1.8,0-3.2,0.6-4.4,1.9c-1.1,1.3-1.7,2.9-1.7,4.8c0,2,0.6,3.7,1.9,4.9c1.2,1.2,2.9,1.8,5,1.8C173.2,100.6,174.9,100.1,176.9,99.2
      z"/>
    <path class="st2" d="M182,73.5h4v13c1.7-2,3.7-3,6.2-3c1.3,0,2.5,0.3,3.6,1c1.1,0.7,1.8,1.6,2.4,2.8c0.5,1.2,0.8,2.9,0.8,5.2v11.4
      h-4V91.5c0-1.5-0.4-2.6-1.1-3.5s-1.7-1.3-2.8-1.3c-0.9,0-1.7,0.2-2.5,0.7c-0.8,0.4-1.6,1.2-2.5,2.2v14.3h-4V73.5z"/>
    <path class="st2" d="M217.6,91.9v8.5c0,0.7,0.2,1,0.7,1c0.5,0,1.2-0.4,2.2-1.1v2.4c-0.9,0.6-1.6,1-2.2,1.2
      c-0.5,0.2-1.1,0.3-1.7,0.3c-1.7,0-2.7-0.7-3-2c-1.7,1.3-3.5,2-5.4,2c-1.4,0-2.6-0.5-3.5-1.4c-0.9-0.9-1.4-2.1-1.4-3.5
      c0-1.3,0.5-2.4,1.4-3.4c0.9-1,2.2-1.8,3.9-2.4l5.1-1.7v-1.1c0-2.4-1.2-3.6-3.6-3.6c-2.2,0-4.3,1.1-6.3,3.3v-4.3
      c1.5-1.8,3.7-2.7,6.6-2.7c2.2,0,3.9,0.6,5.2,1.7c0.4,0.4,0.8,0.8,1.2,1.4c0.3,0.6,0.6,1.2,0.7,1.8
      C217.6,89.1,217.6,90.2,217.6,91.9z M213.7,100V94l-2.7,1c-1.3,0.5-2.3,1.1-2.9,1.6c-0.6,0.5-0.8,1.2-0.8,2c0,0.8,0.3,1.5,0.8,2
      c0.5,0.5,1.2,0.8,2.1,0.8C211.5,101.5,212.6,101,213.7,100z"/>
    <path class="st2" d="M228.7,83.9v2.5c1.8-2,3.8-2.9,6-2.9c1.2,0,2.4,0.3,3.5,1c1.1,0.6,1.9,1.5,2.4,2.7c0.6,1.1,0.8,2.9,0.8,5.3
      v11.4h-4V92.5c0-2-0.3-3.5-0.9-4.4c-0.6-0.9-1.7-1.3-3.1-1.3c-1.9,0-3.5,0.9-4.8,2.8v14.3h-4v-20H228.7z"/>
    <path class="st2" d="M246.6,90.8c0-2.1,0.8-3.8,2.3-5.1c1.6-1.2,3.7-1.9,6.4-1.9h8.2V87h-4c0.8,0.8,1.3,1.5,1.6,2.2
      c0.3,0.7,0.5,1.4,0.5,2.2c0,1-0.3,2.1-0.9,3.1c-0.6,1-1.4,1.8-2.3,2.3c-0.9,0.5-2.5,1-4.6,1.3c-1.5,0.2-2.2,0.7-2.2,1.5
      c0,0.5,0.3,0.8,0.8,1.1c0.6,0.3,1.6,0.6,3,0.9c2.5,0.5,4,1,4.7,1.3c0.7,0.3,1.3,0.7,1.9,1.3c1,1,1.4,2.2,1.4,3.6
      c0,1.9-0.8,3.4-2.5,4.5c-1.7,1.1-3.9,1.7-6.8,1.7c-2.9,0-5.1-0.6-6.8-1.7c-1.7-1.1-2.6-2.7-2.6-4.6c0-2.7,1.7-4.5,5-5.2
      c-1.3-0.9-2-1.7-2-2.5c0-0.6,0.3-1.2,0.9-1.7c0.6-0.5,1.3-0.9,2.3-1.2C248.1,95.8,246.6,93.7,246.6,90.8z M253.1,104.8
      c-1.3,0-2.4,0.3-3.3,0.8c-0.8,0.6-1.3,1.3-1.3,2.2c0,2.1,1.9,3.1,5.6,3.1c1.8,0,3.1-0.3,4.1-0.8c1-0.5,1.4-1.2,1.4-2.2
      c0-0.9-0.6-1.7-1.8-2.3C256.6,105.1,255,104.8,253.1,104.8z M254.1,87.3c-1.1,0-2,0.4-2.7,1.1c-0.8,0.7-1.1,1.6-1.1,2.6
      c0,1,0.4,1.9,1.1,2.6c0.7,0.7,1.7,1,2.8,1c1.1,0,2-0.3,2.8-1c0.7-0.7,1.1-1.5,1.1-2.6c0-1-0.4-1.9-1.1-2.6
      C256.1,87.7,255.2,87.3,254.1,87.3z"/>
    <path class="st2" d="M284.4,94.3h-14.1c0.1,1.9,0.7,3.4,1.9,4.6c1.2,1.1,2.7,1.7,4.6,1.7c2.6,0,5-0.8,7.2-2.4v3.9
      c-1.2,0.8-2.4,1.4-3.6,1.7c-1.2,0.3-2.6,0.5-4.2,0.5c-2.2,0-4-0.5-5.3-1.4c-1.4-0.9-2.5-2.1-3.3-3.7c-0.8-1.5-1.2-3.3-1.2-5.4
      c0-3,0.9-5.5,2.6-7.4c1.7-1.9,4-2.9,6.7-2.9c2.7,0,4.8,0.9,6.4,2.8c1.6,1.9,2.4,4.3,2.4,7.5V94.3z M270.4,91.9h10.1
      c-0.1-1.6-0.6-2.8-1.4-3.7c-0.8-0.9-2-1.3-3.4-1.3c-1.4,0-2.6,0.4-3.5,1.3C271.2,89.1,270.7,90.3,270.4,91.9z"/>
  </g>
  <path class="st2" d="M108,94.3H93.9c0.1,1.9,0.7,3.4,1.9,4.6c1.2,1.1,2.7,1.7,4.6,1.7c2.6,0,5-0.8,7.2-2.4v3.9
    c-1.2,0.8-2.4,1.4-3.6,1.7c-1.2,0.3-2.6,0.5-4.2,0.5c-2.2,0-4-0.5-5.3-1.4c-1.4-0.9-2.5-2.1-3.3-3.7c-0.8-1.5-1.2-3.3-1.2-5.4
    c0-3,0.9-5.5,2.6-7.4c1.7-1.9,4-2.9,6.7-2.9c2.7,0,4.8,0.9,6.3,2.8c1.6,1.9,2.4,4.3,2.4,7.5V94.3z M94,91.9h10.1
    c-0.1-1.6-0.6-2.8-1.4-3.7c-0.8-0.9-2-1.3-3.4-1.3c-1.4,0-2.6,0.4-3.5,1.3C94.9,89.1,94.3,90.3,94,91.9z"/>
</g>
<g>
  <path class="st1" d="M39.8,53.3c1.4,2.5,2.3,4,2.7,4.5s0.8,0.9,1.1,1.1c0.3,0.2,1.1,0.3,2.3,0.4l0.2,0.2l-0.1,1.3l-0.3,0.2
    c-1.3-0.1-2.9-0.2-4.6-0.2c-1.7,0-3.5,0.1-5.2,0.2c-5-9.5-8.8-16.3-11.4-20.2l0.2-0.9c0.5,0,1.1,0.1,1.6,0.1c3.2,0,5.7-0.8,7.5-2.4
    c1.8-1.6,2.7-3.9,2.7-6.9c0-4-2.3-5.9-6.8-5.9c-1.9,0-3.4,0.1-4.4,0.4l-3.6,21c-1.1,6.2-1.6,9.8-1.6,10.7v0.6
    c0,0.5,0.1,0.9,0.4,1.1s0.9,0.4,1.9,0.5l2.9,0.2l0.2,0.2l-0.2,1.3l-0.2,0.2c-3-0.1-6-0.2-9-0.2c-3,0-5.8,0.1-8.6,0.2l-0.2-0.2
    l0.2-1.4l0.3-0.2L9,59.2c1.1-0.1,1.9-0.1,2.4-0.2s1-0.9,1.3-2.4c0.4-1.5,0.8-3.6,1.2-6.2l2.5-14.5c0.9-5.4,1.4-8.7,1.4-10
    c0-0.6-0.2-1-0.5-1.2c-0.3-0.2-1-0.3-2-0.3L13,24.2L12.8,24l0.2-1.4l0.3-0.2c2.3,0.1,5.2,0.2,8.6,0.2l10.8-0.2
    c4.7,0,7.8,0.8,9.2,2.5c1.4,1.6,2.1,3.5,2.1,5.5c0,2.4-0.9,4.5-2.6,6.4c-1.7,1.9-4.7,3.3-8.9,4.1L39.8,53.3z"/>
</g>
</svg>
