<?xml version="1.0" encoding="utf-8"?>
<!-- Generator: Adobe Illustrator 19.0.0, SVG Export Plug-In . SVG Version: 6.00 Build 0)  -->
<svg version="1.1" id="Layer_1" xmlns="http://www.w3.org/2000/svg" xmlns:xlink="http://www.w3.org/1999/xlink" x="0px" y="0px"
   viewBox="0 0 266 186.5" style="enable-background:new 0 0 266 186.5;" xml:space="preserve">
<style type="text/css">
  .st0{fill:#CB9932;}
  .st1{fill:#FFFFFF;}
  .st2{fill:#203C88;}
</style>
<g>
  <g>
    <path class="st0" d="M166.4,74.7l-0.3-0.1l-10.7-10.7c-1.2-1.2-2.9-1.9-4.7-1.9c-1.8,0-3.4,0.7-4.7,1.9l-25.3,25.3
      c-2.6,2.6-2.6,6.8,0,9.3l32.4,32.4c1.2,1.2,2.9,1.9,4.7,1.9c1.8,0,3.4-0.7,4.7-1.9l25.3-25.3c1.2-1.2,1.9-2.9,1.9-4.7
      c0-1.8-0.7-3.4-1.9-4.7l-13-13l1.1-1.1c1.6-1.6,4.3-7.4,6-11.7c-4.4,2.6-10.8,4.5-13.7,4.5C167.4,75,166.8,74.9,166.4,74.7z"/>
    <path class="st0" d="M134.1,134.7l-25.3-25.3c-1.2-1.2-2.9-1.9-4.7-1.9s-3.4,0.7-4.7,1.9l-32.4,32.4c-2.6,2.6-2.6,6.8,0,9.3
      l25.3,25.3c1.2,1.2,2.9,1.9,4.7,1.9c1.8,0,3.4-0.7,4.7-1.9l13-13l1.1,1.1c1.6,1.6,7.4,4.3,11.7,6c-1.2-2-2.1-4.2-2.6-5.4
      c-0.5-1.2-2.7-7.4-1.7-10.1l0.1-0.3l10.7-10.7C136.6,141.5,136.6,137.3,134.1,134.7z"/>
    <path class="st0" d="M75.2,52l25.3,25.3c1.2,1.2,2.9,1.9,4.7,1.9c1.8,0,3.4-0.7,4.7-1.9l32.4-32.4c2.6-2.6,2.6-6.8,0-9.3
      l-25.3-25.3c-1.2-1.2-2.9-1.9-4.7-1.9c-1.8,0-3.4,0.7-4.7,1.9l-13,13l-1.1-1.1c-1.6-1.6-7.4-4.3-11.7-6c1.2,2,2.1,4.2,2.6,5.4
      c0.5,1.2,2.7,7.4,1.7,10.1l-0.1,0.3L75.2,42.6c-1.2,1.2-1.9,2.9-1.9,4.7C73.2,49.1,73.9,50.7,75.2,52z"/>
    <path class="st0" d="M42.9,112l0.3,0.1l10.7,10.7c1.2,1.2,2.9,1.9,4.7,1.9c1.8,0,3.4-0.7,4.7-1.9l25.3-25.3
      c1.2-1.2,1.9-2.9,1.9-4.7c0-1.8-0.7-3.4-1.9-4.7L56.1,55.8c-1.2-1.2-2.9-1.9-4.7-1.9c-1.8,0-3.4,0.7-4.7,1.9L21.5,81.1
      c-1.2,1.2-1.9,2.9-1.9,4.7s0.7,3.4,1.9,4.7l13,13l-1.1,1.1c-1.6,1.6-4.3,7.4-6,11.7c4.4-2.6,10.8-4.5,13.8-4.5
      C41.8,111.7,42.4,111.8,42.9,112z"/>
  </g>
  <path class="st1" d="M190,94.1l-10.9-10.9c1.7-2.4,3.6-6.5,4.6-9c3.4-7.9,3-8.8,2.8-9.3c-0.3-0.6-0.8-1-1.5-1c-1,0-1.5,0.8-1.8,1.3
    c-1.7,2.8-11,6.6-15.1,6.6c-0.2,0-0.3,0-0.4,0l-10.1-10.1c-1.8-1.8-4.3-2.9-6.9-2.9c-2.1,0-4.1,0.7-5.8,1.9l-7.1-7.1l6.6-6.6
    c3.8-3.8,3.8-10,0-13.8L119.1,8c-1.8-1.8-4.3-2.9-6.9-2.9c-2.6,0-5.1,1-6.9,2.9L94.5,18.9c-4.5-3.2-15.6-7.6-17.5-7.6
    c-1,0-1.5,0.6-1.7,1.2c-0.4,1.3,0.8,2,1.3,2.3c3.4,2.1,6.9,12.9,6.6,15.5L72.9,40.4c-1.8,1.8-2.9,4.3-2.9,6.9c0,2.1,0.6,4,1.8,5.6
    L64.8,60l-6.5-6.5c-1.8-1.8-4.3-2.9-6.9-2.9c-2.6,0-5.1,1-6.9,2.9L19.3,78.8c-3.8,3.8-3.8,10,0,13.8l10.9,10.9
    c-1.7,2.4-3.6,6.5-4.6,9c-3.4,7.9-3,8.8-2.8,9.3c0.3,0.6,0.8,1,1.5,1c1,0,1.5-0.8,1.8-1.3c1.7-2.8,11-6.6,15.1-6.6
    c0.2,0,0.3,0,0.4,0L51.7,125c1.8,1.8,4.3,2.9,6.9,2.9c1.5,0,3-0.4,4.3-1l7.3,7.3l-5.4,5.4c-3.8,3.8-3.8,10,0,13.8l25.3,25.3
    c1.8,1.8,4.3,2.9,6.9,2.9c2.6,0,5.1-1,6.9-2.9l10.9-10.9c4.5,3.2,15.6,7.6,17.5,7.6h0c1,0,1.5-0.6,1.7-1.2c0.4-1.3-0.8-2-1.3-2.3
    c-3.4-2.1-6.9-12.9-6.6-15.5l10.2-10.2c3.1-3.1,3.7-7.7,1.8-11.4l7.3-7.3l5.5,5.5c1.8,1.8,4.3,2.9,6.9,2.9c2.6,0,5.1-1,6.9-2.9
    l25.3-25.3c1.8-1.8,2.9-4.3,2.9-6.9C192.8,98.4,191.8,95.9,190,94.1z M75.2,42.6l10.7-10.7l0.1-0.3c1-2.7-1.2-8.9-1.7-10.1
    c-0.5-1.2-1.4-3.4-2.6-5.4c4.3,1.7,10.1,4.4,11.7,6l1.1,1.1l13-13c1.2-1.2,2.9-1.9,4.7-1.9c1.8,0,3.4,0.7,4.7,1.9l25.3,25.3
    c2.6,2.6,2.6,6.8,0,9.3l-32.4,32.4c-1.2,1.2-2.9,1.9-4.7,1.9c-1.8,0-3.4-0.7-4.7-1.9L75.2,52c-1.2-1.2-1.9-2.9-1.9-4.7
    C73.2,45.5,73.9,43.9,75.2,42.6z M58.6,124.7c-1.8,0-3.4-0.7-4.7-1.9l-10.7-10.7l-0.3-0.1c-0.5-0.2-1.1-0.3-1.8-0.3
    c-3,0-9.4,1.9-13.8,4.5c1.7-4.3,4.4-10.1,6-11.7l1.1-1.1l-13-13c-1.2-1.2-1.9-2.9-1.9-4.7s0.7-3.4,1.9-4.7l25.3-25.3
    c1.2-1.2,2.9-1.9,4.7-1.9c1.8,0,3.4,0.7,4.7,1.9l32.4,32.4c1.2,1.2,1.9,2.9,1.9,4.7c0,1.8-0.7,3.4-1.9,4.7l-25.3,25.3
    C62,124,60.3,124.7,58.6,124.7z M134.1,144.1l-10.7,10.7l-0.1,0.3c-1,2.7,1.2,8.9,1.7,10.1c0.5,1.2,1.4,3.4,2.6,5.4
    c-4.3-1.7-10.1-4.4-11.7-6l-1.1-1.1l-13,13c-1.2,1.2-2.9,1.9-4.7,1.9s-3.4-0.7-4.7-1.9l-25.3-25.3c-2.6-2.6-2.6-6.8,0-9.3
    l32.4-32.4c1.2-1.2,2.9-1.9,4.7-1.9s3.4,0.7,4.7,1.9l25.3,25.3C136.6,137.3,136.6,141.5,134.1,144.1z M141.3,126.3l-4.2,4.2
    c-0.7,0.7-1.8,0.8-2.6,0.2l0,0L111,107.2c-1.8-1.8-4.3-2.9-6.9-2.9c-2.6,0-5.1,1-6.9,2.9l-23.1,23.1l0,0c-0.7,0.5-1.5,0.5-2.2,0.1
    l-4.8-4.8c-0.4-0.7-0.4-1.6,0.1-2.2l23.6-23.6c1.8-1.8,2.9-4.3,2.9-6.9c0-2.6-1-5.1-2.9-6.9L68.7,63.9l0,0
    c-0.6-0.8-0.5-1.9,0.2-2.6l4.2-4.2c0.7-0.7,1.8-0.8,2.6-0.2l0,0l22.5,22.5c1.8,1.8,4.3,2.9,6.9,2.9c2.6,0,5.1-1,6.9-2.9l22-22
    c0.8-0.6,1.9-0.5,2.6,0.2l4.2,4.2c0.7,0.7,0.8,1.8,0.2,2.6l0,0l-22.4,22.4c-3.8,3.8-3.8,10,0,13.8l23,23l0,0
    C142,124.5,142,125.6,141.3,126.3z M187.7,105.6l-25.3,25.3c-1.2,1.2-2.9,1.9-4.7,1.9c-1.8,0-3.4-0.7-4.7-1.9l-32.4-32.4
    c-2.6-2.6-2.6-6.8,0-9.3L146,63.9c1.2-1.2,2.9-1.9,4.7-1.9c1.8,0,3.4,0.7,4.7,1.9L166,74.6l0.3,0.1c0.5,0.2,1.1,0.3,1.8,0.3
    c3,0,9.4-1.9,13.7-4.5c-1.7,4.3-4.4,10.1-6,11.7l-1.1,1.1l13,13c1.2,1.2,1.9,2.9,1.9,4.7C189.7,102.7,189,104.4,187.7,105.6z"/>
  <path class="st1" d="M142.8,98c-1.7,0-3-0.5-4-1.4c-0.9-0.9-1.4-2.2-1.4-3.8c0-1.6,0.4-2.8,1.3-3.8c0.9-0.9,1.9-1.4,3.3-1.4
    c1.4,0,3,0.6,4.8,1.7l2.3,1.5v-8l-0.9-0.4c-1.3-0.6-2.4-1-3.3-1.2c-0.9-0.2-2-0.3-3.1-0.3c-3.4,0-6.2,1.1-8.3,3.4
    c-2.1,2.2-3.1,5.1-3.1,8.6c0,3.5,1.1,6.4,3.2,8.5c2.1,2.1,5,3.2,8.6,3.2c2.1,0,4.2-0.4,6.4-1.2l1-0.4v-7.3l-2.1,1
    C145.6,97.6,144.1,98,142.8,98z"/>
  <rect x="177.6" y="83.7" class="st0" width="9.4" height="15.9"/>
  <path class="st1" d="M167.6,82.2c-1.3-0.8-2.8-1.2-4.4-1.2c-1.7,0-3.3,0.4-4.6,1.2V71h-7v33.4h7V89.1c0.7-0.7,1.3-1.2,1.8-1.5
    c0.5-0.3,1.1-0.5,1.7-0.5c0.7,0,1.2,0.2,1.7,0.8c0.5,0.6,0.7,1.5,0.7,2.6v13.9h7V91.5c0-2.6-0.3-4.5-0.9-5.8
    C169.9,84.2,168.9,83,167.6,82.2z"/>
  <path class="st1" d="M210,82.2c-1.3-0.8-2.7-1.2-4.3-1.2c-1.6,0-3.1,0.4-4.5,1.2v-0.9h-7.1v23h7.1V89.1c0.9-1.2,2-1.8,3.3-1.8
    c1,0,1.6,0.2,1.9,0.7c0.2,0.3,0.7,1.3,0.7,3.5v12.9h7V91.4c0-2.7-0.3-4.7-1-6C212.4,84,211.4,82.9,210,82.2z"/>
  <path class="st1" d="M231.9,100.5c-0.8-0.3-2.4-0.8-5-1.4c-1.1-0.2-1.7-0.4-2.1-0.6c0.1,0,0.3-0.1,0.4-0.1c2.3-0.3,4-0.8,5.1-1.5
    c1.2-0.7,2.1-1.6,2.8-2.9c0.7-1.2,1.1-2.5,1.1-3.8c0-1.1-0.2-2-0.6-2.9c0,0,0,0,0,0h2.6v-6.1h-9.8c-3,0-5.5,0.7-7.3,2.2
    c-1.9,1.5-2.9,3.6-2.9,6.2c0,2.6,0.9,4.6,2.8,6.2c-0.1,0.1-0.1,0.1-0.2,0.2c-1.1,1-1.4,2.1-1.4,2.9c0,0.7,0.2,1.3,0.6,2
    c-3,1.5-3.7,4-3.7,5.8c0,2.4,1.1,4.4,3.2,5.8c1.9,1.3,4.5,2,7.7,2c3.1,0,5.7-0.7,7.6-2c2.1-1.4,3.2-3.4,3.2-5.8
    c0-1.9-0.6-3.4-1.9-4.7C233.6,101.5,232.8,100.9,231.9,100.5z M222.8,90c0-0.6,0.2-1.1,0.7-1.5c0.5-0.5,1-0.7,1.7-0.7
    c0.7,0,1.3,0.2,1.8,0.6c0.4,0.4,0.6,0.9,0.6,1.5c0,0.6-0.2,1.1-0.6,1.5c-0.5,0.4-1,0.6-1.8,0.6c-0.7,0-1.3-0.2-1.8-0.6
    C223,91.1,222.8,90.6,222.8,90z M229.3,107c0,0.2,0,0.5-0.6,0.9c-0.7,0.4-1.9,0.6-3.4,0.6c-2.7,0-4.1-0.5-4.1-1.6
    c0-0.2,0-0.5,0.6-0.9c0.6-0.4,1.4-0.6,2.4-0.6c1.7,0,3.1,0.2,4.1,0.7C228.7,106.3,229.3,106.6,229.3,107z"/>
  <path class="st1" d="M192.5,103l0.2-0.1c0.1-0.6,0.2-1.3,0.2-1.9c0-1.3-0.3-2.6-0.8-3.8l-1.3,0.9c-0.2,0.2-0.4,0.3-0.6,0.4v-7.6
    c0-1.8-0.1-3-0.2-3.7c-0.1-0.8-0.4-1.6-0.8-2.3c-0.4-0.8-0.9-1.4-1.5-1.8c-1.6-1.4-3.7-2.1-6.2-2.1c-3.3,0-6,1.1-7.8,3.3l-0.4,0.4
    v8.8l2.6-2.9c1.7-1.9,3.5-2.9,5.2-2.9c1.6,0,2.1,0.5,2.1,2.1l-4.1,1.4c-1.9,0.7-3.4,1.6-4.5,2.8c-1.2,1.3-1.8,2.8-1.8,4.4
    c0,1.8,0.6,3.3,1.8,4.5c1.2,1.2,2.7,1.8,4.5,1.8c1.7,0,3.3-0.4,4.8-1.3c0.6,0.7,1.7,1.3,3.5,1.3c0.8,0,1.5-0.1,2.3-0.4
    C190.7,104.1,191.5,103.6,192.5,103z M183.3,98.2c-0.6,0.5-1.3,0.7-2,0.7c-0.4,0-0.8-0.1-1-0.3c-0.2-0.2-0.3-0.5-0.3-0.9
    c0-0.4,0.1-0.7,0.4-1c0.2-0.2,0.8-0.7,2.3-1.3l0.6-0.2V98.2z"/>
  <path class="st1" d="M254.8,95.4l-0.5,0.4c-2,1.4-4,2.1-6.3,2.1c-1.5,0-2.6-0.4-3.5-1.3c-0.6-0.5-1-1.2-1.2-2h10.4h2.2h0.9h0.3v-2
    c0-3.5-0.9-6.3-2.7-8.4c-1.9-2.2-4.4-3.3-7.5-3.3c-3.2,0-5.8,1.1-7.8,3.4c-2,2.2-3,5-3,8.4c0,2.3,0.5,4.3,1.4,6.1
    c0.9,1.8,2.2,3.2,3.8,4.2c1.6,1.1,3.7,1.6,6.2,1.6c1.7,0,3.3-0.2,4.6-0.6c1.3-0.4,2.7-1,4-1.9l0.7-0.4v-6.3H254.8z M244.3,88.3
    c0.6-0.6,1.4-0.9,2.5-0.9c1,0,1.8,0.3,2.3,0.8c0.3,0.3,0.5,0.6,0.7,1.1h-6.2C243.7,88.9,244,88.6,244.3,88.3z"/>
  <path class="st1" d="M78.4,95.4l-0.5,0.4c-2,1.4-4,2.1-6.3,2.1c-1.5,0-2.6-0.4-3.5-1.3c-0.6-0.5-1-1.2-1.2-2h10.4h2.2h0.9h0.3v-2
    c0-3.5-0.9-6.3-2.7-8.4C76,82.1,73.5,81,70.4,81c-3.2,0-5.8,1.1-7.8,3.4c-2,2.2-3,5-3,8.4c0,2.3,0.5,4.3,1.4,6.1
    c0.9,1.8,2.2,3.2,3.8,4.2c1.6,1.1,3.7,1.6,6.2,1.6c1.7,0,3.3-0.2,4.6-0.6c1.3-0.4,2.7-1,4-1.9l0.7-0.4v-6.3H78.4z M67.9,88.3
    c0.6-0.6,1.4-0.9,2.5-0.9c1,0,1.8,0.3,2.3,0.8c0.3,0.3,0.5,0.6,0.7,1.1h-6.2C67.4,88.9,67.6,88.6,67.9,88.3z"/>
  <g>
    <path class="st1" d="M13.5,31.7c-0.2,0-0.4,0.1-0.6,0.2l-0.2,0.1c-0.2,0.2-0.3,0.4-0.4,0.6l-0.1,0.9c0,0.3,0,0.6,0.2,0.8l0.1,0.2
      c0.2,0.2,0.4,0.3,0.7,0.3l2.2,0.1l0,0.6c-0.1,1.1-0.4,3-0.8,5.7L13,50.8c-0.3,1.7-0.6,3-0.8,3.9c0,0.2-0.1,0.3-0.1,0.4L12,55.6
      l-0.4,0c-0.2,0-0.5,0-0.9,0.1l-0.8,0.1c-0.2,0-0.4,0.1-0.6,0.2l-0.2,0.1c-0.2,0.2-0.3,0.4-0.4,0.7l-0.1,0.9c0,0.4,0.1,0.7,0.4,0.9
      l0.1,0.1c0.2,0.1,0.4,0.2,0.6,0.2l0.1,0c3.6-0.1,7.5-0.1,11.4,0c0,0,0,0,0,0c0.3,0,0.5-0.1,0.7-0.3l0.2-0.1
      c0.2-0.2,0.3-0.4,0.3-0.6l0.1-0.9c0-0.3,0-0.5-0.2-0.7l-0.1-0.1c-0.2-0.2-0.5-0.4-0.7-0.4L19,55.6L19,55c0.1-0.6,0.3-2.2,1-6.5
      l0.4-2.4l0.8,1.4c1.6,2.6,3.6,6.3,6.1,11c0.2,0.3,0.5,0.5,0.9,0.5l0.1,0c2.2-0.1,4.6-0.1,6.3,0c0.3,0,0.5-0.1,0.7-0.2l0.2-0.1
      c0.2-0.2,0.3-0.4,0.4-0.7L36,57c0-0.3-0.1-0.6-0.3-0.9L35.5,56c-0.2-0.1-0.4-0.2-0.6-0.3c-0.5,0-0.8-0.1-0.9-0.1l-0.2,0l-0.1-0.1
      c-0.1-0.1-0.1-0.1-0.2-0.3c-0.2-0.3-0.8-1.3-1.7-2.8l-4-6.9l0.7-0.2c1.9-0.6,3.3-1.4,4.2-2.5c1.3-1.4,2-3.1,2-4.9
      c0-1.6-0.6-3-1.6-4.3c-1.1-1.3-3.4-2-6.8-2l-7,0.1c0,0,0,0,0,0C16.9,31.8,15.1,31.8,13.5,31.7L13.5,31.7z M22,43.2
      c-0.1,0-0.2,0-0.4,0l-0.7,0l1.3-7.7l0.4,0c0.4,0,0.9-0.1,1.5-0.1c3,0,3.4,1.4,3.4,2.8c0,1.7-0.5,2.9-1.4,3.7
      C25.3,42.8,23.8,43.2,22,43.2z"/>
  </g>
  <path class="st2" d="M111,107.2l23.4,23.4l0,0c0.8,0.6,1.9,0.5,2.6-0.2l4.2-4.2c0.7-0.7,0.8-1.8,0.2-2.6l0,0l-23-23
    c-3.8-3.8-3.8-10,0-13.8l22.4-22.4l0,0c0.6-0.8,0.5-1.9-0.2-2.6l-4.2-4.2c-0.7-0.7-1.8-0.8-2.6-0.2l-22,22
    c-1.8,1.8-4.3,2.9-6.9,2.9c-2.6,0-5.1-1-6.9-2.9L75.7,56.9l0,0c-0.8-0.6-1.9-0.5-2.6,0.2l-4.2,4.2c-0.7,0.7-0.8,1.8-0.2,2.6l0,0
    L90.7,86c1.8,1.8,2.9,4.3,2.9,6.9c0,2.6-1,5.1-2.9,6.9l-23.6,23.6c-0.5,0.7-0.5,1.5-0.1,2.2l4.8,4.8c0.7,0.4,1.6,0.4,2.2-0.1l0,0
    l23.1-23.1c1.8-1.8,4.3-2.9,6.9-2.9C106.7,104.4,109.2,105.4,111,107.2z"/>
  <g>
    <path class="st1" d="M30.1,47.6c0-0.3,0.1-0.7,0.2-1.2s0.3-0.9,0.6-1.2c0.3-0.3,0.6-0.6,1.1-0.8c0.4-0.2,0.9-0.3,1.4-0.3
      c0.5,0,0.9,0.1,1.2,0.4s0.5,0.7,0.5,1.2c0,0.5-0.1,1-0.3,1.5c-0.2,0.5-0.4,0.9-0.8,1.2c-0.3,0.2-0.6,0.5-1,0.6
      c-0.3,0.2-0.7,0.3-1.2,0.3c-0.4,0-0.7-0.1-1-0.2c-0.2-0.2-0.4-0.4-0.5-0.6C30.1,48.1,30.1,47.9,30.1,47.6z M31.3,47.6
      c0,0.4,0.1,0.7,0.2,0.9c0.2,0.2,0.4,0.3,0.7,0.3c0.2,0,0.4-0.1,0.5-0.2c0.2-0.1,0.3-0.3,0.4-0.6c0.1-0.3,0.2-0.7,0.3-1.1
      c0.1-0.4,0.1-0.8,0.1-1.2c0-0.4-0.1-0.8-0.3-0.9c-0.2-0.2-0.4-0.3-0.6-0.3c-0.3,0-0.5,0.1-0.7,0.3c-0.2,0.2-0.4,0.6-0.5,1.2
      C31.4,46.6,31.3,47.1,31.3,47.6z"/>
    <path class="st1" d="M35.9,47.5h0.2l0,0l0,0.5c0.1,0.2,0.3,0.3,0.6,0.4c0.2,0.1,0.5,0.2,0.8,0.2c0.2,0,0.4,0,0.5-0.1
      c0.2-0.1,0.3-0.2,0.3-0.3c0.1-0.1,0.1-0.3,0.1-0.4c0-0.1,0-0.2-0.1-0.3c-0.1-0.1-0.1-0.2-0.3-0.2c-0.1-0.1-0.3-0.1-0.5-0.2
      C37.3,47,37,47,36.9,46.9c-0.1,0-0.3-0.1-0.4-0.2c-0.1-0.1-0.2-0.2-0.3-0.4c-0.1-0.2-0.1-0.3-0.1-0.5s0-0.4,0.1-0.5
      c0.1-0.2,0.2-0.3,0.3-0.4c0.1-0.1,0.3-0.3,0.6-0.4c0.3-0.2,0.5-0.3,0.7-0.3c0.2,0,0.3-0.1,0.6-0.1c0.5,0,0.9,0.1,1.3,0.3
      c-0.1,0.3-0.1,0.7-0.2,1.2l0,0h-0.2l0,0l-0.1-0.5c-0.2-0.2-0.3-0.3-0.6-0.3c-0.2-0.1-0.4-0.1-0.6-0.1c-0.2,0-0.4,0.1-0.6,0.2
      c-0.2,0.1-0.2,0.3-0.2,0.5c0,0.2,0.1,0.4,0.2,0.5c0.2,0.1,0.5,0.2,0.9,0.3c0.3,0.1,0.6,0.1,0.7,0.2c0.2,0.1,0.3,0.2,0.4,0.4
      c0.1,0.2,0.2,0.4,0.2,0.6c0,0.2,0,0.4-0.1,0.6c-0.1,0.2-0.3,0.4-0.6,0.6S38.2,49,38,49.1c-0.2,0.1-0.5,0.1-0.9,0.1
      c-0.2,0-0.4,0-0.6,0c-0.2,0-0.5-0.1-0.8-0.2l0-0.1c0-0.1,0.1-0.3,0.1-0.6C35.9,47.9,35.9,47.7,35.9,47.5L35.9,47.5z"/>
    <path class="st1" d="M44,47.9l0.1,0.2l0,0.1c-0.6,0.4-1.1,0.7-1.5,0.9c-0.4,0.2-0.7,0.2-1,0.2c-0.2,0-0.5-0.1-0.7-0.2
      c-0.2-0.1-0.4-0.3-0.5-0.5c-0.1-0.2-0.1-0.4-0.1-0.6c0-0.4,0.1-0.8,0.2-1.4c0.1-0.6,0.3-1,0.5-1.3c0.2-0.3,0.6-0.6,1.1-0.8
      c0.5-0.3,0.9-0.4,1.3-0.4c0.3,0,0.5,0.1,0.7,0.2c0.2,0.2,0.3,0.4,0.3,0.7c0,0.3-0.1,0.7-0.3,0.9c-0.2,0.3-0.6,0.5-1,0.7
      c-0.5,0.2-1,0.3-1.5,0.4c0,0.2-0.1,0.5-0.1,0.7c0,0.3,0.1,0.6,0.2,0.7c0.2,0.1,0.3,0.2,0.5,0.2c0.1,0,0.3,0,0.5-0.1
      s0.3-0.1,0.5-0.2C43.4,48.2,43.6,48.1,44,47.9L44,47.9z M41.7,46.7c0.7-0.2,1.2-0.4,1.4-0.7c0.2-0.3,0.4-0.6,0.4-0.9
      c0-0.2,0-0.3-0.1-0.4c-0.1-0.1-0.2-0.1-0.4-0.1c-0.3,0-0.5,0.1-0.7,0.4C42.1,45.3,41.9,45.9,41.7,46.7z"/>
    <path class="st1" d="M47.5,41.4l0.1,0.1c-0.4,1.5-0.7,3-0.9,4.3c0.4-0.6,0.9-1,1.3-1.3c0.5-0.3,0.9-0.4,1.3-0.4
      c0.3,0,0.5,0.1,0.6,0.4c0.1,0.2,0.2,0.6,0.2,0.9c0,0.6-0.1,1.2-0.4,1.8c-0.2,0.6-0.7,1.1-1.3,1.5c-0.6,0.4-1.2,0.6-1.8,0.6
      c-0.3,0-0.5,0-0.7-0.1c-0.2-0.1-0.4-0.2-0.4-0.4c-0.1-0.2-0.1-0.4-0.1-0.6c0-0.2,0-0.4,0-0.6c0-0.2,0.1-0.7,0.2-1.4
      c0.4-2.3,0.6-3.6,0.6-3.7c0-0.1,0-0.1-0.1-0.2c0,0-0.1-0.1-0.2-0.1c-0.1,0-0.3,0-0.5,0l0,0l0-0.2l0.1,0
      C46.2,41.8,46.9,41.6,47.5,41.4z M46.4,47.8c0,0.3,0.1,0.6,0.2,0.7c0.1,0.1,0.3,0.2,0.5,0.2c0.2,0,0.4-0.1,0.5-0.2
      c0.2-0.1,0.4-0.4,0.5-0.7c0.2-0.3,0.3-0.7,0.4-1.1c0.1-0.4,0.2-0.8,0.2-1.1c0-0.3,0-0.5-0.1-0.6c-0.1-0.1-0.2-0.2-0.3-0.2
      c-0.1,0-0.3,0.1-0.4,0.2c-0.2,0.1-0.4,0.3-0.6,0.5c-0.2,0.2-0.4,0.5-0.5,0.7c-0.1,0.3-0.2,0.5-0.3,0.8
      C46.5,47.3,46.4,47.6,46.4,47.8z"/>
    <path class="st1" d="M55.7,47.9l0.1,0.2l0,0.1c-0.6,0.5-1,0.7-1.3,0.9s-0.4,0.2-0.6,0.2c-0.1,0-0.2,0-0.3-0.1
      c-0.1-0.1-0.1-0.2-0.1-0.3c0-0.1,0-0.4,0.1-0.6c0.1-0.3,0.2-0.8,0.4-1.5c-0.6,1-1.1,1.7-1.5,2c-0.5,0.4-0.8,0.6-1.1,0.6
      c-0.2,0-0.3-0.1-0.4-0.2c-0.1-0.1-0.2-0.4-0.2-0.8c0-0.3,0-0.7,0.1-1.1c0.1-0.4,0.2-0.9,0.4-1.3c0.1-0.2,0.2-0.4,0.3-0.5
      c0.1-0.1,0.4-0.3,0.8-0.6c0.4-0.3,0.7-0.5,0.9-0.5c0.2-0.1,0.4-0.1,0.6-0.1c0.2,0,0.3,0,0.5,0.1s0.4,0.1,0.6,0.2l0.5-0.3l0.2,0.1
      c-0.1,0.2-0.2,0.6-0.3,1.1l-0.4,1.7c-0.1,0.6-0.2,1-0.2,1.1c0,0.1,0,0.2,0.1,0.2C55,48.4,55.2,48.2,55.7,47.9L55.7,47.9z
       M54.3,44.9c-0.3-0.2-0.6-0.2-0.8-0.2c-0.3,0-0.5,0.1-0.6,0.3c-0.2,0.2-0.3,0.7-0.5,1.4C52.1,47.1,52,47.7,52,48
      c0,0.3,0.1,0.4,0.2,0.4c0.1,0,0.4-0.2,0.8-0.6c0.4-0.4,0.7-0.9,0.9-1.4C54.1,45.8,54.2,45.3,54.3,44.9z"/>
    <path class="st1" d="M56.7,49.2l-0.1-0.1c0.1-0.3,0.2-0.7,0.4-1.3c0.2-0.6,0.3-1.2,0.4-1.6c0.1-0.5,0.1-0.8,0.1-0.9
      c0-0.1,0-0.2-0.1-0.2c-0.1,0-0.4,0.1-0.7,0.4l-0.1,0l-0.1-0.2l0-0.1c0.2-0.2,0.4-0.3,0.6-0.5c0.2-0.2,0.4-0.3,0.6-0.5
      c0.2-0.1,0.3-0.2,0.4-0.2c0.1,0,0.2,0,0.3,0c0.2,0,0.3,0.1,0.3,0.3c0,0.2,0,0.4-0.1,0.7c-0.1,0.3-0.2,0.8-0.4,1.6
      c0.4-0.7,0.9-1.3,1.5-1.8c0.6-0.5,1.1-0.8,1.4-0.8c0.3,0,0.4,0.2,0.4,0.5c0,0.2,0,0.4-0.1,0.8c-0.1,0.3-0.2,0.8-0.4,1.5
      c-0.1,0.4-0.2,0.8-0.2,1c0,0.2-0.1,0.4-0.1,0.5c0,0.1,0,0.2,0.1,0.2c0.1,0,0.4-0.1,0.8-0.4l0.1,0l0.1,0.2l0,0.1
      c-0.6,0.4-1,0.7-1.3,0.8c-0.3,0.1-0.5,0.2-0.7,0.2c-0.1,0-0.2-0.1-0.3-0.2c0-0.1-0.1-0.2-0.1-0.3c0-0.3,0.1-0.8,0.4-1.7
      c0.3-0.9,0.4-1.5,0.4-1.8c0-0.1-0.1-0.2-0.2-0.2c-0.1,0-0.1,0-0.3,0.1c-0.1,0.1-0.3,0.2-0.5,0.4c-0.2,0.2-0.4,0.5-0.6,0.7
      c-0.2,0.3-0.3,0.6-0.5,0.9c-0.1,0.3-0.2,0.7-0.3,1c-0.1,0.4-0.1,0.6-0.2,0.9C57.4,49.1,57,49.1,56.7,49.2z"/>
    <path class="st1" d="M63.1,42.2L63.1,42.2l0-0.3l0,0c0.7-0.1,1.4-0.3,2.1-0.5l0.1,0.1c-0.2,0.7-0.5,2.4-1.1,5.2
      c0,0,0.1-0.2,0.4-0.5c0.3-0.4,0.6-0.7,0.9-1s0.5-0.5,0.8-0.7c0.3-0.2,0.5-0.3,0.7-0.4c0.2-0.1,0.4-0.1,0.6-0.1c0.1,0,0.2,0,0.3,0
      l0,0.1c-0.1,0.3-0.2,0.6-0.2,0.8l-0.1,0c-0.2-0.1-0.4-0.1-0.5-0.1c-0.2,0-0.5,0.1-0.7,0.2s-0.5,0.3-0.8,0.6c0,0.1,0.2,0.4,0.4,1
      c0.2,0.6,0.4,1,0.5,1.2c0.1,0.3,0.2,0.4,0.3,0.4c0.1,0,0.1,0.1,0.2,0.1c0.1,0,0.4-0.1,0.7-0.4l0.1,0l0.1,0.2l0,0.1
      c-0.1,0.1-0.3,0.2-0.4,0.3c-0.7,0.5-1.1,0.7-1.3,0.7c-0.1,0-0.1,0-0.2,0c-0.1,0-0.1-0.1-0.2-0.2c-0.1-0.1-0.2-0.3-0.2-0.5
      c-0.1-0.2-0.2-0.5-0.4-1c-0.2-0.5-0.3-0.8-0.3-0.9c-0.2,0.2-0.3,0.4-0.4,0.5c-0.1,0.1-0.1,0.2-0.2,0.3c0,0.1-0.1,0.3-0.1,0.6
      c-0.1,0.3-0.1,0.5-0.1,0.6c0,0.1,0,0.3,0,0.4c-0.3,0-0.7,0.1-1.2,0.2l-0.1-0.1c0.3-1,0.6-2.3,0.9-4c0.3-1.6,0.5-2.5,0.5-2.7
      c0-0.1,0-0.1-0.1-0.2c0,0-0.1-0.1-0.2-0.1C63.5,42.2,63.3,42.2,63.1,42.2z"/>
  </g>
  <g>
    <g>
      <path class="st2" d="M148,98.2v3.9c-2,0.7-3.9,1.1-5.8,1.1c-3.1,0-5.6-0.9-7.5-2.8c-1.9-1.9-2.8-4.3-2.8-7.5
        c0-3.1,0.9-5.7,2.7-7.6c1.8-1.9,4.2-2.9,7.2-2.9c1,0,2,0.1,2.8,0.3c0.8,0.2,1.8,0.6,3,1.1v4.2c-2-1.3-3.9-1.9-5.6-1.9
        c-1.8,0-3.2,0.6-4.4,1.9c-1.1,1.3-1.7,2.9-1.7,4.8c0,2,0.6,3.7,1.9,4.9c1.2,1.2,2.9,1.8,5,1.8C144.3,99.5,146.1,99.1,148,98.2z"
        />
      <path class="st2" d="M153.1,72.5h4v13c1.7-2,3.7-3,6.2-3c1.3,0,2.5,0.3,3.6,1c1.1,0.7,1.8,1.6,2.4,2.8c0.5,1.2,0.8,2.9,0.8,5.2
        v11.4h-4V90.5c0-1.5-0.4-2.6-1.1-3.5s-1.7-1.3-2.8-1.3c-0.9,0-1.7,0.2-2.5,0.7c-0.8,0.4-1.6,1.2-2.5,2.2v14.3h-4V72.5z"/>
      <path class="st2" d="M188.7,90.9v8.5c0,0.7,0.2,1,0.7,1c0.5,0,1.2-0.4,2.2-1.1v2.4c-0.9,0.6-1.6,1-2.2,1.2
        c-0.5,0.2-1.1,0.3-1.7,0.3c-1.7,0-2.7-0.7-3-2c-1.7,1.3-3.5,2-5.4,2c-1.4,0-2.6-0.5-3.5-1.4c-0.9-0.9-1.4-2.1-1.4-3.5
        c0-1.3,0.5-2.4,1.4-3.4c0.9-1,2.2-1.8,3.9-2.4l5.1-1.7v-1.1c0-2.4-1.2-3.6-3.6-3.6c-2.2,0-4.3,1.1-6.3,3.3v-4.3
        c1.5-1.8,3.7-2.7,6.6-2.7c2.2,0,3.9,0.6,5.2,1.7c0.4,0.4,0.8,0.8,1.2,1.4c0.3,0.6,0.6,1.2,0.7,1.8
        C188.7,88,188.7,89.2,188.7,90.9z M184.8,98.9V93l-2.7,1c-1.3,0.5-2.3,1.1-2.9,1.6c-0.6,0.5-0.8,1.2-0.8,2c0,0.8,0.3,1.5,0.8,2
        c0.5,0.5,1.2,0.8,2.1,0.8C182.6,100.5,183.7,100,184.8,98.9z"/>
      <path class="st2" d="M199.8,82.9v2.5c1.8-2,3.8-2.9,6-2.9c1.2,0,2.4,0.3,3.5,1c1.1,0.6,1.9,1.5,2.4,2.7c0.6,1.1,0.8,2.9,0.8,5.3
        v11.4h-4V91.5c0-2-0.3-3.5-0.9-4.4c-0.6-0.9-1.7-1.3-3.1-1.3c-1.9,0-3.5,0.9-4.8,2.8v14.3h-4v-20H199.8z"/>
      <path class="st2" d="M217.7,89.8c0-2.1,0.8-3.8,2.3-5.1c1.6-1.2,3.7-1.9,6.4-1.9h8.2V86h-4c0.8,0.8,1.3,1.5,1.6,2.2
        s0.5,1.4,0.5,2.2c0,1-0.3,2.1-0.9,3.1c-0.6,1-1.4,1.8-2.3,2.3c-0.9,0.5-2.5,1-4.6,1.3c-1.5,0.2-2.2,0.7-2.2,1.5
        c0,0.5,0.3,0.8,0.8,1.1c0.6,0.3,1.6,0.6,3,0.9c2.5,0.5,4,1,4.7,1.3c0.7,0.3,1.3,0.7,1.9,1.3c1,1,1.4,2.2,1.4,3.6
        c0,1.9-0.8,3.4-2.5,4.5c-1.7,1.1-3.9,1.7-6.8,1.7c-2.9,0-5.1-0.6-6.8-1.7c-1.7-1.1-2.6-2.7-2.6-4.6c0-2.7,1.7-4.5,5-5.2
        c-1.3-0.9-2-1.7-2-2.5c0-0.6,0.3-1.2,0.9-1.7c0.6-0.5,1.3-0.9,2.3-1.2C219.2,94.8,217.7,92.7,217.7,89.8z M224.2,103.8
        c-1.3,0-2.4,0.3-3.3,0.8c-0.8,0.6-1.3,1.3-1.3,2.2c0,2.1,1.9,3.1,5.6,3.1c1.8,0,3.1-0.3,4.1-0.8c1-0.5,1.4-1.2,1.4-2.2
        c0-0.9-0.6-1.7-1.8-2.3C227.7,104.1,226.2,103.8,224.2,103.8z M225.2,86.3c-1.1,0-2,0.4-2.7,1.1c-0.8,0.7-1.1,1.6-1.1,2.6
        c0,1,0.4,1.9,1.1,2.6c0.7,0.7,1.7,1,2.8,1c1.1,0,2-0.3,2.8-1c0.7-0.7,1.1-1.5,1.1-2.6c0-1-0.4-1.9-1.1-2.6
        C227.2,86.7,226.3,86.3,225.2,86.3z"/>
      <path class="st2" d="M255.5,93.2h-14.1c0.1,1.9,0.7,3.4,1.9,4.6c1.2,1.1,2.7,1.7,4.6,1.7c2.6,0,5-0.8,7.2-2.4v3.9
        c-1.2,0.8-2.4,1.4-3.6,1.7c-1.2,0.3-2.6,0.5-4.2,0.5c-2.2,0-4-0.5-5.3-1.4c-1.4-0.9-2.5-2.1-3.3-3.7c-0.8-1.5-1.2-3.3-1.2-5.4
        c0-3,0.9-5.5,2.6-7.4c1.7-1.9,4-2.9,6.7-2.9c2.7,0,4.8,0.9,6.4,2.8c1.6,1.9,2.4,4.3,2.4,7.5V93.2z M241.5,90.9h10.1
        c-0.1-1.6-0.6-2.8-1.4-3.7c-0.8-0.9-2-1.3-3.4-1.3c-1.4,0-2.6,0.4-3.5,1.3C242.4,88.1,241.8,89.3,241.5,90.9z"/>
    </g>
    <path class="st2" d="M79.1,93.2H65c0.1,1.9,0.7,3.4,1.9,4.6c1.2,1.1,2.7,1.7,4.6,1.7c2.6,0,5-0.8,7.2-2.4v3.9
      c-1.2,0.8-2.4,1.4-3.6,1.7c-1.2,0.3-2.6,0.5-4.2,0.5c-2.2,0-4-0.5-5.3-1.4c-1.4-0.9-2.5-2.1-3.3-3.7c-0.8-1.5-1.2-3.3-1.2-5.4
      c0-3,0.9-5.5,2.6-7.4c1.7-1.9,4-2.9,6.7-2.9c2.7,0,4.8,0.9,6.4,2.8c1.6,1.9,2.4,4.3,2.4,7.5V93.2z M65.1,90.9h10.1
      c-0.1-1.6-0.6-2.8-1.4-3.7c-0.8-0.9-2-1.3-3.4-1.3c-1.4,0-2.6,0.4-3.5,1.3C66,88.1,65.4,89.3,65.1,90.9z"/>
  </g>
  <g>
    <path class="st2" d="M30.8,52.9c0.9,1.6,1.5,2.6,1.8,2.9c0.3,0.4,0.5,0.6,0.7,0.7c0.2,0.1,0.7,0.2,1.5,0.3l0.2,0.1l-0.1,0.9
      l-0.2,0.1c-0.9-0.1-1.9-0.1-3-0.1c-1.1,0-2.3,0-3.4,0.1c-3.2-6.2-5.7-10.6-7.4-13.1l0.1-0.6c0.3,0,0.7,0,1,0
      c2.1,0,3.7-0.5,4.9-1.6c1.2-1,1.8-2.5,1.8-4.5c0-2.6-1.5-3.9-4.4-3.9c-1.2,0-2.2,0.1-2.9,0.3l-2.4,13.7c-0.7,4.1-1.1,6.4-1.1,6.9
      v0.4c0,0.3,0.1,0.6,0.3,0.7s0.6,0.3,1.2,0.3l1.9,0.1l0.1,0.1l-0.1,0.9l-0.2,0.1c-2-0.1-3.9-0.1-5.8-0.1c-1.9,0-3.8,0-5.6,0.1
      l-0.1-0.1l0.1-0.9l0.2-0.1l0.9-0.1c0.7,0,1.2-0.1,1.6-0.1S13,56,13.2,55c0.2-1,0.5-2.3,0.8-4l1.6-9.4c0.6-3.5,0.9-5.7,0.9-6.5
      c0-0.4-0.1-0.7-0.3-0.8c-0.2-0.1-0.6-0.2-1.3-0.2L13.3,34l-0.1-0.2l0.1-0.9l0.2-0.1c1.5,0.1,3.4,0.1,5.6,0.1l7-0.1
      c3.1,0,5,0.5,6,1.6c0.9,1.1,1.4,2.3,1.4,3.6c0,1.5-0.6,2.9-1.7,4.2c-1.1,1.2-3.1,2.1-5.8,2.7L30.8,52.9z"/>
  </g>
</g>
</svg>

